  0
SECTION
  2
HEADER
  9
$ACADVER
  1
AC1009
  9
$INSBASE
 10
0.000000
 20
0.000000
  9
$LIMMIN
 10
-40.000000
 20
-40.000000
  9
$LIMMAX
 10
4180.311200
 20
1039.646600
  9
$EXTMIN
 10
-40.000000
 20
-40.000000
  9
$EXTMAX
 10
4180.311200
 20
1039.646600
  9
$ATTMODE
 70
0
  9
$LUNITS
 70
2
  9
$LUPREC
 70
4
  9
$THICKNESS
 40
1.004000
  0
ENDSEC
  0
SECTION
  2
TABLES
  0
TABLE
  2
LTYPE
 70
1
  0
LTYPE
  3
Solid Line
  2
CONTINUOUS
 70
0
 72
65
 73
0
 40
0.000000
  0
ENDTAB
  0
TABLE
  2
LAYER
 70
5
  0
LAYER
  2
BG_SILKSCREEN_BOTTOM
 70
0
 62
1
  6
CONTINUOUS
  0
LAYER
  2
BG_OUTLINE
 70
0
 62
254
  6
CONTINUOUS
  0
LAYER
  2
PG_SILKSCREEN_BOTTOM
 70
0
 62
1
  6
CONTINUOUS
  0
LAYER
  2
PIN_BOTTOM
 70
0
 62
2
  6
CONTINUOUS
  0
LAYER
  2
RD_SILKSCREEN_BOTTOM
 70
0
 62
1
  6
CONTINUOUS
  0
ENDTAB
  0
TABLE
  2
STYLE
 70
1
  0
STYLE
  2
STANDARD
 70
0
 40
0.000000
 41
1.000000
 50
0.000000
 71
0
 42
0.200000
  3
txt
  0
ENDTAB
  0
ENDSEC
  0
SECTION
  2
BLOCKS
  0
BLOCK
  8
0
  2
FIGURE_CIRCLE
 70
0
 10
0.000000
 20
0.000000
  0
CIRCLE
  8
0
 10
0.000000
 20
0.000000
 40
0.500000
  0
ENDBLK
  0
BLOCK
  8
0
  2
FIGURE_SQUARE
 70
0
 10
0.000000
 20
0.000000
  0
POLYLINE
  8
0
 66
1
 70
1
 40
0.000000
 41
0.000000
 39
0.000000
  0
VERTEX
  8
0
 10
-0.500000
 20
-0.500000
 40
0.000000
 41
0.000000
 42
0.000000
  0
VERTEX
  8
0
 10
-0.500000
 20
0.500000
 40
0.000000
 41
0.000000
 42
0.000000
  0
VERTEX
  8
0
 10
0.500000
 20
0.500000
 40
0.000000
 41
0.000000
 42
0.000000
  0
VERTEX
  8
0
 10
0.500000
 20
-0.500000
 40
0.000000
 41
0.000000
 42
0.000000
  0
SEQEND
  0
ENDBLK
  0
BLOCK
  8
0
  2
FIGURE_HEX
 70
0
 10
0.000000
 20
0.000000
  0
POLYLINE
  8
0
 66
1
 70
1
 40
0.000000
 41
0.000000
 39
0.000000
  0
VERTEX
  8
0
 10
-0.500000
 20
0.000000
 40
0.000000
 41
0.000000
 42
0.000000
  0
VERTEX
  8
0
 10
-0.250000
 20
0.500000
 40
0.000000
 41
0.000000
 42
0.000000
  0
VERTEX
  8
0
 10
0.250000
 20
0.500000
 40
0.000000
 41
0.000000
 42
0.000000
  0
VERTEX
  8
0
 10
0.500000
 20
0.000000
 40
0.000000
 41
0.000000
 42
0.000000
  0
VERTEX
  8
0
 10
0.250000
 20
-0.500000
 40
0.000000
 41
0.000000
 42
0.000000
  0
VERTEX
  8
0
 10
-0.250000
 20
-0.500000
 40
0.000000
 41
0.000000
 42
0.000000
  0
SEQEND
  0
ENDBLK
  0
BLOCK
  8
0
  2
FIGURE_OCT
 70
0
 10
0.000000
 20
0.000000
  0
POLYLINE
  8
0
 66
1
 70
1
 40
0.000000
 41
0.000000
 39
0.000000
  0
VERTEX
  8
0
 10
-0.500000
 20
-0.207100
 40
0.000000
 41
0.000000
 42
0.000000
  0
VERTEX
  8
0
 10
-0.500000
 20
0.207100
 40
0.000000
 41
0.000000
 42
0.000000
  0
VERTEX
  8
0
 10
-0.207100
 20
0.500000
 40
0.000000
 41
0.000000
 42
0.000000
  0
VERTEX
  8
0
 10
0.207100
 20
0.500000
 40
0.000000
 41
0.000000
 42
0.000000
  0
VERTEX
  8
0
 10
0.500000
 20
0.207100
 40
0.000000
 41
0.000000
 42
0.000000
  0
VERTEX
  8
0
 10
0.500000
 20
-0.207100
 40
0.000000
 41
0.000000
 42
0.000000
  0
VERTEX
  8
0
 10
0.207100
 20
-0.500000
 40
0.000000
 41
0.000000
 42
0.000000
  0
VERTEX
  8
0
 10
-0.207100
 20
-0.500000
 40
0.000000
 41
0.000000
 42
0.000000
  0
SEQEND
  0
ENDBLK
  0
BLOCK
  8
0
  2
FIGURE_OBLONG
 70
0
 10
0.000000
 20
0.000000
  0
POLYLINE
  8
0
 66
1
 70
1
 40
0.000000
 41
0.000000
 39
0.000000
  0
VERTEX
  8
0
 10
-0.500000
 20
-0.125000
 40
0.000000
 41
0.000000
 42
0.000000
  0
VERTEX
  8
0
 10
-0.500000
 20
0.125000
 40
0.000000
 41
0.000000
 42
0.000000
  0
VERTEX
  8
0
 10
-0.416000
 20
0.375000
 40
0.000000
 41
0.000000
 42
0.000000
  0
VERTEX
  8
0
 10
-0.250000
 20
0.500000
 40
0.000000
 41
0.000000
 42
0.000000
  0
VERTEX
  8
0
 10
0.250000
 20
0.500000
 40
0.000000
 41
0.000000
 42
0.000000
  0
VERTEX
  8
0
 10
0.416000
 20
0.375000
 40
0.000000
 41
0.000000
 42
0.000000
  0
VERTEX
  8
0
 10
0.500000
 20
0.125000
 40
0.000000
 41
0.000000
 42
0.000000
  0
VERTEX
  8
0
 10
0.500000
 20
-0.125000
 40
0.000000
 41
0.000000
 42
0.000000
  0
VERTEX
  8
0
 10
0.416000
 20
-0.375000
 40
0.000000
 41
0.000000
 42
0.000000
  0
VERTEX
  8
0
 10
0.250000
 20
-0.500000
 40
0.000000
 41
0.000000
 42
0.000000
  0
VERTEX
  8
0
 10
-0.250000
 20
-0.500000
 40
0.000000
 41
0.000000
 42
0.000000
  0
VERTEX
  8
0
 10
-0.416000
 20
-0.375000
 40
0.000000
 41
0.000000
 42
0.000000
  0
SEQEND
  0
ENDBLK
  0
BLOCK
  8
0
  2
FIGURE_TRI
 70
0
 10
0.000000
 20
0.000000
  0
POLYLINE
  8
0
 66
1
 70
1
 40
0.000000
 41
0.000000
 39
0.000000
  0
VERTEX
  8
0
 10
-0.500000
 20
-0.500000
 40
0.000000
 41
0.000000
 42
0.000000
  0
VERTEX
  8
0
 10
0.000000
 20
0.500000
 40
0.000000
 41
0.000000
 42
0.000000
  0
VERTEX
  8
0
 10
0.500000
 20
-0.500000
 40
0.000000
 41
0.000000
 42
0.000000
  0
SEQEND
  0
ENDBLK
  0
BLOCK
  8
0
  2
FIGURE_CROSS
 70
0
 10
0.000000
 20
0.000000
  0
POLYLINE
  8
0
 66
1
 70
0
 40
0.000000
 41
0.000000
 39
0.000000
  0
VERTEX
  8
0
 10
-0.500000
 20
0.000000
 40
0.000000
 41
0.000000
 42
0.000000
  0
VERTEX
  8
0
 10
0.500000
 20
0.000000
 40
0.000000
 41
0.000000
 42
0.000000
  0
SEQEND
  0
POLYLINE
  8
0
 66
1
 70
0
 40
0.000000
 41
0.000000
 39
0.000000
  0
VERTEX
  8
0
 10
0.000000
 20
0.500000
 40
0.000000
 41
0.000000
 42
0.000000
  0
VERTEX
  8
0
 10
0.000000
 20
-0.500000
 40
0.000000
 41
0.000000
 42
0.000000
  0
SEQEND
  0
ENDBLK
  0
BLOCK
  8
0
  2
FIGURE_DIAMOND
 70
0
 10
0.000000
 20
0.000000
  0
POLYLINE
  8
0
 66
1
 70
1
 40
0.000000
 41
0.000000
 39
0.000000
  0
VERTEX
  8
0
 10
-0.500000
 20
0.000000
 40
0.000000
 41
0.000000
 42
0.000000
  0
VERTEX
  8
0
 10
0.000000
 20
0.500000
 40
0.000000
 41
0.000000
 42
0.000000
  0
VERTEX
  8
0
 10
0.500000
 20
0.000000
 40
0.000000
 41
0.000000
 42
0.000000
  0
VERTEX
  8
0
 10
0.000000
 20
-0.500000
 40
0.000000
 41
0.000000
 42
0.000000
  0
SEQEND
  0
ENDBLK
  0
ENDSEC
  0
SECTION
  2
ENTITIES
  0
POLYLINE
  8
PIN_BOTTOM
 66
1
 70
1
 40
0.000000
 41
0.000000
 39
0.000000
  0
VERTEX
  8
PIN_BOTTOM
 10
-4.152100
 20
-8.258800
 40
0.000000
 41
0.000000
 42
0.000000
  0
VERTEX
  8
PIN_BOTTOM
 10
-4.152100
 20
-6.658800
 40
0.000000
 41
0.000000
 42
0.000000
  0
VERTEX
  8
PIN_BOTTOM
 10
-4.852100
 20
-6.658800
 40
0.000000
 41
0.000000
 42
0.000000
  0
VERTEX
  8
PIN_BOTTOM
 10
-4.852100
 20
-8.258800
 40
0.000000
 41
0.000000
 42
0.000000
  0
SEQEND
  0
POLYLINE
  8
PIN_BOTTOM
 66
1
 70
1
 40
0.000000
 41
0.000000
 39
0.000000
  0
VERTEX
  8
PIN_BOTTOM
 10
-3.052100
 20
-8.258800
 40
0.000000
 41
0.000000
 42
0.000000
  0
VERTEX
  8
PIN_BOTTOM
 10
-3.052100
 20
-6.658800
 40
0.000000
 41
0.000000
 42
0.000000
  0
VERTEX
  8
PIN_BOTTOM
 10
-3.752100
 20
-6.658800
 40
0.000000
 41
0.000000
 42
0.000000
  0
VERTEX
  8
PIN_BOTTOM
 10
-3.752100
 20
-8.258800
 40
0.000000
 41
0.000000
 42
0.000000
  0
SEQEND
  0
POLYLINE
  8
PIN_BOTTOM
 66
1
 70
1
 40
0.000000
 41
0.000000
 39
0.000000
  0
VERTEX
  8
PIN_BOTTOM
 10
-1.952100
 20
-8.258800
 40
0.000000
 41
0.000000
 42
0.000000
  0
VERTEX
  8
PIN_BOTTOM
 10
-1.952100
 20
-6.658800
 40
0.000000
 41
0.000000
 42
0.000000
  0
VERTEX
  8
PIN_BOTTOM
 10
-2.652100
 20
-6.658800
 40
0.000000
 41
0.000000
 42
0.000000
  0
VERTEX
  8
PIN_BOTTOM
 10
-2.652100
 20
-8.258800
 40
0.000000
 41
0.000000
 42
0.000000
  0
SEQEND
  0
POLYLINE
  8
PIN_BOTTOM
 66
1
 70
1
 40
0.000000
 41
0.000000
 39
0.000000
  0
VERTEX
  8
PIN_BOTTOM
 10
-0.852100
 20
-8.258800
 40
0.000000
 41
0.000000
 42
0.000000
  0
VERTEX
  8
PIN_BOTTOM
 10
-0.852100
 20
-6.658800
 40
0.000000
 41
0.000000
 42
0.000000
  0
VERTEX
  8
PIN_BOTTOM
 10
-1.552100
 20
-6.658800
 40
0.000000
 41
0.000000
 42
0.000000
  0
VERTEX
  8
PIN_BOTTOM
 10
-1.552100
 20
-8.258800
 40
0.000000
 41
0.000000
 42
0.000000
  0
SEQEND
  0
POLYLINE
  8
PIN_BOTTOM
 66
1
 70
1
 40
0.000000
 41
0.000000
 39
0.000000
  0
VERTEX
  8
PIN_BOTTOM
 10
0.247900
 20
-8.258800
 40
0.000000
 41
0.000000
 42
0.000000
  0
VERTEX
  8
PIN_BOTTOM
 10
0.247900
 20
-6.658800
 40
0.000000
 41
0.000000
 42
0.000000
  0
VERTEX
  8
PIN_BOTTOM
 10
-0.452100
 20
-6.658800
 40
0.000000
 41
0.000000
 42
0.000000
  0
VERTEX
  8
PIN_BOTTOM
 10
-0.452100
 20
-8.258800
 40
0.000000
 41
0.000000
 42
0.000000
  0
SEQEND
  0
POLYLINE
  8
PIN_BOTTOM
 66
1
 70
1
 40
0.000000
 41
0.000000
 39
0.000000
  0
VERTEX
  8
PIN_BOTTOM
 10
1.347900
 20
-8.258800
 40
0.000000
 41
0.000000
 42
0.000000
  0
VERTEX
  8
PIN_BOTTOM
 10
1.347900
 20
-6.658800
 40
0.000000
 41
0.000000
 42
0.000000
  0
VERTEX
  8
PIN_BOTTOM
 10
0.647900
 20
-6.658800
 40
0.000000
 41
0.000000
 42
0.000000
  0
VERTEX
  8
PIN_BOTTOM
 10
0.647900
 20
-8.258800
 40
0.000000
 41
0.000000
 42
0.000000
  0
SEQEND
  0
POLYLINE
  8
PIN_BOTTOM
 66
1
 70
1
 40
0.000000
 41
0.000000
 39
0.000000
  0
VERTEX
  8
PIN_BOTTOM
 10
2.447900
 20
-8.258800
 40
0.000000
 41
0.000000
 42
0.000000
  0
VERTEX
  8
PIN_BOTTOM
 10
2.447900
 20
-6.658800
 40
0.000000
 41
0.000000
 42
0.000000
  0
VERTEX
  8
PIN_BOTTOM
 10
1.747900
 20
-6.658800
 40
0.000000
 41
0.000000
 42
0.000000
  0
VERTEX
  8
PIN_BOTTOM
 10
1.747900
 20
-8.258800
 40
0.000000
 41
0.000000
 42
0.000000
  0
SEQEND
  0
POLYLINE
  8
PIN_BOTTOM
 66
1
 70
1
 40
0.000000
 41
0.000000
 39
0.000000
  0
VERTEX
  8
PIN_BOTTOM
 10
3.547900
 20
-8.258800
 40
0.000000
 41
0.000000
 42
0.000000
  0
VERTEX
  8
PIN_BOTTOM
 10
3.547900
 20
-6.658800
 40
0.000000
 41
0.000000
 42
0.000000
  0
VERTEX
  8
PIN_BOTTOM
 10
2.847900
 20
-6.658800
 40
0.000000
 41
0.000000
 42
0.000000
  0
VERTEX
  8
PIN_BOTTOM
 10
2.847900
 20
-8.258800
 40
0.000000
 41
0.000000
 42
0.000000
  0
SEQEND
  0
POLYLINE
  8
PIN_BOTTOM
 66
1
 70
1
 40
0.000000
 41
0.000000
 39
0.000000
  0
VERTEX
  8
PIN_BOTTOM
 10
4.647900
 20
-8.258800
 40
0.000000
 41
0.000000
 42
0.000000
  0
VERTEX
  8
PIN_BOTTOM
 10
4.647900
 20
-6.658800
 40
0.000000
 41
0.000000
 42
0.000000
  0
VERTEX
  8
PIN_BOTTOM
 10
3.947900
 20
-6.658800
 40
0.000000
 41
0.000000
 42
0.000000
  0
VERTEX
  8
PIN_BOTTOM
 10
3.947900
 20
-8.258800
 40
0.000000
 41
0.000000
 42
0.000000
  0
SEQEND
  0
POLYLINE
  8
PIN_BOTTOM
 66
1
 70
1
 40
0.000000
 41
0.000000
 39
0.000000
  0
VERTEX
  8
PIN_BOTTOM
 10
6.097900
 20
-9.658800
 40
0.000000
 41
0.000000
 42
0.000000
  0
VERTEX
  8
PIN_BOTTOM
 10
6.097900
 20
-7.858800
 40
0.000000
 41
0.000000
 42
0.000000
  0
VERTEX
  8
PIN_BOTTOM
 10
4.897900
 20
-7.858800
 40
0.000000
 41
0.000000
 42
0.000000
  0
VERTEX
  8
PIN_BOTTOM
 10
4.897900
 20
-9.658800
 40
0.000000
 41
0.000000
 42
0.000000
  0
SEQEND
  0
POLYLINE
  8
PIN_BOTTOM
 66
1
 70
1
 40
0.000000
 41
0.000000
 39
0.000000
  0
VERTEX
  8
PIN_BOTTOM
 10
-8.406700
 20
-9.498400
 40
0.000000
 41
0.000000
 42
0.000000
  0
VERTEX
  8
PIN_BOTTOM
 10
-8.406700
 20
-7.998400
 40
0.000000
 41
0.000000
 42
0.000000
  0
VERTEX
  8
PIN_BOTTOM
 10
-10.006700
 20
-7.998400
 40
0.000000
 41
0.000000
 42
0.000000
  0
VERTEX
  8
PIN_BOTTOM
 10
-10.006700
 20
-9.498400
 40
0.000000
 41
0.000000
 42
0.000000
  0
SEQEND
  0
POLYLINE
  8
PIN_BOTTOM
 66
1
 70
1
 40
0.000000
 41
0.000000
 39
0.000000
  0
VERTEX
  8
PIN_BOTTOM
 10
6.147900
 20
-19.258800
 40
0.000000
 41
0.000000
 42
0.000000
  0
VERTEX
  8
PIN_BOTTOM
 10
6.147900
 20
-17.058800
 40
0.000000
 41
0.000000
 42
0.000000
  0
VERTEX
  8
PIN_BOTTOM
 10
4.847900
 20
-17.058800
 40
0.000000
 41
0.000000
 42
0.000000
  0
VERTEX
  8
PIN_BOTTOM
 10
4.847900
 20
-19.258800
 40
0.000000
 41
0.000000
 42
0.000000
  0
SEQEND
  0
POLYLINE
  8
PIN_BOTTOM
 66
1
 70
1
 40
0.000000
 41
0.000000
 39
0.000000
  0
VERTEX
  8
PIN_BOTTOM
 10
-9.852100
 20
-19.258800
 40
0.000000
 41
0.000000
 42
0.000000
  0
VERTEX
  8
PIN_BOTTOM
 10
-9.852100
 20
-17.058800
 40
0.000000
 41
0.000000
 42
0.000000
  0
VERTEX
  8
PIN_BOTTOM
 10
-11.152100
 20
-17.058800
 40
0.000000
 41
0.000000
 42
0.000000
  0
VERTEX
  8
PIN_BOTTOM
 10
-11.152100
 20
-19.258800
 40
0.000000
 41
0.000000
 42
0.000000
  0
SEQEND
  0
CIRCLE
  8
PIN_BOTTOM
 10
2.697900
 20
-18.458800
 40
0.600000
  0
CIRCLE
  8
PIN_BOTTOM
 10
-5.302100
 20
-18.458800
 40
0.600000
  0
POLYLINE
  8
PG_SILKSCREEN_BOTTOM
 66
1
 70
0
 40
0.000000
 41
0.000000
 39
0.000000
  0
VERTEX
  8
PG_SILKSCREEN_BOTTOM
 10
4.898700
 20
-8.258200
 40
0.200000
 41
0.200000
 42
0.000000
  0
VERTEX
  8
PG_SILKSCREEN_BOTTOM
 10
-9.849000
 20
-8.258200
 40
0.200000
 41
0.200000
 42
0.000000
  0
VERTEX
  8
PG_SILKSCREEN_BOTTOM
 10
-9.849000
 20
-22.963500
 40
0.200000
 41
0.200000
 42
0.000000
  0
VERTEX
  8
PG_SILKSCREEN_BOTTOM
 10
-6.857600
 20
-22.963500
 40
0.200000
 41
0.200000
 42
0.000000
  0
VERTEX
  8
PG_SILKSCREEN_BOTTOM
 10
-5.268500
 20
-22.260700
 40
0.200000
 41
0.200000
 42
0.000000
  0
VERTEX
  8
PG_SILKSCREEN_BOTTOM
 10
4.900900
 20
-22.260700
 40
0.200000
 41
0.200000
 42
0.000000
  0
VERTEX
  8
PG_SILKSCREEN_BOTTOM
 10
4.900900
 20
-8.258200
 40
0.200000
 41
0.200000
 42
0.000000
  0
VERTEX
  8
PG_SILKSCREEN_BOTTOM
 10
4.898700
 20
-8.258200
 40
0.200000
 41
0.200000
 42
0.000000
  0
SEQEND
  0
POLYLINE
  8
PG_SILKSCREEN_BOTTOM
 66
1
 70
0
 40
0.000000
 41
0.000000
 39
0.000000
  0
VERTEX
  8
PG_SILKSCREEN_BOTTOM
 10
-7.198000
 20
-22.983400
 40
0.200000
 41
0.200000
 42
0.000000
  0
VERTEX
  8
PG_SILKSCREEN_BOTTOM
 10
-7.229100
 20
-22.983400
 40
0.200000
 41
0.200000
 42
0.000000
  0
VERTEX
  8
PG_SILKSCREEN_BOTTOM
 10
-7.229100
 20
-24.594100
 40
0.200000
 41
0.200000
 42
0.000000
  0
VERTEX
  8
PG_SILKSCREEN_BOTTOM
 10
4.213700
 20
-24.594100
 40
0.200000
 41
0.200000
 42
0.000000
  0
VERTEX
  8
PG_SILKSCREEN_BOTTOM
 10
4.213700
 20
-22.293100
 40
0.200000
 41
0.200000
 42
0.000000
  0
SEQEND
  0
TEXT
  8
RD_SILKSCREEN_BOTTOM
 10
-7.285200
 20
-7.645000
 11
0.000000
 21
0.000000
 40
0.787400
 41
0.907036
 50
0.000000
  7
STANDARD
 71
2
 72
0
  1
J12
 73
0
  0
POLYLINE
  8
PIN_BOTTOM
 66
1
 70
1
 40
0.000000
 41
0.000000
 39
0.000000
  0
VERTEX
  8
PIN_BOTTOM
 10
-2.220100
 20
17.045200
 40
0.000000
 41
0.000000
 42
0.000000
  0
VERTEX
  8
PIN_BOTTOM
 10
-1.420100
 20
17.045200
 40
0.000000
 41
0.000000
 42
0.000000
  0
VERTEX
  8
PIN_BOTTOM
 10
-1.420100
 20
18.045200
 40
0.000000
 41
0.000000
 42
0.000000
  0
VERTEX
  8
PIN_BOTTOM
 10
-2.220100
 20
18.045200
 40
0.000000
 41
0.000000
 42
0.000000
  0
SEQEND
  0
POLYLINE
  8
PIN_BOTTOM
 66
1
 70
1
 40
0.000000
 41
0.000000
 39
0.000000
  0
VERTEX
  8
PIN_BOTTOM
 10
-5.460100
 20
17.045200
 40
0.000000
 41
0.000000
 42
0.000000
  0
VERTEX
  8
PIN_BOTTOM
 10
-4.660100
 20
17.045200
 40
0.000000
 41
0.000000
 42
0.000000
  0
VERTEX
  8
PIN_BOTTOM
 10
-4.660100
 20
18.045200
 40
0.000000
 41
0.000000
 42
0.000000
  0
VERTEX
  8
PIN_BOTTOM
 10
-5.460100
 20
18.045200
 40
0.000000
 41
0.000000
 42
0.000000
  0
SEQEND
  0
POLYLINE
  8
PG_SILKSCREEN_BOTTOM
 66
1
 70
0
 40
0.000000
 41
0.000000
 39
0.000000
  0
VERTEX
  8
PG_SILKSCREEN_BOTTOM
 10
-2.830500
 20
18.332600
 40
0.200000
 41
0.200000
 42
0.000000
  0
VERTEX
  8
PG_SILKSCREEN_BOTTOM
 10
-2.830500
 20
16.732400
 40
0.200000
 41
0.200000
 42
0.000000
  0
SEQEND
  0
POLYLINE
  8
PG_SILKSCREEN_BOTTOM
 66
1
 70
1
 40
0.000000
 41
0.000000
 39
0.000000
  0
VERTEX
  8
PG_SILKSCREEN_BOTTOM
 10
-2.932100
 20
17.545200
 40
0.000000
 41
0.000000
 42
0.000000
  0
VERTEX
  8
PG_SILKSCREEN_BOTTOM
 10
-3.744900
 20
18.358000
 40
0.000000
 41
0.000000
 42
0.000000
  0
VERTEX
  8
PG_SILKSCREEN_BOTTOM
 10
-3.744900
 20
16.732400
 40
0.000000
 41
0.000000
 42
0.000000
  0
SEQEND
  0
TEXT
  8
RD_SILKSCREEN_BOTTOM
 10
-1.636700
 20
18.866000
 11
0.000000
 21
0.000000
 40
0.787400
 41
0.907036
 50
0.000000
  7
STANDARD
 71
2
 72
0
  1
D2
 73
0
  0
POLYLINE
  8
PIN_BOTTOM
 66
1
 70
1
 40
0.000000
 41
0.000000
 39
0.000000
  0
VERTEX
  8
PIN_BOTTOM
 10
15.563900
 20
14.660900
 40
0.000000
 41
0.000000
 42
0.000000
  0
VERTEX
  8
PIN_BOTTOM
 10
15.563900
 20
16.660900
 40
0.000000
 41
0.000000
 42
0.000000
  0
VERTEX
  8
PIN_BOTTOM
 10
17.563900
 20
16.660900
 40
0.000000
 41
0.000000
 42
0.000000
  0
VERTEX
  8
PIN_BOTTOM
 10
17.563900
 20
14.660900
 40
0.000000
 41
0.000000
 42
0.000000
  0
SEQEND
  0
CIRCLE
  8
PIN_BOTTOM
 10
16.563900
 20
13.120900
 40
0.850000
  0
CIRCLE
  8
PIN_BOTTOM
 10
16.563900
 20
10.580900
 40
0.850000
  0
CIRCLE
  8
PIN_BOTTOM
 10
16.563900
 20
8.040900
 40
0.850000
  0
POLYLINE
  8
PIN_BOTTOM
 66
1
 70
1
 40
0.000000
 41
0.000000
 39
0.000000
  0
VERTEX
  8
PIN_BOTTOM
 10
-16.261500
 20
-14.397800
 40
0.000000
 41
0.000000
 42
0.000000
  0
VERTEX
  8
PIN_BOTTOM
 10
-15.461500
 20
-14.397800
 40
0.000000
 41
0.000000
 42
0.000000
  0
VERTEX
  8
PIN_BOTTOM
 10
-15.461500
 20
-14.117800
 40
0.000000
 41
0.000000
 42
0.000000
  0
VERTEX
  8
PIN_BOTTOM
 10
-16.261500
 20
-14.117800
 40
0.000000
 41
0.000000
 42
0.000000
  0
SEQEND
  0
POLYLINE
  8
PIN_BOTTOM
 66
1
 70
1
 40
0.000000
 41
0.000000
 39
0.000000
  0
VERTEX
  8
PIN_BOTTOM
 10
-16.261500
 20
-13.897800
 40
0.000000
 41
0.000000
 42
0.000000
  0
VERTEX
  8
PIN_BOTTOM
 10
-15.461500
 20
-13.897800
 40
0.000000
 41
0.000000
 42
0.000000
  0
VERTEX
  8
PIN_BOTTOM
 10
-15.461500
 20
-13.617800
 40
0.000000
 41
0.000000
 42
0.000000
  0
VERTEX
  8
PIN_BOTTOM
 10
-16.261500
 20
-13.617800
 40
0.000000
 41
0.000000
 42
0.000000
  0
SEQEND
  0
POLYLINE
  8
PIN_BOTTOM
 66
1
 70
1
 40
0.000000
 41
0.000000
 39
0.000000
  0
VERTEX
  8
PIN_BOTTOM
 10
-16.261500
 20
-13.397800
 40
0.000000
 41
0.000000
 42
0.000000
  0
VERTEX
  8
PIN_BOTTOM
 10
-15.461500
 20
-13.397800
 40
0.000000
 41
0.000000
 42
0.000000
  0
VERTEX
  8
PIN_BOTTOM
 10
-15.461500
 20
-13.117800
 40
0.000000
 41
0.000000
 42
0.000000
  0
VERTEX
  8
PIN_BOTTOM
 10
-16.261500
 20
-13.117800
 40
0.000000
 41
0.000000
 42
0.000000
  0
SEQEND
  0
POLYLINE
  8
PIN_BOTTOM
 66
1
 70
1
 40
0.000000
 41
0.000000
 39
0.000000
  0
VERTEX
  8
PIN_BOTTOM
 10
-16.261500
 20
-12.897800
 40
0.000000
 41
0.000000
 42
0.000000
  0
VERTEX
  8
PIN_BOTTOM
 10
-15.461500
 20
-12.897800
 40
0.000000
 41
0.000000
 42
0.000000
  0
VERTEX
  8
PIN_BOTTOM
 10
-15.461500
 20
-12.617800
 40
0.000000
 41
0.000000
 42
0.000000
  0
VERTEX
  8
PIN_BOTTOM
 10
-16.261500
 20
-12.617800
 40
0.000000
 41
0.000000
 42
0.000000
  0
SEQEND
  0
POLYLINE
  8
PIN_BOTTOM
 66
1
 70
1
 40
0.000000
 41
0.000000
 39
0.000000
  0
VERTEX
  8
PIN_BOTTOM
 10
-14.061500
 20
-12.897800
 40
0.000000
 41
0.000000
 42
0.000000
  0
VERTEX
  8
PIN_BOTTOM
 10
-13.261500
 20
-12.897800
 40
0.000000
 41
0.000000
 42
0.000000
  0
VERTEX
  8
PIN_BOTTOM
 10
-13.261500
 20
-12.617800
 40
0.000000
 41
0.000000
 42
0.000000
  0
VERTEX
  8
PIN_BOTTOM
 10
-14.061500
 20
-12.617800
 40
0.000000
 41
0.000000
 42
0.000000
  0
SEQEND
  0
POLYLINE
  8
PIN_BOTTOM
 66
1
 70
1
 40
0.000000
 41
0.000000
 39
0.000000
  0
VERTEX
  8
PIN_BOTTOM
 10
-14.061500
 20
-13.397800
 40
0.000000
 41
0.000000
 42
0.000000
  0
VERTEX
  8
PIN_BOTTOM
 10
-13.261500
 20
-13.397800
 40
0.000000
 41
0.000000
 42
0.000000
  0
VERTEX
  8
PIN_BOTTOM
 10
-13.261500
 20
-13.117800
 40
0.000000
 41
0.000000
 42
0.000000
  0
VERTEX
  8
PIN_BOTTOM
 10
-14.061500
 20
-13.117800
 40
0.000000
 41
0.000000
 42
0.000000
  0
SEQEND
  0
POLYLINE
  8
PIN_BOTTOM
 66
1
 70
1
 40
0.000000
 41
0.000000
 39
0.000000
  0
VERTEX
  8
PIN_BOTTOM
 10
-14.061500
 20
-13.897800
 40
0.000000
 41
0.000000
 42
0.000000
  0
VERTEX
  8
PIN_BOTTOM
 10
-13.261500
 20
-13.897800
 40
0.000000
 41
0.000000
 42
0.000000
  0
VERTEX
  8
PIN_BOTTOM
 10
-13.261500
 20
-13.617800
 40
0.000000
 41
0.000000
 42
0.000000
  0
VERTEX
  8
PIN_BOTTOM
 10
-14.061500
 20
-13.617800
 40
0.000000
 41
0.000000
 42
0.000000
  0
SEQEND
  0
POLYLINE
  8
PIN_BOTTOM
 66
1
 70
1
 40
0.000000
 41
0.000000
 39
0.000000
  0
VERTEX
  8
PIN_BOTTOM
 10
-14.061500
 20
-14.397800
 40
0.000000
 41
0.000000
 42
0.000000
  0
VERTEX
  8
PIN_BOTTOM
 10
-13.261500
 20
-14.397800
 40
0.000000
 41
0.000000
 42
0.000000
  0
VERTEX
  8
PIN_BOTTOM
 10
-13.261500
 20
-14.117800
 40
0.000000
 41
0.000000
 42
0.000000
  0
VERTEX
  8
PIN_BOTTOM
 10
-14.061500
 20
-14.117800
 40
0.000000
 41
0.000000
 42
0.000000
  0
SEQEND
  0
POLYLINE
  8
PIN_BOTTOM
 66
1
 70
1
 40
0.000000
 41
0.000000
 39
0.000000
  0
VERTEX
  8
PIN_BOTTOM
 10
-15.211500
 20
-14.307800
 40
0.000000
 41
0.000000
 42
0.000000
  0
VERTEX
  8
PIN_BOTTOM
 10
-14.311500
 20
-14.307800
 40
0.000000
 41
0.000000
 42
0.000000
  0
VERTEX
  8
PIN_BOTTOM
 10
-14.311500
 20
-12.707800
 40
0.000000
 41
0.000000
 42
0.000000
  0
VERTEX
  8
PIN_BOTTOM
 10
-15.211500
 20
-12.707800
 40
0.000000
 41
0.000000
 42
0.000000
  0
SEQEND
  0
POLYLINE
  8
PG_SILKSCREEN_BOTTOM
 66
1
 70
0
 40
0.000000
 41
0.000000
 39
0.000000
  0
VERTEX
  8
PG_SILKSCREEN_BOTTOM
 10
-13.680500
 20
-14.459800
 40
0.150000
 41
0.150000
 42
0.000000
  0
VERTEX
  8
PG_SILKSCREEN_BOTTOM
 10
-13.680500
 20
-14.583800
 40
0.150000
 41
0.150000
 42
0.000000
  0
VERTEX
  8
PG_SILKSCREEN_BOTTOM
 10
-15.835500
 20
-14.583800
 40
0.150000
 41
0.150000
 42
0.000000
  0
VERTEX
  8
PG_SILKSCREEN_BOTTOM
 10
-15.835500
 20
-14.436800
 40
0.150000
 41
0.150000
 42
0.000000
  0
SEQEND
  0
POLYLINE
  8
PG_SILKSCREEN_BOTTOM
 66
1
 70
0
 40
0.000000
 41
0.000000
 39
0.000000
  0
VERTEX
  8
PG_SILKSCREEN_BOTTOM
 10
-13.684500
 20
-12.570800
 40
0.150000
 41
0.150000
 42
0.000000
  0
VERTEX
  8
PG_SILKSCREEN_BOTTOM
 10
-13.684500
 20
-12.430800
 40
0.150000
 41
0.150000
 42
0.000000
  0
VERTEX
  8
PG_SILKSCREEN_BOTTOM
 10
-15.839500
 20
-12.430800
 40
0.150000
 41
0.150000
 42
0.000000
  0
VERTEX
  8
PG_SILKSCREEN_BOTTOM
 10
-15.839500
 20
-12.510800
 40
0.150000
 41
0.150000
 42
0.000000
  0
SEQEND
  0
POLYLINE
  8
PG_SILKSCREEN_BOTTOM
 66
1
 70
0
 40
0.000000
 41
0.000000
 39
0.000000
  0
VERTEX
  8
PG_SILKSCREEN_BOTTOM
 10
-15.147500
 20
-14.873800
 40
0.150000
 41
0.150000
 42
0.000000
  0
VERTEX
  8
PG_SILKSCREEN_BOTTOM
 10
-16.453500
 20
-14.873800
 40
0.150000
 41
0.150000
 42
0.000000
  0
VERTEX
  8
PG_SILKSCREEN_BOTTOM
 10
-16.453500
 20
-13.932800
 40
0.150000
 41
0.150000
 42
0.000000
  0
SEQEND
  0
TEXT
  8
RD_SILKSCREEN_BOTTOM
 10
-11.214300
 20
-14.650500
 11
0.000000
 21
0.000000
 40
0.787400
 41
0.907036
 50
0.000000
  7
STANDARD
 71
2
 72
0
  1
U10
 73
0
  0
POLYLINE
  8
PIN_BOTTOM
 66
1
 70
1
 40
0.000000
 41
0.000000
 39
0.000000
  0
VERTEX
  8
PIN_BOTTOM
 10
-2.493400
 20
5.982600
 40
0.000000
 41
0.000000
 42
0.000000
  0
VERTEX
  8
PIN_BOTTOM
 10
-1.793400
 20
5.982600
 40
0.000000
 41
0.000000
 42
0.000000
  0
VERTEX
  8
PIN_BOTTOM
 10
-1.793400
 20
6.882600
 40
0.000000
 41
0.000000
 42
0.000000
  0
VERTEX
  8
PIN_BOTTOM
 10
-2.493400
 20
6.882600
 40
0.000000
 41
0.000000
 42
0.000000
  0
SEQEND
  0
POLYLINE
  8
PIN_BOTTOM
 66
1
 70
1
 40
0.000000
 41
0.000000
 39
0.000000
  0
VERTEX
  8
PIN_BOTTOM
 10
-0.588400
 20
5.982600
 40
0.000000
 41
0.000000
 42
0.000000
  0
VERTEX
  8
PIN_BOTTOM
 10
0.111600
 20
5.982600
 40
0.000000
 41
0.000000
 42
0.000000
  0
VERTEX
  8
PIN_BOTTOM
 10
0.111600
 20
6.882600
 40
0.000000
 41
0.000000
 42
0.000000
  0
VERTEX
  8
PIN_BOTTOM
 10
-0.588400
 20
6.882600
 40
0.000000
 41
0.000000
 42
0.000000
  0
SEQEND
  0
POLYLINE
  8
PIN_BOTTOM
 66
1
 70
1
 40
0.000000
 41
0.000000
 39
0.000000
  0
VERTEX
  8
PIN_BOTTOM
 10
-1.528200
 20
8.360600
 40
0.000000
 41
0.000000
 42
0.000000
  0
VERTEX
  8
PIN_BOTTOM
 10
-0.828200
 20
8.360600
 40
0.000000
 41
0.000000
 42
0.000000
  0
VERTEX
  8
PIN_BOTTOM
 10
-0.828200
 20
9.260600
 40
0.000000
 41
0.000000
 42
0.000000
  0
VERTEX
  8
PIN_BOTTOM
 10
-1.528200
 20
9.260600
 40
0.000000
 41
0.000000
 42
0.000000
  0
SEQEND
  0
POLYLINE
  8
PG_SILKSCREEN_BOTTOM
 66
1
 70
0
 40
0.000000
 41
0.000000
 39
0.000000
  0
VERTEX
  8
PG_SILKSCREEN_BOTTOM
 10
-0.677100
 20
8.374800
 40
0.150000
 41
0.150000
 42
0.000000
  0
VERTEX
  8
PG_SILKSCREEN_BOTTOM
 10
0.398800
 20
8.374800
 40
0.150000
 41
0.150000
 42
0.000000
  0
VERTEX
  8
PG_SILKSCREEN_BOTTOM
 10
0.398800
 20
6.839700
 40
0.150000
 41
0.150000
 42
0.000000
  0
VERTEX
  8
PG_SILKSCREEN_BOTTOM
 10
0.268300
 20
6.839700
 40
0.150000
 41
0.150000
 42
0.000000
  0
VERTEX
  8
PG_SILKSCREEN_BOTTOM
 10
0.268300
 20
6.844200
 40
0.150000
 41
0.150000
 42
0.000000
  0
SEQEND
  0
POLYLINE
  8
PG_SILKSCREEN_BOTTOM
 66
1
 70
0
 40
0.000000
 41
0.000000
 39
0.000000
  0
VERTEX
  8
PG_SILKSCREEN_BOTTOM
 10
-1.654000
 20
8.374800
 40
0.150000
 41
0.150000
 42
0.000000
  0
VERTEX
  8
PG_SILKSCREEN_BOTTOM
 10
-1.654000
 20
8.401800
 40
0.150000
 41
0.150000
 42
0.000000
  0
VERTEX
  8
PG_SILKSCREEN_BOTTOM
 10
-2.802000
 20
8.401800
 40
0.150000
 41
0.150000
 42
0.000000
  0
VERTEX
  8
PG_SILKSCREEN_BOTTOM
 10
-2.802000
 20
6.857700
 40
0.150000
 41
0.150000
 42
0.000000
  0
VERTEX
  8
PG_SILKSCREEN_BOTTOM
 10
-2.684900
 20
6.857700
 40
0.150000
 41
0.150000
 42
0.000000
  0
SEQEND
  0
POLYLINE
  8
PG_SILKSCREEN_BOTTOM
 66
1
 70
0
 40
0.000000
 41
0.000000
 39
0.000000
  0
VERTEX
  8
PG_SILKSCREEN_BOTTOM
 10
-0.699600
 20
6.848700
 40
0.150000
 41
0.150000
 42
0.000000
  0
VERTEX
  8
PG_SILKSCREEN_BOTTOM
 10
-0.699600
 20
6.844200
 40
0.150000
 41
0.150000
 42
0.000000
  0
VERTEX
  8
PG_SILKSCREEN_BOTTOM
 10
-1.649500
 20
6.844200
 40
0.150000
 41
0.150000
 42
0.000000
  0
SEQEND
  0
TEXT
  8
RD_SILKSCREEN_BOTTOM
 10
0.809600
 20
8.664400
 11
0.000000
 21
0.000000
 40
0.787400
 41
0.907036
 50
0.000000
  7
STANDARD
 71
2
 72
0
  1
Q2
 73
0
  0
POLYLINE
  8
PIN_BOTTOM
 66
1
 70
1
 40
0.000000
 41
0.000000
 39
0.000000
  0
VERTEX
  8
PIN_BOTTOM
 10
-2.057600
 20
15.402300
 40
0.000000
 41
0.000000
 42
0.000000
  0
VERTEX
  8
PIN_BOTTOM
 10
-2.757600
 20
15.402300
 40
0.000000
 41
0.000000
 42
0.000000
  0
VERTEX
  8
PIN_BOTTOM
 10
-2.757600
 20
14.502300
 40
0.000000
 41
0.000000
 42
0.000000
  0
VERTEX
  8
PIN_BOTTOM
 10
-2.057600
 20
14.502300
 40
0.000000
 41
0.000000
 42
0.000000
  0
SEQEND
  0
POLYLINE
  8
PIN_BOTTOM
 66
1
 70
1
 40
0.000000
 41
0.000000
 39
0.000000
  0
VERTEX
  8
PIN_BOTTOM
 10
-3.962600
 20
15.402300
 40
0.000000
 41
0.000000
 42
0.000000
  0
VERTEX
  8
PIN_BOTTOM
 10
-4.662600
 20
15.402300
 40
0.000000
 41
0.000000
 42
0.000000
  0
VERTEX
  8
PIN_BOTTOM
 10
-4.662600
 20
14.502300
 40
0.000000
 41
0.000000
 42
0.000000
  0
VERTEX
  8
PIN_BOTTOM
 10
-3.962600
 20
14.502300
 40
0.000000
 41
0.000000
 42
0.000000
  0
SEQEND
  0
POLYLINE
  8
PIN_BOTTOM
 66
1
 70
1
 40
0.000000
 41
0.000000
 39
0.000000
  0
VERTEX
  8
PIN_BOTTOM
 10
-3.022800
 20
13.024300
 40
0.000000
 41
0.000000
 42
0.000000
  0
VERTEX
  8
PIN_BOTTOM
 10
-3.722800
 20
13.024300
 40
0.000000
 41
0.000000
 42
0.000000
  0
VERTEX
  8
PIN_BOTTOM
 10
-3.722800
 20
12.124300
 40
0.000000
 41
0.000000
 42
0.000000
  0
VERTEX
  8
PIN_BOTTOM
 10
-3.022800
 20
12.124300
 40
0.000000
 41
0.000000
 42
0.000000
  0
SEQEND
  0
POLYLINE
  8
PG_SILKSCREEN_BOTTOM
 66
1
 70
0
 40
0.000000
 41
0.000000
 39
0.000000
  0
VERTEX
  8
PG_SILKSCREEN_BOTTOM
 10
-3.873900
 20
13.010100
 40
0.150000
 41
0.150000
 42
0.000000
  0
VERTEX
  8
PG_SILKSCREEN_BOTTOM
 10
-4.949800
 20
13.010100
 40
0.150000
 41
0.150000
 42
0.000000
  0
VERTEX
  8
PG_SILKSCREEN_BOTTOM
 10
-4.949800
 20
14.545200
 40
0.150000
 41
0.150000
 42
0.000000
  0
VERTEX
  8
PG_SILKSCREEN_BOTTOM
 10
-4.819300
 20
14.545200
 40
0.150000
 41
0.150000
 42
0.000000
  0
VERTEX
  8
PG_SILKSCREEN_BOTTOM
 10
-4.819300
 20
14.540700
 40
0.150000
 41
0.150000
 42
0.000000
  0
SEQEND
  0
POLYLINE
  8
PG_SILKSCREEN_BOTTOM
 66
1
 70
0
 40
0.000000
 41
0.000000
 39
0.000000
  0
VERTEX
  8
PG_SILKSCREEN_BOTTOM
 10
-2.897000
 20
13.010100
 40
0.150000
 41
0.150000
 42
0.000000
  0
VERTEX
  8
PG_SILKSCREEN_BOTTOM
 10
-2.897000
 20
12.983100
 40
0.150000
 41
0.150000
 42
0.000000
  0
VERTEX
  8
PG_SILKSCREEN_BOTTOM
 10
-1.749000
 20
12.983100
 40
0.150000
 41
0.150000
 42
0.000000
  0
VERTEX
  8
PG_SILKSCREEN_BOTTOM
 10
-1.749000
 20
14.527200
 40
0.150000
 41
0.150000
 42
0.000000
  0
VERTEX
  8
PG_SILKSCREEN_BOTTOM
 10
-1.866100
 20
14.527200
 40
0.150000
 41
0.150000
 42
0.000000
  0
SEQEND
  0
POLYLINE
  8
PG_SILKSCREEN_BOTTOM
 66
1
 70
0
 40
0.000000
 41
0.000000
 39
0.000000
  0
VERTEX
  8
PG_SILKSCREEN_BOTTOM
 10
-3.851400
 20
14.536200
 40
0.150000
 41
0.150000
 42
0.000000
  0
VERTEX
  8
PG_SILKSCREEN_BOTTOM
 10
-3.851400
 20
14.540700
 40
0.150000
 41
0.150000
 42
0.000000
  0
VERTEX
  8
PG_SILKSCREEN_BOTTOM
 10
-2.901500
 20
14.540700
 40
0.150000
 41
0.150000
 42
0.000000
  0
SEQEND
  0
TEXT
  8
RD_SILKSCREEN_BOTTOM
 10
-5.373000
 20
13.742400
 11
0.000000
 21
0.000000
 40
0.787400
 41
0.907036
 50
0.000000
  7
STANDARD
 71
2
 72
0
  1
Q1
 73
0
  0
POLYLINE
  8
PIN_BOTTOM
 66
1
 70
1
 40
0.000000
 41
0.000000
 39
0.000000
  0
VERTEX
  8
PIN_BOTTOM
 10
15.622200
 20
1.668100
 40
0.000000
 41
0.000000
 42
0.000000
  0
VERTEX
  8
PIN_BOTTOM
 10
15.622200
 20
3.168100
 40
0.000000
 41
0.000000
 42
0.000000
  0
VERTEX
  8
PIN_BOTTOM
 10
17.122200
 20
3.168100
 40
0.000000
 41
0.000000
 42
0.000000
  0
VERTEX
  8
PIN_BOTTOM
 10
17.122200
 20
1.668100
 40
0.000000
 41
0.000000
 42
0.000000
  0
SEQEND
  0
CIRCLE
  8
PIN_BOTTOM
 10
16.372200
 20
-0.121900
 40
0.750000
  0
CIRCLE
  8
PIN_BOTTOM
 10
16.372200
 20
-2.661900
 40
0.750000
  0
CIRCLE
  8
PIN_BOTTOM
 10
16.372200
 20
-5.201900
 40
0.750000
  0
POLYLINE
  8
PIN_BOTTOM
 66
1
 70
1
 40
0.000000
 41
0.000000
 39
0.000000
  0
VERTEX
  8
PIN_BOTTOM
 10
-11.757400
 20
-5.001300
 40
0.000000
 41
0.000000
 42
0.000000
  0
VERTEX
  8
PIN_BOTTOM
 10
-10.893800
 20
-5.001300
 40
0.000000
 41
0.000000
 42
0.000000
  0
VERTEX
  8
PIN_BOTTOM
 10
-10.893800
 20
-3.629700
 40
0.000000
 41
0.000000
 42
0.000000
  0
VERTEX
  8
PIN_BOTTOM
 10
-11.757400
 20
-3.629700
 40
0.000000
 41
0.000000
 42
0.000000
  0
SEQEND
  0
POLYLINE
  8
PIN_BOTTOM
 66
1
 70
1
 40
0.000000
 41
0.000000
 39
0.000000
  0
VERTEX
  8
PIN_BOTTOM
 10
-9.877800
 20
-5.001300
 40
0.000000
 41
0.000000
 42
0.000000
  0
VERTEX
  8
PIN_BOTTOM
 10
-9.014200
 20
-5.001300
 40
0.000000
 41
0.000000
 42
0.000000
  0
VERTEX
  8
PIN_BOTTOM
 10
-9.014200
 20
-3.629700
 40
0.000000
 41
0.000000
 42
0.000000
  0
VERTEX
  8
PIN_BOTTOM
 10
-9.877800
 20
-3.629700
 40
0.000000
 41
0.000000
 42
0.000000
  0
SEQEND
  0
POLYLINE
  8
PG_SILKSCREEN_BOTTOM
 66
1
 70
0
 40
0.000000
 41
0.000000
 39
0.000000
  0
VERTEX
  8
PG_SILKSCREEN_BOTTOM
 10
-11.909800
 20
-5.128300
 40
0.100000
 41
0.100000
 42
0.000000
  0
VERTEX
  8
PG_SILKSCREEN_BOTTOM
 10
-8.861800
 20
-5.128300
 40
0.100000
 41
0.100000
 42
0.000000
  0
VERTEX
  8
PG_SILKSCREEN_BOTTOM
 10
-8.861800
 20
-3.502700
 40
0.100000
 41
0.100000
 42
0.000000
  0
VERTEX
  8
PG_SILKSCREEN_BOTTOM
 10
-11.909800
 20
-3.502700
 40
0.100000
 41
0.100000
 42
0.000000
  0
VERTEX
  8
PG_SILKSCREEN_BOTTOM
 10
-11.909800
 20
-5.128300
 40
0.100000
 41
0.100000
 42
0.000000
  0
SEQEND
  0
TEXT
  8
RD_SILKSCREEN_BOTTOM
 10
-10.090200
 20
-6.175700
 11
0.000000
 21
0.000000
 40
0.787400
 41
0.907036
 50
0.000000
  7
STANDARD
 71
2
 72
0
  1
R23
 73
0
  0
POLYLINE
  8
PIN_BOTTOM
 66
1
 70
1
 40
0.000000
 41
0.000000
 39
0.000000
  0
VERTEX
  8
PIN_BOTTOM
 10
0.067300
 20
12.413700
 40
0.000000
 41
0.000000
 42
0.000000
  0
VERTEX
  8
PIN_BOTTOM
 10
0.067300
 20
13.277300
 40
0.000000
 41
0.000000
 42
0.000000
  0
VERTEX
  8
PIN_BOTTOM
 10
-1.304300
 20
13.277300
 40
0.000000
 41
0.000000
 42
0.000000
  0
VERTEX
  8
PIN_BOTTOM
 10
-1.304300
 20
12.413700
 40
0.000000
 41
0.000000
 42
0.000000
  0
SEQEND
  0
POLYLINE
  8
PIN_BOTTOM
 66
1
 70
1
 40
0.000000
 41
0.000000
 39
0.000000
  0
VERTEX
  8
PIN_BOTTOM
 10
0.067300
 20
14.293300
 40
0.000000
 41
0.000000
 42
0.000000
  0
VERTEX
  8
PIN_BOTTOM
 10
0.067300
 20
15.156900
 40
0.000000
 41
0.000000
 42
0.000000
  0
VERTEX
  8
PIN_BOTTOM
 10
-1.304300
 20
15.156900
 40
0.000000
 41
0.000000
 42
0.000000
  0
VERTEX
  8
PIN_BOTTOM
 10
-1.304300
 20
14.293300
 40
0.000000
 41
0.000000
 42
0.000000
  0
SEQEND
  0
POLYLINE
  8
PG_SILKSCREEN_BOTTOM
 66
1
 70
0
 40
0.000000
 41
0.000000
 39
0.000000
  0
VERTEX
  8
PG_SILKSCREEN_BOTTOM
 10
0.194300
 20
12.261300
 40
0.100000
 41
0.100000
 42
0.000000
  0
VERTEX
  8
PG_SILKSCREEN_BOTTOM
 10
0.194300
 20
15.309300
 40
0.100000
 41
0.100000
 42
0.000000
  0
VERTEX
  8
PG_SILKSCREEN_BOTTOM
 10
-1.431300
 20
15.309300
 40
0.100000
 41
0.100000
 42
0.000000
  0
VERTEX
  8
PG_SILKSCREEN_BOTTOM
 10
-1.431300
 20
12.261300
 40
0.100000
 41
0.100000
 42
0.000000
  0
VERTEX
  8
PG_SILKSCREEN_BOTTOM
 10
0.194300
 20
12.261300
 40
0.100000
 41
0.100000
 42
0.000000
  0
SEQEND
  0
TEXT
  8
RD_SILKSCREEN_BOTTOM
 10
1.330500
 20
14.463900
 11
0.000000
 21
0.000000
 40
0.787400
 41
0.907036
 50
90.000000
  7
STANDARD
 71
2
 72
0
  1
R1
 73
0
  0
POLYLINE
  8
PIN_BOTTOM
 66
1
 70
1
 40
0.000000
 41
0.000000
 39
0.000000
  0
VERTEX
  8
PIN_BOTTOM
 10
12.034400
 20
10.385200
 40
0.000000
 41
0.000000
 42
0.000000
  0
VERTEX
  8
PIN_BOTTOM
 10
12.034400
 20
9.369200
 40
0.000000
 41
0.000000
 42
0.000000
  0
VERTEX
  8
PIN_BOTTOM
 10
12.618600
 20
9.369200
 40
0.000000
 41
0.000000
 42
0.000000
  0
VERTEX
  8
PIN_BOTTOM
 10
12.618600
 20
10.385200
 40
0.000000
 41
0.000000
 42
0.000000
  0
SEQEND
  0
POLYLINE
  8
PIN_BOTTOM
 66
1
 70
1
 40
0.000000
 41
0.000000
 39
0.000000
  0
VERTEX
  8
PIN_BOTTOM
 10
13.914000
 20
10.385200
 40
0.000000
 41
0.000000
 42
0.000000
  0
VERTEX
  8
PIN_BOTTOM
 10
13.914000
 20
9.369200
 40
0.000000
 41
0.000000
 42
0.000000
  0
VERTEX
  8
PIN_BOTTOM
 10
14.498200
 20
9.369200
 40
0.000000
 41
0.000000
 42
0.000000
  0
VERTEX
  8
PIN_BOTTOM
 10
14.498200
 20
10.385200
 40
0.000000
 41
0.000000
 42
0.000000
  0
SEQEND
  0
POLYLINE
  8
PIN_BOTTOM
 66
1
 70
1
 40
0.000000
 41
0.000000
 39
0.000000
  0
VERTEX
  8
PIN_BOTTOM
 10
13.914000
 20
13.230000
 40
0.000000
 41
0.000000
 42
0.000000
  0
VERTEX
  8
PIN_BOTTOM
 10
13.914000
 20
12.214000
 40
0.000000
 41
0.000000
 42
0.000000
  0
VERTEX
  8
PIN_BOTTOM
 10
14.498200
 20
12.214000
 40
0.000000
 41
0.000000
 42
0.000000
  0
VERTEX
  8
PIN_BOTTOM
 10
14.498200
 20
13.230000
 40
0.000000
 41
0.000000
 42
0.000000
  0
SEQEND
  0
POLYLINE
  8
PIN_BOTTOM
 66
1
 70
1
 40
0.000000
 41
0.000000
 39
0.000000
  0
VERTEX
  8
PIN_BOTTOM
 10
12.974200
 20
13.230000
 40
0.000000
 41
0.000000
 42
0.000000
  0
VERTEX
  8
PIN_BOTTOM
 10
12.974200
 20
12.214000
 40
0.000000
 41
0.000000
 42
0.000000
  0
VERTEX
  8
PIN_BOTTOM
 10
13.558400
 20
12.214000
 40
0.000000
 41
0.000000
 42
0.000000
  0
VERTEX
  8
PIN_BOTTOM
 10
13.558400
 20
13.230000
 40
0.000000
 41
0.000000
 42
0.000000
  0
SEQEND
  0
POLYLINE
  8
PIN_BOTTOM
 66
1
 70
1
 40
0.000000
 41
0.000000
 39
0.000000
  0
VERTEX
  8
PIN_BOTTOM
 10
12.034400
 20
13.230000
 40
0.000000
 41
0.000000
 42
0.000000
  0
VERTEX
  8
PIN_BOTTOM
 10
12.034400
 20
12.214000
 40
0.000000
 41
0.000000
 42
0.000000
  0
VERTEX
  8
PIN_BOTTOM
 10
12.618600
 20
12.214000
 40
0.000000
 41
0.000000
 42
0.000000
  0
VERTEX
  8
PIN_BOTTOM
 10
12.618600
 20
13.230000
 40
0.000000
 41
0.000000
 42
0.000000
  0
SEQEND
  0
POLYLINE
  8
PG_SILKSCREEN_BOTTOM
 66
1
 70
0
 40
0.000000
 41
0.000000
 39
0.000000
  0
VERTEX
  8
PG_SILKSCREEN_BOTTOM
 10
11.932800
 20
10.916300
 40
0.203200
 41
0.203200
 42
0.000000
  0
VERTEX
  8
PG_SILKSCREEN_BOTTOM
 10
11.488300
 20
10.916300
 40
0.203200
 41
0.203200
 42
0.000000
  0
SEQEND
  0
POLYLINE
  8
PG_SILKSCREEN_BOTTOM
 66
1
 70
0
 40
0.000000
 41
0.000000
 39
0.000000
  0
VERTEX
  8
PG_SILKSCREEN_BOTTOM
 10
11.932800
 20
11.644300
 40
0.203200
 41
0.203200
 42
0.000000
  0
VERTEX
  8
PG_SILKSCREEN_BOTTOM
 10
11.932800
 20
10.916300
 40
0.203200
 41
0.203200
 42
0.000000
  0
SEQEND
  0
POLYLINE
  8
PG_SILKSCREEN_BOTTOM
 66
1
 70
0
 40
0.000000
 41
0.000000
 39
0.000000
  0
VERTEX
  8
PG_SILKSCREEN_BOTTOM
 10
11.519700
 20
11.644300
 40
0.203200
 41
0.203200
 42
0.000000
  0
VERTEX
  8
PG_SILKSCREEN_BOTTOM
 10
11.932800
 20
11.644300
 40
0.203200
 41
0.203200
 42
0.000000
  0
SEQEND
  0
POLYLINE
  8
PG_SILKSCREEN_BOTTOM
 66
1
 70
0
 40
0.000000
 41
0.000000
 39
0.000000
  0
VERTEX
  8
PG_SILKSCREEN_BOTTOM
 10
15.036700
 20
12.732100
 40
0.203200
 41
0.203200
 42
0.000000
  0
VERTEX
  8
PG_SILKSCREEN_BOTTOM
 10
14.620200
 20
12.732100
 40
0.203200
 41
0.203200
 42
0.000000
  0
SEQEND
  0
POLYLINE
  8
PG_SILKSCREEN_BOTTOM
 66
1
 70
0
 40
0.000000
 41
0.000000
 39
0.000000
  0
VERTEX
  8
PG_SILKSCREEN_BOTTOM
 10
15.036700
 20
9.884300
 40
0.203200
 41
0.203200
 42
0.000000
  0
VERTEX
  8
PG_SILKSCREEN_BOTTOM
 10
15.036700
 20
12.732100
 40
0.203200
 41
0.203200
 42
0.000000
  0
SEQEND
  0
POLYLINE
  8
PG_SILKSCREEN_BOTTOM
 66
1
 70
0
 40
0.000000
 41
0.000000
 39
0.000000
  0
VERTEX
  8
PG_SILKSCREEN_BOTTOM
 10
14.632900
 20
9.884300
 40
0.203200
 41
0.203200
 42
0.000000
  0
VERTEX
  8
PG_SILKSCREEN_BOTTOM
 10
15.036700
 20
9.884300
 40
0.203200
 41
0.203200
 42
0.000000
  0
SEQEND
  0
POLYLINE
  8
PG_SILKSCREEN_BOTTOM
 66
1
 70
0
 40
0.000000
 41
0.000000
 39
0.000000
  0
VERTEX
  8
PG_SILKSCREEN_BOTTOM
 10
11.475600
 20
9.884300
 40
0.203200
 41
0.203200
 42
0.000000
  0
VERTEX
  8
PG_SILKSCREEN_BOTTOM
 10
11.902400
 20
9.884300
 40
0.203200
 41
0.203200
 42
0.000000
  0
SEQEND
  0
POLYLINE
  8
PG_SILKSCREEN_BOTTOM
 66
1
 70
0
 40
0.000000
 41
0.000000
 39
0.000000
  0
VERTEX
  8
PG_SILKSCREEN_BOTTOM
 10
11.475600
 20
12.732100
 40
0.203200
 41
0.203200
 42
0.000000
  0
VERTEX
  8
PG_SILKSCREEN_BOTTOM
 10
11.475600
 20
9.884300
 40
0.203200
 41
0.203200
 42
0.000000
  0
SEQEND
  0
POLYLINE
  8
PG_SILKSCREEN_BOTTOM
 66
1
 70
0
 40
0.000000
 41
0.000000
 39
0.000000
  0
VERTEX
  8
PG_SILKSCREEN_BOTTOM
 10
11.882000
 20
12.732100
 40
0.203200
 41
0.203200
 42
0.000000
  0
VERTEX
  8
PG_SILKSCREEN_BOTTOM
 10
11.475600
 20
12.732100
 40
0.203200
 41
0.203200
 42
0.000000
  0
SEQEND
  0
TEXT
  8
RD_SILKSCREEN_BOTTOM
 10
10.397400
 20
10.474300
 11
0.000000
 21
0.000000
 40
0.787400
 41
0.907036
 50
0.000000
  7
STANDARD
 71
2
 72
0
  1
U7
 73
0
  0
POLYLINE
  8
PIN_BOTTOM
 66
1
 70
1
 40
0.000000
 41
0.000000
 39
0.000000
  0
VERTEX
  8
PIN_BOTTOM
 10
6.272000
 20
10.593000
 40
0.000000
 41
0.000000
 42
0.000000
  0
VERTEX
  8
PIN_BOTTOM
 10
6.272000
 20
11.543000
 40
0.000000
 41
0.000000
 42
0.000000
  0
VERTEX
  8
PIN_BOTTOM
 10
5.772000
 20
11.543000
 40
0.000000
 41
0.000000
 42
0.000000
  0
VERTEX
  8
PIN_BOTTOM
 10
5.772000
 20
10.593000
 40
0.000000
 41
0.000000
 42
0.000000
  0
SEQEND
  0
POLYLINE
  8
PIN_BOTTOM
 66
1
 70
1
 40
0.000000
 41
0.000000
 39
0.000000
  0
VERTEX
  8
PIN_BOTTOM
 10
4.776000
 20
10.710600
 40
0.000000
 41
0.000000
 42
0.000000
  0
VERTEX
  8
PIN_BOTTOM
 10
4.776000
 20
11.523400
 40
0.000000
 41
0.000000
 42
0.000000
  0
VERTEX
  8
PIN_BOTTOM
 10
5.385600
 20
12.133000
 40
0.000000
 41
0.000000
 42
0.000000
  0
VERTEX
  8
PIN_BOTTOM
 10
5.385600
 20
14.825400
 40
0.000000
 41
0.000000
 42
0.000000
  0
VERTEX
  8
PIN_BOTTOM
 10
3.658400
 20
14.825400
 40
0.000000
 41
0.000000
 42
0.000000
  0
VERTEX
  8
PIN_BOTTOM
 10
3.658400
 20
12.133000
 40
0.000000
 41
0.000000
 42
0.000000
  0
VERTEX
  8
PIN_BOTTOM
 10
4.268000
 20
11.523400
 40
0.000000
 41
0.000000
 42
0.000000
  0
VERTEX
  8
PIN_BOTTOM
 10
4.268000
 20
10.710600
 40
0.000000
 41
0.000000
 42
0.000000
  0
SEQEND
  0
POLYLINE
  8
PIN_BOTTOM
 66
1
 70
1
 40
0.000000
 41
0.000000
 39
0.000000
  0
VERTEX
  8
PIN_BOTTOM
 10
3.272000
 20
10.593000
 40
0.000000
 41
0.000000
 42
0.000000
  0
VERTEX
  8
PIN_BOTTOM
 10
3.272000
 20
11.543000
 40
0.000000
 41
0.000000
 42
0.000000
  0
VERTEX
  8
PIN_BOTTOM
 10
2.772000
 20
11.543000
 40
0.000000
 41
0.000000
 42
0.000000
  0
VERTEX
  8
PIN_BOTTOM
 10
2.772000
 20
10.593000
 40
0.000000
 41
0.000000
 42
0.000000
  0
SEQEND
  0
POLYLINE
  8
PG_SILKSCREEN_BOTTOM
 66
1
 70
0
 40
0.000000
 41
0.000000
 39
0.000000
  0
VERTEX
  8
PG_SILKSCREEN_BOTTOM
 10
5.412600
 20
14.113400
 40
0.150000
 41
0.150000
 42
0.000000
  0
VERTEX
  8
PG_SILKSCREEN_BOTTOM
 10
6.866300
 20
14.113400
 40
0.150000
 41
0.150000
 42
0.000000
  0
VERTEX
  8
PG_SILKSCREEN_BOTTOM
 10
6.866300
 20
11.426500
 40
0.150000
 41
0.150000
 42
0.000000
  0
VERTEX
  8
PG_SILKSCREEN_BOTTOM
 10
2.190300
 20
11.426500
 40
0.150000
 41
0.150000
 42
0.000000
  0
VERTEX
  8
PG_SILKSCREEN_BOTTOM
 10
2.190300
 20
14.113400
 40
0.150000
 41
0.150000
 42
0.000000
  0
VERTEX
  8
PG_SILKSCREEN_BOTTOM
 10
5.412600
 20
14.113400
 40
0.150000
 41
0.150000
 42
0.000000
  0
SEQEND
  0
TEXT
  8
RD_SILKSCREEN_BOTTOM
 10
8.581200
 20
11.435800
 11
0.000000
 21
0.000000
 40
0.787400
 41
0.907036
 50
0.000000
  7
STANDARD
 71
2
 72
0
  1
U8
 73
0
  0
POLYLINE
  8
PIN_BOTTOM
 66
1
 70
1
 40
0.000000
 41
0.000000
 39
0.000000
  0
VERTEX
  8
PIN_BOTTOM
 10
3.373900
 20
4.399400
 40
0.000000
 41
0.000000
 42
0.000000
  0
VERTEX
  8
PIN_BOTTOM
 10
3.373900
 20
4.699400
 40
0.000000
 41
0.000000
 42
0.000000
  0
VERTEX
  8
PIN_BOTTOM
 10
1.673900
 20
4.699400
 40
0.000000
 41
0.000000
 42
0.000000
  0
VERTEX
  8
PIN_BOTTOM
 10
1.673900
 20
4.399400
 40
0.000000
 41
0.000000
 42
0.000000
  0
SEQEND
  0
POLYLINE
  8
PIN_BOTTOM
 66
1
 70
1
 40
0.000000
 41
0.000000
 39
0.000000
  0
VERTEX
  8
PIN_BOTTOM
 10
3.373900
 20
3.749400
 40
0.000000
 41
0.000000
 42
0.000000
  0
VERTEX
  8
PIN_BOTTOM
 10
3.373900
 20
4.049400
 40
0.000000
 41
0.000000
 42
0.000000
  0
VERTEX
  8
PIN_BOTTOM
 10
1.673900
 20
4.049400
 40
0.000000
 41
0.000000
 42
0.000000
  0
VERTEX
  8
PIN_BOTTOM
 10
1.673900
 20
3.749400
 40
0.000000
 41
0.000000
 42
0.000000
  0
SEQEND
  0
POLYLINE
  8
PIN_BOTTOM
 66
1
 70
1
 40
0.000000
 41
0.000000
 39
0.000000
  0
VERTEX
  8
PIN_BOTTOM
 10
3.373900
 20
3.099400
 40
0.000000
 41
0.000000
 42
0.000000
  0
VERTEX
  8
PIN_BOTTOM
 10
3.373900
 20
3.399400
 40
0.000000
 41
0.000000
 42
0.000000
  0
VERTEX
  8
PIN_BOTTOM
 10
1.673900
 20
3.399400
 40
0.000000
 41
0.000000
 42
0.000000
  0
VERTEX
  8
PIN_BOTTOM
 10
1.673900
 20
3.099400
 40
0.000000
 41
0.000000
 42
0.000000
  0
SEQEND
  0
POLYLINE
  8
PIN_BOTTOM
 66
1
 70
1
 40
0.000000
 41
0.000000
 39
0.000000
  0
VERTEX
  8
PIN_BOTTOM
 10
3.373900
 20
2.449400
 40
0.000000
 41
0.000000
 42
0.000000
  0
VERTEX
  8
PIN_BOTTOM
 10
3.373900
 20
2.749400
 40
0.000000
 41
0.000000
 42
0.000000
  0
VERTEX
  8
PIN_BOTTOM
 10
1.673900
 20
2.749400
 40
0.000000
 41
0.000000
 42
0.000000
  0
VERTEX
  8
PIN_BOTTOM
 10
1.673900
 20
2.449400
 40
0.000000
 41
0.000000
 42
0.000000
  0
SEQEND
  0
POLYLINE
  8
PIN_BOTTOM
 66
1
 70
1
 40
0.000000
 41
0.000000
 39
0.000000
  0
VERTEX
  8
PIN_BOTTOM
 10
3.373900
 20
1.799400
 40
0.000000
 41
0.000000
 42
0.000000
  0
VERTEX
  8
PIN_BOTTOM
 10
3.373900
 20
2.099400
 40
0.000000
 41
0.000000
 42
0.000000
  0
VERTEX
  8
PIN_BOTTOM
 10
1.673900
 20
2.099400
 40
0.000000
 41
0.000000
 42
0.000000
  0
VERTEX
  8
PIN_BOTTOM
 10
1.673900
 20
1.799400
 40
0.000000
 41
0.000000
 42
0.000000
  0
SEQEND
  0
POLYLINE
  8
PIN_BOTTOM
 66
1
 70
1
 40
0.000000
 41
0.000000
 39
0.000000
  0
VERTEX
  8
PIN_BOTTOM
 10
3.373900
 20
1.149400
 40
0.000000
 41
0.000000
 42
0.000000
  0
VERTEX
  8
PIN_BOTTOM
 10
3.373900
 20
1.449400
 40
0.000000
 41
0.000000
 42
0.000000
  0
VERTEX
  8
PIN_BOTTOM
 10
1.673900
 20
1.449400
 40
0.000000
 41
0.000000
 42
0.000000
  0
VERTEX
  8
PIN_BOTTOM
 10
1.673900
 20
1.149400
 40
0.000000
 41
0.000000
 42
0.000000
  0
SEQEND
  0
POLYLINE
  8
PIN_BOTTOM
 66
1
 70
1
 40
0.000000
 41
0.000000
 39
0.000000
  0
VERTEX
  8
PIN_BOTTOM
 10
3.373900
 20
0.499400
 40
0.000000
 41
0.000000
 42
0.000000
  0
VERTEX
  8
PIN_BOTTOM
 10
3.373900
 20
0.799400
 40
0.000000
 41
0.000000
 42
0.000000
  0
VERTEX
  8
PIN_BOTTOM
 10
1.673900
 20
0.799400
 40
0.000000
 41
0.000000
 42
0.000000
  0
VERTEX
  8
PIN_BOTTOM
 10
1.673900
 20
0.499400
 40
0.000000
 41
0.000000
 42
0.000000
  0
SEQEND
  0
POLYLINE
  8
PIN_BOTTOM
 66
1
 70
1
 40
0.000000
 41
0.000000
 39
0.000000
  0
VERTEX
  8
PIN_BOTTOM
 10
3.373900
 20
-0.150600
 40
0.000000
 41
0.000000
 42
0.000000
  0
VERTEX
  8
PIN_BOTTOM
 10
3.373900
 20
0.149400
 40
0.000000
 41
0.000000
 42
0.000000
  0
VERTEX
  8
PIN_BOTTOM
 10
1.673900
 20
0.149400
 40
0.000000
 41
0.000000
 42
0.000000
  0
VERTEX
  8
PIN_BOTTOM
 10
1.673900
 20
-0.150600
 40
0.000000
 41
0.000000
 42
0.000000
  0
SEQEND
  0
POLYLINE
  8
PIN_BOTTOM
 66
1
 70
1
 40
0.000000
 41
0.000000
 39
0.000000
  0
VERTEX
  8
PIN_BOTTOM
 10
3.373900
 20
-0.800600
 40
0.000000
 41
0.000000
 42
0.000000
  0
VERTEX
  8
PIN_BOTTOM
 10
3.373900
 20
-0.500600
 40
0.000000
 41
0.000000
 42
0.000000
  0
VERTEX
  8
PIN_BOTTOM
 10
1.673900
 20
-0.500600
 40
0.000000
 41
0.000000
 42
0.000000
  0
VERTEX
  8
PIN_BOTTOM
 10
1.673900
 20
-0.800600
 40
0.000000
 41
0.000000
 42
0.000000
  0
SEQEND
  0
POLYLINE
  8
PIN_BOTTOM
 66
1
 70
1
 40
0.000000
 41
0.000000
 39
0.000000
  0
VERTEX
  8
PIN_BOTTOM
 10
3.373900
 20
-1.450600
 40
0.000000
 41
0.000000
 42
0.000000
  0
VERTEX
  8
PIN_BOTTOM
 10
3.373900
 20
-1.150600
 40
0.000000
 41
0.000000
 42
0.000000
  0
VERTEX
  8
PIN_BOTTOM
 10
1.673900
 20
-1.150600
 40
0.000000
 41
0.000000
 42
0.000000
  0
VERTEX
  8
PIN_BOTTOM
 10
1.673900
 20
-1.450600
 40
0.000000
 41
0.000000
 42
0.000000
  0
SEQEND
  0
POLYLINE
  8
PIN_BOTTOM
 66
1
 70
1
 40
0.000000
 41
0.000000
 39
0.000000
  0
VERTEX
  8
PIN_BOTTOM
 10
-3.026100
 20
-1.450600
 40
0.000000
 41
0.000000
 42
0.000000
  0
VERTEX
  8
PIN_BOTTOM
 10
-3.026100
 20
-1.150600
 40
0.000000
 41
0.000000
 42
0.000000
  0
VERTEX
  8
PIN_BOTTOM
 10
-4.726100
 20
-1.150600
 40
0.000000
 41
0.000000
 42
0.000000
  0
VERTEX
  8
PIN_BOTTOM
 10
-4.726100
 20
-1.450600
 40
0.000000
 41
0.000000
 42
0.000000
  0
SEQEND
  0
POLYLINE
  8
PIN_BOTTOM
 66
1
 70
1
 40
0.000000
 41
0.000000
 39
0.000000
  0
VERTEX
  8
PIN_BOTTOM
 10
-3.026100
 20
-0.800600
 40
0.000000
 41
0.000000
 42
0.000000
  0
VERTEX
  8
PIN_BOTTOM
 10
-3.026100
 20
-0.500600
 40
0.000000
 41
0.000000
 42
0.000000
  0
VERTEX
  8
PIN_BOTTOM
 10
-4.726100
 20
-0.500600
 40
0.000000
 41
0.000000
 42
0.000000
  0
VERTEX
  8
PIN_BOTTOM
 10
-4.726100
 20
-0.800600
 40
0.000000
 41
0.000000
 42
0.000000
  0
SEQEND
  0
POLYLINE
  8
PIN_BOTTOM
 66
1
 70
1
 40
0.000000
 41
0.000000
 39
0.000000
  0
VERTEX
  8
PIN_BOTTOM
 10
-3.026100
 20
-0.150600
 40
0.000000
 41
0.000000
 42
0.000000
  0
VERTEX
  8
PIN_BOTTOM
 10
-3.026100
 20
0.149400
 40
0.000000
 41
0.000000
 42
0.000000
  0
VERTEX
  8
PIN_BOTTOM
 10
-4.726100
 20
0.149400
 40
0.000000
 41
0.000000
 42
0.000000
  0
VERTEX
  8
PIN_BOTTOM
 10
-4.726100
 20
-0.150600
 40
0.000000
 41
0.000000
 42
0.000000
  0
SEQEND
  0
POLYLINE
  8
PIN_BOTTOM
 66
1
 70
1
 40
0.000000
 41
0.000000
 39
0.000000
  0
VERTEX
  8
PIN_BOTTOM
 10
-3.026100
 20
0.499400
 40
0.000000
 41
0.000000
 42
0.000000
  0
VERTEX
  8
PIN_BOTTOM
 10
-3.026100
 20
0.799400
 40
0.000000
 41
0.000000
 42
0.000000
  0
VERTEX
  8
PIN_BOTTOM
 10
-4.726100
 20
0.799400
 40
0.000000
 41
0.000000
 42
0.000000
  0
VERTEX
  8
PIN_BOTTOM
 10
-4.726100
 20
0.499400
 40
0.000000
 41
0.000000
 42
0.000000
  0
SEQEND
  0
POLYLINE
  8
PIN_BOTTOM
 66
1
 70
1
 40
0.000000
 41
0.000000
 39
0.000000
  0
VERTEX
  8
PIN_BOTTOM
 10
-3.026100
 20
1.149400
 40
0.000000
 41
0.000000
 42
0.000000
  0
VERTEX
  8
PIN_BOTTOM
 10
-3.026100
 20
1.449400
 40
0.000000
 41
0.000000
 42
0.000000
  0
VERTEX
  8
PIN_BOTTOM
 10
-4.726100
 20
1.449400
 40
0.000000
 41
0.000000
 42
0.000000
  0
VERTEX
  8
PIN_BOTTOM
 10
-4.726100
 20
1.149400
 40
0.000000
 41
0.000000
 42
0.000000
  0
SEQEND
  0
POLYLINE
  8
PIN_BOTTOM
 66
1
 70
1
 40
0.000000
 41
0.000000
 39
0.000000
  0
VERTEX
  8
PIN_BOTTOM
 10
-3.026100
 20
1.799400
 40
0.000000
 41
0.000000
 42
0.000000
  0
VERTEX
  8
PIN_BOTTOM
 10
-3.026100
 20
2.099400
 40
0.000000
 41
0.000000
 42
0.000000
  0
VERTEX
  8
PIN_BOTTOM
 10
-4.726100
 20
2.099400
 40
0.000000
 41
0.000000
 42
0.000000
  0
VERTEX
  8
PIN_BOTTOM
 10
-4.726100
 20
1.799400
 40
0.000000
 41
0.000000
 42
0.000000
  0
SEQEND
  0
POLYLINE
  8
PIN_BOTTOM
 66
1
 70
1
 40
0.000000
 41
0.000000
 39
0.000000
  0
VERTEX
  8
PIN_BOTTOM
 10
-3.026100
 20
2.449400
 40
0.000000
 41
0.000000
 42
0.000000
  0
VERTEX
  8
PIN_BOTTOM
 10
-3.026100
 20
2.749400
 40
0.000000
 41
0.000000
 42
0.000000
  0
VERTEX
  8
PIN_BOTTOM
 10
-4.726100
 20
2.749400
 40
0.000000
 41
0.000000
 42
0.000000
  0
VERTEX
  8
PIN_BOTTOM
 10
-4.726100
 20
2.449400
 40
0.000000
 41
0.000000
 42
0.000000
  0
SEQEND
  0
POLYLINE
  8
PIN_BOTTOM
 66
1
 70
1
 40
0.000000
 41
0.000000
 39
0.000000
  0
VERTEX
  8
PIN_BOTTOM
 10
-3.026100
 20
3.099400
 40
0.000000
 41
0.000000
 42
0.000000
  0
VERTEX
  8
PIN_BOTTOM
 10
-3.026100
 20
3.399400
 40
0.000000
 41
0.000000
 42
0.000000
  0
VERTEX
  8
PIN_BOTTOM
 10
-4.726100
 20
3.399400
 40
0.000000
 41
0.000000
 42
0.000000
  0
VERTEX
  8
PIN_BOTTOM
 10
-4.726100
 20
3.099400
 40
0.000000
 41
0.000000
 42
0.000000
  0
SEQEND
  0
POLYLINE
  8
PIN_BOTTOM
 66
1
 70
1
 40
0.000000
 41
0.000000
 39
0.000000
  0
VERTEX
  8
PIN_BOTTOM
 10
-3.026100
 20
3.749400
 40
0.000000
 41
0.000000
 42
0.000000
  0
VERTEX
  8
PIN_BOTTOM
 10
-3.026100
 20
4.049400
 40
0.000000
 41
0.000000
 42
0.000000
  0
VERTEX
  8
PIN_BOTTOM
 10
-4.726100
 20
4.049400
 40
0.000000
 41
0.000000
 42
0.000000
  0
VERTEX
  8
PIN_BOTTOM
 10
-4.726100
 20
3.749400
 40
0.000000
 41
0.000000
 42
0.000000
  0
SEQEND
  0
POLYLINE
  8
PIN_BOTTOM
 66
1
 70
1
 40
0.000000
 41
0.000000
 39
0.000000
  0
VERTEX
  8
PIN_BOTTOM
 10
-3.026100
 20
4.399400
 40
0.000000
 41
0.000000
 42
0.000000
  0
VERTEX
  8
PIN_BOTTOM
 10
-3.026100
 20
4.699400
 40
0.000000
 41
0.000000
 42
0.000000
  0
VERTEX
  8
PIN_BOTTOM
 10
-4.726100
 20
4.699400
 40
0.000000
 41
0.000000
 42
0.000000
  0
VERTEX
  8
PIN_BOTTOM
 10
-4.726100
 20
4.399400
 40
0.000000
 41
0.000000
 42
0.000000
  0
SEQEND
  0
POLYLINE
  8
PG_SILKSCREEN_BOTTOM
 66
1
 70
0
 40
0.000000
 41
0.000000
 39
0.000000
  0
VERTEX
  8
PG_SILKSCREEN_BOTTOM
 10
-2.924100
 20
4.979400
 40
0.150000
 41
0.150000
 42
0.000000
  0
VERTEX
  8
PG_SILKSCREEN_BOTTOM
 10
-2.954100
 20
4.979400
 40
0.150000
 41
0.150000
 42
0.000000
  0
VERTEX
  8
PG_SILKSCREEN_BOTTOM
 10
-2.954100
 20
-1.760600
 40
0.150000
 41
0.150000
 42
0.000000
  0
VERTEX
  8
PG_SILKSCREEN_BOTTOM
 10
1.604900
 20
-1.760600
 40
0.150000
 41
0.150000
 42
0.000000
  0
VERTEX
  8
PG_SILKSCREEN_BOTTOM
 10
1.604900
 20
5.024400
 40
0.150000
 41
0.150000
 42
0.000000
  0
VERTEX
  8
PG_SILKSCREEN_BOTTOM
 10
-2.956100
 20
5.024400
 40
0.150000
 41
0.150000
 42
0.000000
  0
VERTEX
  8
PG_SILKSCREEN_BOTTOM
 10
-2.956100
 20
4.936400
 40
0.150000
 41
0.150000
 42
0.000000
  0
SEQEND
  0
POLYLINE
  8
PG_SILKSCREEN_BOTTOM
 66
1
 70
0
 40
0.000000
 41
0.000000
 39
0.000000
  0
VERTEX
  8
PG_SILKSCREEN_BOTTOM
 10
1.141900
 20
5.027400
 40
0.150000
 41
0.150000
 42
0.000000
  0
VERTEX
  8
PG_SILKSCREEN_BOTTOM
 10
-0.585100
 20
4.311400
 40
0.150000
 41
0.150000
 42
0.000000
  0
VERTEX
  8
PG_SILKSCREEN_BOTTOM
 10
-2.265100
 20
5.015400
 40
0.150000
 41
0.150000
 42
0.000000
  0
SEQEND
  0
TEXT
  8
RD_SILKSCREEN_BOTTOM
 10
3.076700
 20
4.930500
 11
0.000000
 21
0.000000
 40
0.787400
 41
0.907036
 50
0.000000
  7
STANDARD
 71
2
 72
0
  1
U2
 73
0
  0
POLYLINE
  8
PIN_BOTTOM
 66
1
 70
1
 40
0.000000
 41
0.000000
 39
0.000000
  0
VERTEX
  8
PIN_BOTTOM
 10
-6.794100
 20
-0.267400
 40
0.000000
 41
0.000000
 42
0.000000
  0
VERTEX
  8
PIN_BOTTOM
 10
-6.794100
 20
1.732600
 40
0.000000
 41
0.000000
 42
0.000000
  0
VERTEX
  8
PIN_BOTTOM
 10
-7.394100
 20
1.732600
 40
0.000000
 41
0.000000
 42
0.000000
  0
VERTEX
  8
PIN_BOTTOM
 10
-7.394100
 20
-0.267400
 40
0.000000
 41
0.000000
 42
0.000000
  0
SEQEND
  0
POLYLINE
  8
PIN_BOTTOM
 66
1
 70
1
 40
0.000000
 41
0.000000
 39
0.000000
  0
VERTEX
  8
PIN_BOTTOM
 10
-8.064100
 20
-0.267400
 40
0.000000
 41
0.000000
 42
0.000000
  0
VERTEX
  8
PIN_BOTTOM
 10
-8.064100
 20
1.732600
 40
0.000000
 41
0.000000
 42
0.000000
  0
VERTEX
  8
PIN_BOTTOM
 10
-8.664100
 20
1.732600
 40
0.000000
 41
0.000000
 42
0.000000
  0
VERTEX
  8
PIN_BOTTOM
 10
-8.664100
 20
-0.267400
 40
0.000000
 41
0.000000
 42
0.000000
  0
SEQEND
  0
POLYLINE
  8
PIN_BOTTOM
 66
1
 70
1
 40
0.000000
 41
0.000000
 39
0.000000
  0
VERTEX
  8
PIN_BOTTOM
 10
-9.334100
 20
-0.267400
 40
0.000000
 41
0.000000
 42
0.000000
  0
VERTEX
  8
PIN_BOTTOM
 10
-9.334100
 20
1.732600
 40
0.000000
 41
0.000000
 42
0.000000
  0
VERTEX
  8
PIN_BOTTOM
 10
-9.934100
 20
1.732600
 40
0.000000
 41
0.000000
 42
0.000000
  0
VERTEX
  8
PIN_BOTTOM
 10
-9.934100
 20
-0.267400
 40
0.000000
 41
0.000000
 42
0.000000
  0
SEQEND
  0
POLYLINE
  8
PIN_BOTTOM
 66
1
 70
1
 40
0.000000
 41
0.000000
 39
0.000000
  0
VERTEX
  8
PIN_BOTTOM
 10
-10.604100
 20
-0.267400
 40
0.000000
 41
0.000000
 42
0.000000
  0
VERTEX
  8
PIN_BOTTOM
 10
-10.604100
 20
1.732600
 40
0.000000
 41
0.000000
 42
0.000000
  0
VERTEX
  8
PIN_BOTTOM
 10
-11.204100
 20
1.732600
 40
0.000000
 41
0.000000
 42
0.000000
  0
VERTEX
  8
PIN_BOTTOM
 10
-11.204100
 20
-0.267400
 40
0.000000
 41
0.000000
 42
0.000000
  0
SEQEND
  0
POLYLINE
  8
PIN_BOTTOM
 66
1
 70
1
 40
0.000000
 41
0.000000
 39
0.000000
  0
VERTEX
  8
PIN_BOTTOM
 10
-10.604100
 20
5.520600
 40
0.000000
 41
0.000000
 42
0.000000
  0
VERTEX
  8
PIN_BOTTOM
 10
-10.604100
 20
7.520600
 40
0.000000
 41
0.000000
 42
0.000000
  0
VERTEX
  8
PIN_BOTTOM
 10
-11.204100
 20
7.520600
 40
0.000000
 41
0.000000
 42
0.000000
  0
VERTEX
  8
PIN_BOTTOM
 10
-11.204100
 20
5.520600
 40
0.000000
 41
0.000000
 42
0.000000
  0
SEQEND
  0
POLYLINE
  8
PIN_BOTTOM
 66
1
 70
1
 40
0.000000
 41
0.000000
 39
0.000000
  0
VERTEX
  8
PIN_BOTTOM
 10
-9.334100
 20
5.520600
 40
0.000000
 41
0.000000
 42
0.000000
  0
VERTEX
  8
PIN_BOTTOM
 10
-9.334100
 20
7.520600
 40
0.000000
 41
0.000000
 42
0.000000
  0
VERTEX
  8
PIN_BOTTOM
 10
-9.934100
 20
7.520600
 40
0.000000
 41
0.000000
 42
0.000000
  0
VERTEX
  8
PIN_BOTTOM
 10
-9.934100
 20
5.520600
 40
0.000000
 41
0.000000
 42
0.000000
  0
SEQEND
  0
POLYLINE
  8
PIN_BOTTOM
 66
1
 70
1
 40
0.000000
 41
0.000000
 39
0.000000
  0
VERTEX
  8
PIN_BOTTOM
 10
-8.064100
 20
5.520600
 40
0.000000
 41
0.000000
 42
0.000000
  0
VERTEX
  8
PIN_BOTTOM
 10
-8.064100
 20
7.520600
 40
0.000000
 41
0.000000
 42
0.000000
  0
VERTEX
  8
PIN_BOTTOM
 10
-8.664100
 20
7.520600
 40
0.000000
 41
0.000000
 42
0.000000
  0
VERTEX
  8
PIN_BOTTOM
 10
-8.664100
 20
5.520600
 40
0.000000
 41
0.000000
 42
0.000000
  0
SEQEND
  0
POLYLINE
  8
PIN_BOTTOM
 66
1
 70
1
 40
0.000000
 41
0.000000
 39
0.000000
  0
VERTEX
  8
PIN_BOTTOM
 10
-6.794100
 20
5.520600
 40
0.000000
 41
0.000000
 42
0.000000
  0
VERTEX
  8
PIN_BOTTOM
 10
-6.794100
 20
7.520600
 40
0.000000
 41
0.000000
 42
0.000000
  0
VERTEX
  8
PIN_BOTTOM
 10
-7.394100
 20
7.520600
 40
0.000000
 41
0.000000
 42
0.000000
  0
VERTEX
  8
PIN_BOTTOM
 10
-7.394100
 20
5.520600
 40
0.000000
 41
0.000000
 42
0.000000
  0
SEQEND
  0
POLYLINE
  8
PIN_BOTTOM
 66
1
 70
1
 40
0.000000
 41
0.000000
 39
0.000000
  0
VERTEX
  8
PIN_BOTTOM
 10
-10.904100
 20
5.023600
 40
0.000000
 41
0.000000
 42
0.000000
  0
VERTEX
  8
PIN_BOTTOM
 10
-10.904100
 20
2.229600
 40
0.000000
 41
0.000000
 42
0.000000
  0
VERTEX
  8
PIN_BOTTOM
 10
-7.094100
 20
2.229600
 40
0.000000
 41
0.000000
 42
0.000000
  0
VERTEX
  8
PIN_BOTTOM
 10
-7.094100
 20
5.023600
 40
0.000000
 41
0.000000
 42
0.000000
  0
SEQEND
  0
POLYLINE
  8
PG_SILKSCREEN_BOTTOM
 66
1
 70
0
 40
0.000000
 41
0.000000
 39
0.000000
  0
VERTEX
  8
PG_SILKSCREEN_BOTTOM
 10
-11.499100
 20
5.626600
 40
0.150000
 41
0.150000
 42
0.000000
  0
VERTEX
  8
PG_SILKSCREEN_BOTTOM
 10
-6.499100
 20
5.626600
 40
0.150000
 41
0.150000
 42
0.000000
  0
VERTEX
  8
PG_SILKSCREEN_BOTTOM
 10
-6.499100
 20
1.626600
 40
0.150000
 41
0.150000
 42
0.000000
  0
VERTEX
  8
PG_SILKSCREEN_BOTTOM
 10
-11.499100
 20
1.626600
 40
0.150000
 41
0.150000
 42
0.000000
  0
VERTEX
  8
PG_SILKSCREEN_BOTTOM
 10
-11.499100
 20
5.626600
 40
0.150000
 41
0.150000
 42
0.000000
  0
SEQEND
  0
POLYLINE
  8
PG_SILKSCREEN_BOTTOM
 66
1
 70
1
 40
0.000000
 41
0.000000
 39
0.000000
  0
VERTEX
  8
PG_SILKSCREEN_BOTTOM
 10
-5.493100
 20
1.866600
 40
0.000000
 41
0.000000
 42
1.000000
  0
VERTEX
  8
PG_SILKSCREEN_BOTTOM
 10
-6.805100
 20
1.866600
 40
0.000000
 41
0.000000
 42
1.000000
  0
SEQEND
  0
TEXT
  8
RD_SILKSCREEN_BOTTOM
 10
-5.470400
 20
4.470900
 11
0.000000
 21
0.000000
 40
0.787400
 41
0.907036
 50
90.000000
  7
STANDARD
 71
2
 72
0
  1
U5
 73
0
  0
POLYLINE
  8
PIN_BOTTOM
 66
1
 70
1
 40
0.000000
 41
0.000000
 39
0.000000
  0
VERTEX
  8
PIN_BOTTOM
 10
-0.790200
 20
-4.604000
 40
0.000000
 41
0.000000
 42
0.000000
  0
VERTEX
  8
PIN_BOTTOM
 10
0.098800
 20
-4.604000
 40
0.000000
 41
0.000000
 42
0.000000
  0
VERTEX
  8
PIN_BOTTOM
 10
0.098800
 20
-3.791200
 40
0.000000
 41
0.000000
 42
0.000000
  0
VERTEX
  8
PIN_BOTTOM
 10
-0.790200
 20
-3.791200
 40
0.000000
 41
0.000000
 42
0.000000
  0
SEQEND
  0
POLYLINE
  8
PIN_BOTTOM
 66
1
 70
1
 40
0.000000
 41
0.000000
 39
0.000000
  0
VERTEX
  8
PIN_BOTTOM
 10
-0.790200
 20
-6.124000
 40
0.000000
 41
0.000000
 42
0.000000
  0
VERTEX
  8
PIN_BOTTOM
 10
0.098800
 20
-6.124000
 40
0.000000
 41
0.000000
 42
0.000000
  0
VERTEX
  8
PIN_BOTTOM
 10
0.098800
 20
-5.311200
 40
0.000000
 41
0.000000
 42
0.000000
  0
VERTEX
  8
PIN_BOTTOM
 10
-0.790200
 20
-5.311200
 40
0.000000
 41
0.000000
 42
0.000000
  0
SEQEND
  0
POLYLINE
  8
PG_SILKSCREEN_BOTTOM
 66
1
 70
0
 40
0.000000
 41
0.000000
 39
0.000000
  0
VERTEX
  8
PG_SILKSCREEN_BOTTOM
 10
-0.980700
 20
-3.582600
 40
0.150000
 41
0.150000
 42
0.000000
  0
VERTEX
  8
PG_SILKSCREEN_BOTTOM
 10
-0.980700
 20
-4.507600
 40
0.150000
 41
0.150000
 42
0.000000
  0
SEQEND
  0
POLYLINE
  8
PG_SILKSCREEN_BOTTOM
 66
1
 70
0
 40
0.000000
 41
0.000000
 39
0.000000
  0
VERTEX
  8
PG_SILKSCREEN_BOTTOM
 10
0.289300
 20
-3.582600
 40
0.150000
 41
0.150000
 42
0.000000
  0
VERTEX
  8
PG_SILKSCREEN_BOTTOM
 10
-0.980700
 20
-3.582600
 40
0.150000
 41
0.150000
 42
0.000000
  0
SEQEND
  0
POLYLINE
  8
PG_SILKSCREEN_BOTTOM
 66
1
 70
0
 40
0.000000
 41
0.000000
 39
0.000000
  0
VERTEX
  8
PG_SILKSCREEN_BOTTOM
 10
0.289300
 20
-4.507600
 40
0.150000
 41
0.150000
 42
0.000000
  0
VERTEX
  8
PG_SILKSCREEN_BOTTOM
 10
0.289300
 20
-3.582600
 40
0.150000
 41
0.150000
 42
0.000000
  0
SEQEND
  0
POLYLINE
  8
PG_SILKSCREEN_BOTTOM
 66
1
 70
0
 40
0.000000
 41
0.000000
 39
0.000000
  0
VERTEX
  8
PG_SILKSCREEN_BOTTOM
 10
-0.980700
 20
-6.332600
 40
0.150000
 41
0.150000
 42
0.000000
  0
VERTEX
  8
PG_SILKSCREEN_BOTTOM
 10
-0.980700
 20
-5.407600
 40
0.150000
 41
0.150000
 42
0.000000
  0
SEQEND
  0
POLYLINE
  8
PG_SILKSCREEN_BOTTOM
 66
1
 70
0
 40
0.000000
 41
0.000000
 39
0.000000
  0
VERTEX
  8
PG_SILKSCREEN_BOTTOM
 10
0.289300
 20
-6.332600
 40
0.150000
 41
0.150000
 42
0.000000
  0
VERTEX
  8
PG_SILKSCREEN_BOTTOM
 10
-0.980700
 20
-6.332600
 40
0.150000
 41
0.150000
 42
0.000000
  0
SEQEND
  0
POLYLINE
  8
PG_SILKSCREEN_BOTTOM
 66
1
 70
0
 40
0.000000
 41
0.000000
 39
0.000000
  0
VERTEX
  8
PG_SILKSCREEN_BOTTOM
 10
0.289300
 20
-5.407600
 40
0.150000
 41
0.150000
 42
0.000000
  0
VERTEX
  8
PG_SILKSCREEN_BOTTOM
 10
0.289300
 20
-6.332600
 40
0.150000
 41
0.150000
 42
0.000000
  0
SEQEND
  0
TEXT
  8
RD_SILKSCREEN_BOTTOM
 10
2.835700
 20
-1.802400
 11
0.000000
 21
0.000000
 40
0.787400
 41
0.907036
 50
90.000000
  7
STANDARD
 71
2
 72
0
  1
C55
 73
0
  0
POLYLINE
  8
PIN_BOTTOM
 66
1
 70
1
 40
0.000000
 41
0.000000
 39
0.000000
  0
VERTEX
  8
PIN_BOTTOM
 10
-11.363600
 20
-3.146000
 40
0.000000
 41
0.000000
 42
0.000000
  0
VERTEX
  8
PIN_BOTTOM
 10
-11.363600
 20
-2.257000
 40
0.000000
 41
0.000000
 42
0.000000
  0
VERTEX
  8
PIN_BOTTOM
 10
-12.176400
 20
-2.257000
 40
0.000000
 41
0.000000
 42
0.000000
  0
VERTEX
  8
PIN_BOTTOM
 10
-12.176400
 20
-3.146000
 40
0.000000
 41
0.000000
 42
0.000000
  0
SEQEND
  0
POLYLINE
  8
PIN_BOTTOM
 66
1
 70
1
 40
0.000000
 41
0.000000
 39
0.000000
  0
VERTEX
  8
PIN_BOTTOM
 10
-9.843600
 20
-3.146000
 40
0.000000
 41
0.000000
 42
0.000000
  0
VERTEX
  8
PIN_BOTTOM
 10
-9.843600
 20
-2.257000
 40
0.000000
 41
0.000000
 42
0.000000
  0
VERTEX
  8
PIN_BOTTOM
 10
-10.656400
 20
-2.257000
 40
0.000000
 41
0.000000
 42
0.000000
  0
VERTEX
  8
PIN_BOTTOM
 10
-10.656400
 20
-3.146000
 40
0.000000
 41
0.000000
 42
0.000000
  0
SEQEND
  0
POLYLINE
  8
PG_SILKSCREEN_BOTTOM
 66
1
 70
0
 40
0.000000
 41
0.000000
 39
0.000000
  0
VERTEX
  8
PG_SILKSCREEN_BOTTOM
 10
-12.385000
 20
-3.336500
 40
0.150000
 41
0.150000
 42
0.000000
  0
VERTEX
  8
PG_SILKSCREEN_BOTTOM
 10
-11.460000
 20
-3.336500
 40
0.150000
 41
0.150000
 42
0.000000
  0
SEQEND
  0
POLYLINE
  8
PG_SILKSCREEN_BOTTOM
 66
1
 70
0
 40
0.000000
 41
0.000000
 39
0.000000
  0
VERTEX
  8
PG_SILKSCREEN_BOTTOM
 10
-12.385000
 20
-2.066500
 40
0.150000
 41
0.150000
 42
0.000000
  0
VERTEX
  8
PG_SILKSCREEN_BOTTOM
 10
-12.385000
 20
-3.336500
 40
0.150000
 41
0.150000
 42
0.000000
  0
SEQEND
  0
POLYLINE
  8
PG_SILKSCREEN_BOTTOM
 66
1
 70
0
 40
0.000000
 41
0.000000
 39
0.000000
  0
VERTEX
  8
PG_SILKSCREEN_BOTTOM
 10
-11.460000
 20
-2.066500
 40
0.150000
 41
0.150000
 42
0.000000
  0
VERTEX
  8
PG_SILKSCREEN_BOTTOM
 10
-12.385000
 20
-2.066500
 40
0.150000
 41
0.150000
 42
0.000000
  0
SEQEND
  0
POLYLINE
  8
PG_SILKSCREEN_BOTTOM
 66
1
 70
0
 40
0.000000
 41
0.000000
 39
0.000000
  0
VERTEX
  8
PG_SILKSCREEN_BOTTOM
 10
-9.635000
 20
-3.336500
 40
0.150000
 41
0.150000
 42
0.000000
  0
VERTEX
  8
PG_SILKSCREEN_BOTTOM
 10
-10.560000
 20
-3.336500
 40
0.150000
 41
0.150000
 42
0.000000
  0
SEQEND
  0
POLYLINE
  8
PG_SILKSCREEN_BOTTOM
 66
1
 70
0
 40
0.000000
 41
0.000000
 39
0.000000
  0
VERTEX
  8
PG_SILKSCREEN_BOTTOM
 10
-9.635000
 20
-2.066500
 40
0.150000
 41
0.150000
 42
0.000000
  0
VERTEX
  8
PG_SILKSCREEN_BOTTOM
 10
-9.635000
 20
-3.336500
 40
0.150000
 41
0.150000
 42
0.000000
  0
SEQEND
  0
POLYLINE
  8
PG_SILKSCREEN_BOTTOM
 66
1
 70
0
 40
0.000000
 41
0.000000
 39
0.000000
  0
VERTEX
  8
PG_SILKSCREEN_BOTTOM
 10
-10.560000
 20
-2.066500
 40
0.150000
 41
0.150000
 42
0.000000
  0
VERTEX
  8
PG_SILKSCREEN_BOTTOM
 10
-9.635000
 20
-2.066500
 40
0.150000
 41
0.150000
 42
0.000000
  0
SEQEND
  0
TEXT
  8
RD_SILKSCREEN_BOTTOM
 10
-12.860700
 20
-3.448100
 11
0.000000
 21
0.000000
 40
0.787400
 41
0.907036
 50
0.000000
  7
STANDARD
 71
2
 72
0
  1
C17
 73
0
  0
POLYLINE
  8
PIN_BOTTOM
 66
1
 70
1
 40
0.000000
 41
0.000000
 39
0.000000
  0
VERTEX
  8
PIN_BOTTOM
 10
-11.366000
 20
-1.720300
 40
0.000000
 41
0.000000
 42
0.000000
  0
VERTEX
  8
PIN_BOTTOM
 10
-11.366000
 20
-0.831300
 40
0.000000
 41
0.000000
 42
0.000000
  0
VERTEX
  8
PIN_BOTTOM
 10
-12.178800
 20
-0.831300
 40
0.000000
 41
0.000000
 42
0.000000
  0
VERTEX
  8
PIN_BOTTOM
 10
-12.178800
 20
-1.720300
 40
0.000000
 41
0.000000
 42
0.000000
  0
SEQEND
  0
POLYLINE
  8
PIN_BOTTOM
 66
1
 70
1
 40
0.000000
 41
0.000000
 39
0.000000
  0
VERTEX
  8
PIN_BOTTOM
 10
-9.846000
 20
-1.720300
 40
0.000000
 41
0.000000
 42
0.000000
  0
VERTEX
  8
PIN_BOTTOM
 10
-9.846000
 20
-0.831300
 40
0.000000
 41
0.000000
 42
0.000000
  0
VERTEX
  8
PIN_BOTTOM
 10
-10.658800
 20
-0.831300
 40
0.000000
 41
0.000000
 42
0.000000
  0
VERTEX
  8
PIN_BOTTOM
 10
-10.658800
 20
-1.720300
 40
0.000000
 41
0.000000
 42
0.000000
  0
SEQEND
  0
POLYLINE
  8
PG_SILKSCREEN_BOTTOM
 66
1
 70
0
 40
0.000000
 41
0.000000
 39
0.000000
  0
VERTEX
  8
PG_SILKSCREEN_BOTTOM
 10
-12.387400
 20
-1.910800
 40
0.150000
 41
0.150000
 42
0.000000
  0
VERTEX
  8
PG_SILKSCREEN_BOTTOM
 10
-11.462400
 20
-1.910800
 40
0.150000
 41
0.150000
 42
0.000000
  0
SEQEND
  0
POLYLINE
  8
PG_SILKSCREEN_BOTTOM
 66
1
 70
0
 40
0.000000
 41
0.000000
 39
0.000000
  0
VERTEX
  8
PG_SILKSCREEN_BOTTOM
 10
-12.387400
 20
-0.640800
 40
0.150000
 41
0.150000
 42
0.000000
  0
VERTEX
  8
PG_SILKSCREEN_BOTTOM
 10
-12.387400
 20
-1.910800
 40
0.150000
 41
0.150000
 42
0.000000
  0
SEQEND
  0
POLYLINE
  8
PG_SILKSCREEN_BOTTOM
 66
1
 70
0
 40
0.000000
 41
0.000000
 39
0.000000
  0
VERTEX
  8
PG_SILKSCREEN_BOTTOM
 10
-11.462400
 20
-0.640800
 40
0.150000
 41
0.150000
 42
0.000000
  0
VERTEX
  8
PG_SILKSCREEN_BOTTOM
 10
-12.387400
 20
-0.640800
 40
0.150000
 41
0.150000
 42
0.000000
  0
SEQEND
  0
POLYLINE
  8
PG_SILKSCREEN_BOTTOM
 66
1
 70
0
 40
0.000000
 41
0.000000
 39
0.000000
  0
VERTEX
  8
PG_SILKSCREEN_BOTTOM
 10
-9.637400
 20
-1.910800
 40
0.150000
 41
0.150000
 42
0.000000
  0
VERTEX
  8
PG_SILKSCREEN_BOTTOM
 10
-10.562400
 20
-1.910800
 40
0.150000
 41
0.150000
 42
0.000000
  0
SEQEND
  0
POLYLINE
  8
PG_SILKSCREEN_BOTTOM
 66
1
 70
0
 40
0.000000
 41
0.000000
 39
0.000000
  0
VERTEX
  8
PG_SILKSCREEN_BOTTOM
 10
-9.637400
 20
-0.640800
 40
0.150000
 41
0.150000
 42
0.000000
  0
VERTEX
  8
PG_SILKSCREEN_BOTTOM
 10
-9.637400
 20
-1.910800
 40
0.150000
 41
0.150000
 42
0.000000
  0
SEQEND
  0
POLYLINE
  8
PG_SILKSCREEN_BOTTOM
 66
1
 70
0
 40
0.000000
 41
0.000000
 39
0.000000
  0
VERTEX
  8
PG_SILKSCREEN_BOTTOM
 10
-10.562400
 20
-0.640800
 40
0.150000
 41
0.150000
 42
0.000000
  0
VERTEX
  8
PG_SILKSCREEN_BOTTOM
 10
-9.637400
 20
-0.640800
 40
0.150000
 41
0.150000
 42
0.000000
  0
SEQEND
  0
TEXT
  8
RD_SILKSCREEN_BOTTOM
 10
-12.658400
 20
-0.847900
 11
0.000000
 21
0.000000
 40
0.787400
 41
0.907036
 50
0.000000
  7
STANDARD
 71
2
 72
0
  1
C18
 73
0
  0
POLYLINE
  8
PIN_BOTTOM
 66
1
 70
1
 40
0.000000
 41
0.000000
 39
0.000000
  0
VERTEX
  8
PIN_BOTTOM
 10
-10.859200
 20
20.427300
 40
0.000000
 41
0.000000
 42
0.000000
  0
VERTEX
  8
PIN_BOTTOM
 10
-9.970200
 20
20.427300
 40
0.000000
 41
0.000000
 42
0.000000
  0
VERTEX
  8
PIN_BOTTOM
 10
-9.970200
 20
21.240100
 40
0.000000
 41
0.000000
 42
0.000000
  0
VERTEX
  8
PIN_BOTTOM
 10
-10.859200
 20
21.240100
 40
0.000000
 41
0.000000
 42
0.000000
  0
SEQEND
  0
POLYLINE
  8
PIN_BOTTOM
 66
1
 70
1
 40
0.000000
 41
0.000000
 39
0.000000
  0
VERTEX
  8
PIN_BOTTOM
 10
-10.859200
 20
18.907300
 40
0.000000
 41
0.000000
 42
0.000000
  0
VERTEX
  8
PIN_BOTTOM
 10
-9.970200
 20
18.907300
 40
0.000000
 41
0.000000
 42
0.000000
  0
VERTEX
  8
PIN_BOTTOM
 10
-9.970200
 20
19.720100
 40
0.000000
 41
0.000000
 42
0.000000
  0
VERTEX
  8
PIN_BOTTOM
 10
-10.859200
 20
19.720100
 40
0.000000
 41
0.000000
 42
0.000000
  0
SEQEND
  0
POLYLINE
  8
PG_SILKSCREEN_BOTTOM
 66
1
 70
0
 40
0.000000
 41
0.000000
 39
0.000000
  0
VERTEX
  8
PG_SILKSCREEN_BOTTOM
 10
-11.049700
 20
21.448700
 40
0.150000
 41
0.150000
 42
0.000000
  0
VERTEX
  8
PG_SILKSCREEN_BOTTOM
 10
-11.049700
 20
20.523700
 40
0.150000
 41
0.150000
 42
0.000000
  0
SEQEND
  0
POLYLINE
  8
PG_SILKSCREEN_BOTTOM
 66
1
 70
0
 40
0.000000
 41
0.000000
 39
0.000000
  0
VERTEX
  8
PG_SILKSCREEN_BOTTOM
 10
-9.779700
 20
21.448700
 40
0.150000
 41
0.150000
 42
0.000000
  0
VERTEX
  8
PG_SILKSCREEN_BOTTOM
 10
-11.049700
 20
21.448700
 40
0.150000
 41
0.150000
 42
0.000000
  0
SEQEND
  0
POLYLINE
  8
PG_SILKSCREEN_BOTTOM
 66
1
 70
0
 40
0.000000
 41
0.000000
 39
0.000000
  0
VERTEX
  8
PG_SILKSCREEN_BOTTOM
 10
-9.779700
 20
20.523700
 40
0.150000
 41
0.150000
 42
0.000000
  0
VERTEX
  8
PG_SILKSCREEN_BOTTOM
 10
-9.779700
 20
21.448700
 40
0.150000
 41
0.150000
 42
0.000000
  0
SEQEND
  0
POLYLINE
  8
PG_SILKSCREEN_BOTTOM
 66
1
 70
0
 40
0.000000
 41
0.000000
 39
0.000000
  0
VERTEX
  8
PG_SILKSCREEN_BOTTOM
 10
-11.049700
 20
18.698700
 40
0.150000
 41
0.150000
 42
0.000000
  0
VERTEX
  8
PG_SILKSCREEN_BOTTOM
 10
-11.049700
 20
19.623700
 40
0.150000
 41
0.150000
 42
0.000000
  0
SEQEND
  0
POLYLINE
  8
PG_SILKSCREEN_BOTTOM
 66
1
 70
0
 40
0.000000
 41
0.000000
 39
0.000000
  0
VERTEX
  8
PG_SILKSCREEN_BOTTOM
 10
-9.779700
 20
18.698700
 40
0.150000
 41
0.150000
 42
0.000000
  0
VERTEX
  8
PG_SILKSCREEN_BOTTOM
 10
-11.049700
 20
18.698700
 40
0.150000
 41
0.150000
 42
0.000000
  0
SEQEND
  0
POLYLINE
  8
PG_SILKSCREEN_BOTTOM
 66
1
 70
0
 40
0.000000
 41
0.000000
 39
0.000000
  0
VERTEX
  8
PG_SILKSCREEN_BOTTOM
 10
-9.779700
 20
19.623700
 40
0.150000
 41
0.150000
 42
0.000000
  0
VERTEX
  8
PG_SILKSCREEN_BOTTOM
 10
-9.779700
 20
18.698700
 40
0.150000
 41
0.150000
 42
0.000000
  0
SEQEND
  0
TEXT
  8
RD_SILKSCREEN_BOTTOM
 10
-11.406800
 20
21.036300
 11
0.000000
 21
0.000000
 40
0.787400
 41
0.907036
 50
90.000000
  7
STANDARD
 71
2
 72
0
  1
C19
 73
0
  0
POLYLINE
  8
PIN_BOTTOM
 66
1
 70
1
 40
0.000000
 41
0.000000
 39
0.000000
  0
VERTEX
  8
PIN_BOTTOM
 10
-13.491200
 20
6.052700
 40
0.000000
 41
0.000000
 42
0.000000
  0
VERTEX
  8
PIN_BOTTOM
 10
-13.491200
 20
6.941700
 40
0.000000
 41
0.000000
 42
0.000000
  0
VERTEX
  8
PIN_BOTTOM
 10
-14.304000
 20
6.941700
 40
0.000000
 41
0.000000
 42
0.000000
  0
VERTEX
  8
PIN_BOTTOM
 10
-14.304000
 20
6.052700
 40
0.000000
 41
0.000000
 42
0.000000
  0
SEQEND
  0
POLYLINE
  8
PIN_BOTTOM
 66
1
 70
1
 40
0.000000
 41
0.000000
 39
0.000000
  0
VERTEX
  8
PIN_BOTTOM
 10
-11.971200
 20
6.052700
 40
0.000000
 41
0.000000
 42
0.000000
  0
VERTEX
  8
PIN_BOTTOM
 10
-11.971200
 20
6.941700
 40
0.000000
 41
0.000000
 42
0.000000
  0
VERTEX
  8
PIN_BOTTOM
 10
-12.784000
 20
6.941700
 40
0.000000
 41
0.000000
 42
0.000000
  0
VERTEX
  8
PIN_BOTTOM
 10
-12.784000
 20
6.052700
 40
0.000000
 41
0.000000
 42
0.000000
  0
SEQEND
  0
POLYLINE
  8
PG_SILKSCREEN_BOTTOM
 66
1
 70
0
 40
0.000000
 41
0.000000
 39
0.000000
  0
VERTEX
  8
PG_SILKSCREEN_BOTTOM
 10
-14.512600
 20
5.862200
 40
0.150000
 41
0.150000
 42
0.000000
  0
VERTEX
  8
PG_SILKSCREEN_BOTTOM
 10
-13.587600
 20
5.862200
 40
0.150000
 41
0.150000
 42
0.000000
  0
SEQEND
  0
POLYLINE
  8
PG_SILKSCREEN_BOTTOM
 66
1
 70
0
 40
0.000000
 41
0.000000
 39
0.000000
  0
VERTEX
  8
PG_SILKSCREEN_BOTTOM
 10
-14.512600
 20
7.132200
 40
0.150000
 41
0.150000
 42
0.000000
  0
VERTEX
  8
PG_SILKSCREEN_BOTTOM
 10
-14.512600
 20
5.862200
 40
0.150000
 41
0.150000
 42
0.000000
  0
SEQEND
  0
POLYLINE
  8
PG_SILKSCREEN_BOTTOM
 66
1
 70
0
 40
0.000000
 41
0.000000
 39
0.000000
  0
VERTEX
  8
PG_SILKSCREEN_BOTTOM
 10
-13.587600
 20
7.132200
 40
0.150000
 41
0.150000
 42
0.000000
  0
VERTEX
  8
PG_SILKSCREEN_BOTTOM
 10
-14.512600
 20
7.132200
 40
0.150000
 41
0.150000
 42
0.000000
  0
SEQEND
  0
POLYLINE
  8
PG_SILKSCREEN_BOTTOM
 66
1
 70
0
 40
0.000000
 41
0.000000
 39
0.000000
  0
VERTEX
  8
PG_SILKSCREEN_BOTTOM
 10
-11.762600
 20
5.862200
 40
0.150000
 41
0.150000
 42
0.000000
  0
VERTEX
  8
PG_SILKSCREEN_BOTTOM
 10
-12.687600
 20
5.862200
 40
0.150000
 41
0.150000
 42
0.000000
  0
SEQEND
  0
POLYLINE
  8
PG_SILKSCREEN_BOTTOM
 66
1
 70
0
 40
0.000000
 41
0.000000
 39
0.000000
  0
VERTEX
  8
PG_SILKSCREEN_BOTTOM
 10
-11.762600
 20
7.132200
 40
0.150000
 41
0.150000
 42
0.000000
  0
VERTEX
  8
PG_SILKSCREEN_BOTTOM
 10
-11.762600
 20
5.862200
 40
0.150000
 41
0.150000
 42
0.000000
  0
SEQEND
  0
POLYLINE
  8
PG_SILKSCREEN_BOTTOM
 66
1
 70
0
 40
0.000000
 41
0.000000
 39
0.000000
  0
VERTEX
  8
PG_SILKSCREEN_BOTTOM
 10
-12.687600
 20
7.132200
 40
0.150000
 41
0.150000
 42
0.000000
  0
VERTEX
  8
PG_SILKSCREEN_BOTTOM
 10
-11.762600
 20
7.132200
 40
0.150000
 41
0.150000
 42
0.000000
  0
SEQEND
  0
TEXT
  8
RD_SILKSCREEN_BOTTOM
 10
-12.124500
 20
4.620000
 11
0.000000
 21
0.000000
 40
0.787400
 41
0.907036
 50
0.000000
  7
STANDARD
 71
2
 72
0
  1
C20
 73
0
  0
POLYLINE
  8
PIN_BOTTOM
 66
1
 70
1
 40
0.000000
 41
0.000000
 39
0.000000
  0
VERTEX
  8
PIN_BOTTOM
 10
12.760700
 20
7.253000
 40
0.000000
 41
0.000000
 42
0.000000
  0
VERTEX
  8
PIN_BOTTOM
 10
11.871700
 20
7.253000
 40
0.000000
 41
0.000000
 42
0.000000
  0
VERTEX
  8
PIN_BOTTOM
 10
11.871700
 20
6.440200
 40
0.000000
 41
0.000000
 42
0.000000
  0
VERTEX
  8
PIN_BOTTOM
 10
12.760700
 20
6.440200
 40
0.000000
 41
0.000000
 42
0.000000
  0
SEQEND
  0
POLYLINE
  8
PIN_BOTTOM
 66
1
 70
1
 40
0.000000
 41
0.000000
 39
0.000000
  0
VERTEX
  8
PIN_BOTTOM
 10
12.760700
 20
8.773000
 40
0.000000
 41
0.000000
 42
0.000000
  0
VERTEX
  8
PIN_BOTTOM
 10
11.871700
 20
8.773000
 40
0.000000
 41
0.000000
 42
0.000000
  0
VERTEX
  8
PIN_BOTTOM
 10
11.871700
 20
7.960200
 40
0.000000
 41
0.000000
 42
0.000000
  0
VERTEX
  8
PIN_BOTTOM
 10
12.760700
 20
7.960200
 40
0.000000
 41
0.000000
 42
0.000000
  0
SEQEND
  0
POLYLINE
  8
PG_SILKSCREEN_BOTTOM
 66
1
 70
0
 40
0.000000
 41
0.000000
 39
0.000000
  0
VERTEX
  8
PG_SILKSCREEN_BOTTOM
 10
12.951200
 20
6.231600
 40
0.150000
 41
0.150000
 42
0.000000
  0
VERTEX
  8
PG_SILKSCREEN_BOTTOM
 10
12.951200
 20
7.156600
 40
0.150000
 41
0.150000
 42
0.000000
  0
SEQEND
  0
POLYLINE
  8
PG_SILKSCREEN_BOTTOM
 66
1
 70
0
 40
0.000000
 41
0.000000
 39
0.000000
  0
VERTEX
  8
PG_SILKSCREEN_BOTTOM
 10
11.681200
 20
6.231600
 40
0.150000
 41
0.150000
 42
0.000000
  0
VERTEX
  8
PG_SILKSCREEN_BOTTOM
 10
12.951200
 20
6.231600
 40
0.150000
 41
0.150000
 42
0.000000
  0
SEQEND
  0
POLYLINE
  8
PG_SILKSCREEN_BOTTOM
 66
1
 70
0
 40
0.000000
 41
0.000000
 39
0.000000
  0
VERTEX
  8
PG_SILKSCREEN_BOTTOM
 10
11.681200
 20
7.156600
 40
0.150000
 41
0.150000
 42
0.000000
  0
VERTEX
  8
PG_SILKSCREEN_BOTTOM
 10
11.681200
 20
6.231600
 40
0.150000
 41
0.150000
 42
0.000000
  0
SEQEND
  0
POLYLINE
  8
PG_SILKSCREEN_BOTTOM
 66
1
 70
0
 40
0.000000
 41
0.000000
 39
0.000000
  0
VERTEX
  8
PG_SILKSCREEN_BOTTOM
 10
12.951200
 20
8.981600
 40
0.150000
 41
0.150000
 42
0.000000
  0
VERTEX
  8
PG_SILKSCREEN_BOTTOM
 10
12.951200
 20
8.056600
 40
0.150000
 41
0.150000
 42
0.000000
  0
SEQEND
  0
POLYLINE
  8
PG_SILKSCREEN_BOTTOM
 66
1
 70
0
 40
0.000000
 41
0.000000
 39
0.000000
  0
VERTEX
  8
PG_SILKSCREEN_BOTTOM
 10
11.681200
 20
8.981600
 40
0.150000
 41
0.150000
 42
0.000000
  0
VERTEX
  8
PG_SILKSCREEN_BOTTOM
 10
12.951200
 20
8.981600
 40
0.150000
 41
0.150000
 42
0.000000
  0
SEQEND
  0
POLYLINE
  8
PG_SILKSCREEN_BOTTOM
 66
1
 70
0
 40
0.000000
 41
0.000000
 39
0.000000
  0
VERTEX
  8
PG_SILKSCREEN_BOTTOM
 10
11.681200
 20
8.056600
 40
0.150000
 41
0.150000
 42
0.000000
  0
VERTEX
  8
PG_SILKSCREEN_BOTTOM
 10
11.681200
 20
8.981600
 40
0.150000
 41
0.150000
 42
0.000000
  0
SEQEND
  0
TEXT
  8
RD_SILKSCREEN_BOTTOM
 10
11.326500
 20
8.147300
 11
0.000000
 21
0.000000
 40
0.787400
 41
0.907036
 50
90.000000
  7
STANDARD
 71
2
 72
0
  1
C27
 73
0
  0
POLYLINE
  8
PIN_BOTTOM
 66
1
 70
1
 40
0.000000
 41
0.000000
 39
0.000000
  0
VERTEX
  8
PIN_BOTTOM
 10
2.124400
 20
9.292500
 40
0.000000
 41
0.000000
 42
0.000000
  0
VERTEX
  8
PIN_BOTTOM
 10
2.124400
 20
10.181500
 40
0.000000
 41
0.000000
 42
0.000000
  0
VERTEX
  8
PIN_BOTTOM
 10
1.311600
 20
10.181500
 40
0.000000
 41
0.000000
 42
0.000000
  0
VERTEX
  8
PIN_BOTTOM
 10
1.311600
 20
9.292500
 40
0.000000
 41
0.000000
 42
0.000000
  0
SEQEND
  0
POLYLINE
  8
PIN_BOTTOM
 66
1
 70
1
 40
0.000000
 41
0.000000
 39
0.000000
  0
VERTEX
  8
PIN_BOTTOM
 10
3.644400
 20
9.292500
 40
0.000000
 41
0.000000
 42
0.000000
  0
VERTEX
  8
PIN_BOTTOM
 10
3.644400
 20
10.181500
 40
0.000000
 41
0.000000
 42
0.000000
  0
VERTEX
  8
PIN_BOTTOM
 10
2.831600
 20
10.181500
 40
0.000000
 41
0.000000
 42
0.000000
  0
VERTEX
  8
PIN_BOTTOM
 10
2.831600
 20
9.292500
 40
0.000000
 41
0.000000
 42
0.000000
  0
SEQEND
  0
POLYLINE
  8
PG_SILKSCREEN_BOTTOM
 66
1
 70
0
 40
0.000000
 41
0.000000
 39
0.000000
  0
VERTEX
  8
PG_SILKSCREEN_BOTTOM
 10
1.103000
 20
9.102000
 40
0.150000
 41
0.150000
 42
0.000000
  0
VERTEX
  8
PG_SILKSCREEN_BOTTOM
 10
2.028000
 20
9.102000
 40
0.150000
 41
0.150000
 42
0.000000
  0
SEQEND
  0
POLYLINE
  8
PG_SILKSCREEN_BOTTOM
 66
1
 70
0
 40
0.000000
 41
0.000000
 39
0.000000
  0
VERTEX
  8
PG_SILKSCREEN_BOTTOM
 10
1.103000
 20
10.372000
 40
0.150000
 41
0.150000
 42
0.000000
  0
VERTEX
  8
PG_SILKSCREEN_BOTTOM
 10
1.103000
 20
9.102000
 40
0.150000
 41
0.150000
 42
0.000000
  0
SEQEND
  0
POLYLINE
  8
PG_SILKSCREEN_BOTTOM
 66
1
 70
0
 40
0.000000
 41
0.000000
 39
0.000000
  0
VERTEX
  8
PG_SILKSCREEN_BOTTOM
 10
2.028000
 20
10.372000
 40
0.150000
 41
0.150000
 42
0.000000
  0
VERTEX
  8
PG_SILKSCREEN_BOTTOM
 10
1.103000
 20
10.372000
 40
0.150000
 41
0.150000
 42
0.000000
  0
SEQEND
  0
POLYLINE
  8
PG_SILKSCREEN_BOTTOM
 66
1
 70
0
 40
0.000000
 41
0.000000
 39
0.000000
  0
VERTEX
  8
PG_SILKSCREEN_BOTTOM
 10
3.853000
 20
9.102000
 40
0.150000
 41
0.150000
 42
0.000000
  0
VERTEX
  8
PG_SILKSCREEN_BOTTOM
 10
2.928000
 20
9.102000
 40
0.150000
 41
0.150000
 42
0.000000
  0
SEQEND
  0
POLYLINE
  8
PG_SILKSCREEN_BOTTOM
 66
1
 70
0
 40
0.000000
 41
0.000000
 39
0.000000
  0
VERTEX
  8
PG_SILKSCREEN_BOTTOM
 10
3.853000
 20
10.372000
 40
0.150000
 41
0.150000
 42
0.000000
  0
VERTEX
  8
PG_SILKSCREEN_BOTTOM
 10
3.853000
 20
9.102000
 40
0.150000
 41
0.150000
 42
0.000000
  0
SEQEND
  0
POLYLINE
  8
PG_SILKSCREEN_BOTTOM
 66
1
 70
0
 40
0.000000
 41
0.000000
 39
0.000000
  0
VERTEX
  8
PG_SILKSCREEN_BOTTOM
 10
2.928000
 20
10.372000
 40
0.150000
 41
0.150000
 42
0.000000
  0
VERTEX
  8
PG_SILKSCREEN_BOTTOM
 10
3.853000
 20
10.372000
 40
0.150000
 41
0.150000
 42
0.000000
  0
SEQEND
  0
TEXT
  8
RD_SILKSCREEN_BOTTOM
 10
6.684900
 20
9.242200
 11
0.000000
 21
0.000000
 40
0.787400
 41
0.907036
 50
0.000000
  7
STANDARD
 71
2
 72
0
  1
C30
 73
0
  0
POLYLINE
  8
PIN_BOTTOM
 66
1
 70
1
 40
0.000000
 41
0.000000
 39
0.000000
  0
VERTEX
  8
PIN_BOTTOM
 10
-7.856700
 20
11.024100
 40
0.000000
 41
0.000000
 42
0.000000
  0
VERTEX
  8
PIN_BOTTOM
 10
-7.856700
 20
9.424100
 40
0.000000
 41
0.000000
 42
-1.000000
  0
VERTEX
  8
PIN_BOTTOM
 10
-9.456700
 20
9.424100
 40
0.000000
 41
0.000000
 42
0.000000
  0
VERTEX
  8
PIN_BOTTOM
 10
-9.456700
 20
11.024100
 40
0.000000
 41
0.000000
 42
-1.000000
  0
SEQEND
  0
POLYLINE
  8
PIN_BOTTOM
 66
1
 70
1
 40
0.000000
 41
0.000000
 39
0.000000
  0
VERTEX
  8
PIN_BOTTOM
 10
-16.056700
 20
11.024100
 40
0.000000
 41
0.000000
 42
0.000000
  0
VERTEX
  8
PIN_BOTTOM
 10
-16.056700
 20
9.424100
 40
0.000000
 41
0.000000
 42
-1.000000
  0
VERTEX
  8
PIN_BOTTOM
 10
-17.656700
 20
9.424100
 40
0.000000
 41
0.000000
 42
0.000000
  0
VERTEX
  8
PIN_BOTTOM
 10
-17.656700
 20
11.024100
 40
0.000000
 41
0.000000
 42
-1.000000
  0
SEQEND
  0
CIRCLE
  8
PIN_BOTTOM
 10
-10.756700
 20
10.224100
 40
0.750000
  0
CIRCLE
  8
PIN_BOTTOM
 10
-12.756700
 20
10.224100
 40
0.750000
  0
CIRCLE
  8
PIN_BOTTOM
 10
-14.756700
 20
10.224100
 40
0.750000
  0
POLYLINE
  8
PIN_BOTTOM
 66
1
 70
1
 40
0.000000
 41
0.000000
 39
0.000000
  0
VERTEX
  8
PIN_BOTTOM
 10
-7.856700
 20
15.894200
 40
0.000000
 41
0.000000
 42
0.000000
  0
VERTEX
  8
PIN_BOTTOM
 10
-7.856700
 20
14.294200
 40
0.000000
 41
0.000000
 42
-1.000000
  0
VERTEX
  8
PIN_BOTTOM
 10
-9.456700
 20
14.294200
 40
0.000000
 41
0.000000
 42
0.000000
  0
VERTEX
  8
PIN_BOTTOM
 10
-9.456700
 20
15.894200
 40
0.000000
 41
0.000000
 42
-1.000000
  0
SEQEND
  0
POLYLINE
  8
PIN_BOTTOM
 66
1
 70
1
 40
0.000000
 41
0.000000
 39
0.000000
  0
VERTEX
  8
PIN_BOTTOM
 10
-16.056700
 20
15.894200
 40
0.000000
 41
0.000000
 42
0.000000
  0
VERTEX
  8
PIN_BOTTOM
 10
-16.056700
 20
14.294200
 40
0.000000
 41
0.000000
 42
-1.000000
  0
VERTEX
  8
PIN_BOTTOM
 10
-17.656700
 20
14.294200
 40
0.000000
 41
0.000000
 42
0.000000
  0
VERTEX
  8
PIN_BOTTOM
 10
-17.656700
 20
15.894200
 40
0.000000
 41
0.000000
 42
-1.000000
  0
SEQEND
  0
CIRCLE
  8
PIN_BOTTOM
 10
-10.756700
 20
15.094200
 40
0.750000
  0
CIRCLE
  8
PIN_BOTTOM
 10
-12.756700
 20
15.094200
 40
0.750000
  0
CIRCLE
  8
PIN_BOTTOM
 10
-14.756700
 20
15.094200
 40
0.750000
  0
POLYLINE
  8
PIN_BOTTOM
 66
1
 70
1
 40
0.000000
 41
0.000000
 39
0.000000
  0
VERTEX
  8
PIN_BOTTOM
 10
20.347200
 20
20.740000
 40
0.000000
 41
0.000000
 42
0.000000
  0
VERTEX
  8
PIN_BOTTOM
 10
20.347200
 20
22.440000
 40
0.000000
 41
0.000000
 42
0.000000
  0
VERTEX
  8
PIN_BOTTOM
 10
18.647200
 20
22.440000
 40
0.000000
 41
0.000000
 42
0.000000
  0
VERTEX
  8
PIN_BOTTOM
 10
18.647200
 20
20.740000
 40
0.000000
 41
0.000000
 42
0.000000
  0
SEQEND
  0
CIRCLE
  8
PIN_BOTTOM
 10
19.497200
 20
19.050000
 40
0.850000
  0
CIRCLE
  8
PIN_BOTTOM
 10
19.497200
 20
16.510000
 40
0.850000
  0
CIRCLE
  8
PIN_BOTTOM
 10
19.497200
 20
13.970000
 40
0.850000
  0
CIRCLE
  8
PIN_BOTTOM
 10
19.497200
 20
11.430000
 40
0.850000
  0
CIRCLE
  8
PIN_BOTTOM
 10
19.497200
 20
8.890000
 40
0.850000
  0
CIRCLE
  8
PIN_BOTTOM
 10
19.497200
 20
6.350000
 40
0.850000
  0
CIRCLE
  8
PIN_BOTTOM
 10
19.497200
 20
3.810000
 40
0.850000
  0
CIRCLE
  8
PIN_BOTTOM
 10
19.497200
 20
1.270000
 40
0.850000
  0
CIRCLE
  8
PIN_BOTTOM
 10
19.497200
 20
-1.270000
 40
0.850000
  0
CIRCLE
  8
PIN_BOTTOM
 10
19.497200
 20
-3.810000
 40
0.850000
  0
CIRCLE
  8
PIN_BOTTOM
 10
19.497200
 20
-6.350000
 40
0.850000
  0
CIRCLE
  8
PIN_BOTTOM
 10
19.497200
 20
-8.890000
 40
0.850000
  0
CIRCLE
  8
PIN_BOTTOM
 10
19.497200
 20
-11.430000
 40
0.850000
  0
CIRCLE
  8
PIN_BOTTOM
 10
19.497200
 20
-13.970000
 40
0.850000
  0
CIRCLE
  8
PIN_BOTTOM
 10
19.497200
 20
-16.510000
 40
0.850000
  0
CIRCLE
  8
PIN_BOTTOM
 10
19.497200
 20
-19.050000
 40
0.850000
  0
CIRCLE
  8
PIN_BOTTOM
 10
19.497200
 20
-21.590000
 40
0.850000
  0
POLYLINE
  8
PG_SILKSCREEN_BOTTOM
 66
1
 70
0
 40
0.000000
 41
0.000000
 39
0.000000
  0
VERTEX
  8
PG_SILKSCREEN_BOTTOM
 10
20.852800
 20
22.944900
 40
0.150000
 41
0.150000
 42
0.000000
  0
VERTEX
  8
PG_SILKSCREEN_BOTTOM
 10
18.144500
 20
22.944900
 40
0.150000
 41
0.150000
 42
0.000000
  0
VERTEX
  8
PG_SILKSCREEN_BOTTOM
 10
18.144500
 20
-22.947600
 40
0.150000
 41
0.150000
 42
0.000000
  0
VERTEX
  8
PG_SILKSCREEN_BOTTOM
 10
20.852800
 20
-22.947600
 40
0.150000
 41
0.150000
 42
0.000000
  0
VERTEX
  8
PG_SILKSCREEN_BOTTOM
 10
20.852800
 20
22.944900
 40
0.150000
 41
0.150000
 42
0.000000
  0
SEQEND
  0
TEXT
  8
RD_SILKSCREEN_BOTTOM
 10
17.501700
 20
21.955700
 11
0.000000
 21
0.000000
 40
0.787400
 41
0.907036
 50
0.000000
  7
STANDARD
 71
2
 72
0
  1
J3
 73
0
  0
POLYLINE
  8
PIN_BOTTOM
 66
1
 70
1
 40
0.000000
 41
0.000000
 39
0.000000
  0
VERTEX
  8
PIN_BOTTOM
 10
-18.652800
 20
20.740000
 40
0.000000
 41
0.000000
 42
0.000000
  0
VERTEX
  8
PIN_BOTTOM
 10
-18.652800
 20
22.440000
 40
0.000000
 41
0.000000
 42
0.000000
  0
VERTEX
  8
PIN_BOTTOM
 10
-20.352800
 20
22.440000
 40
0.000000
 41
0.000000
 42
0.000000
  0
VERTEX
  8
PIN_BOTTOM
 10
-20.352800
 20
20.740000
 40
0.000000
 41
0.000000
 42
0.000000
  0
SEQEND
  0
CIRCLE
  8
PIN_BOTTOM
 10
-19.502800
 20
19.050000
 40
0.850000
  0
CIRCLE
  8
PIN_BOTTOM
 10
-19.502800
 20
16.510000
 40
0.850000
  0
CIRCLE
  8
PIN_BOTTOM
 10
-19.502800
 20
13.970000
 40
0.850000
  0
CIRCLE
  8
PIN_BOTTOM
 10
-19.502800
 20
11.430000
 40
0.850000
  0
CIRCLE
  8
PIN_BOTTOM
 10
-19.502800
 20
8.890000
 40
0.850000
  0
CIRCLE
  8
PIN_BOTTOM
 10
-19.502800
 20
6.350000
 40
0.850000
  0
CIRCLE
  8
PIN_BOTTOM
 10
-19.502800
 20
3.810000
 40
0.850000
  0
CIRCLE
  8
PIN_BOTTOM
 10
-19.502800
 20
1.270000
 40
0.850000
  0
CIRCLE
  8
PIN_BOTTOM
 10
-19.502800
 20
-1.270000
 40
0.850000
  0
CIRCLE
  8
PIN_BOTTOM
 10
-19.502800
 20
-3.810000
 40
0.850000
  0
CIRCLE
  8
PIN_BOTTOM
 10
-19.502800
 20
-6.350000
 40
0.850000
  0
CIRCLE
  8
PIN_BOTTOM
 10
-19.502800
 20
-8.890000
 40
0.850000
  0
CIRCLE
  8
PIN_BOTTOM
 10
-19.502800
 20
-11.430000
 40
0.850000
  0
CIRCLE
  8
PIN_BOTTOM
 10
-19.502800
 20
-13.970000
 40
0.850000
  0
CIRCLE
  8
PIN_BOTTOM
 10
-19.502800
 20
-16.510000
 40
0.850000
  0
CIRCLE
  8
PIN_BOTTOM
 10
-19.502800
 20
-19.050000
 40
0.850000
  0
CIRCLE
  8
PIN_BOTTOM
 10
-19.502800
 20
-21.590000
 40
0.850000
  0
POLYLINE
  8
PG_SILKSCREEN_BOTTOM
 66
1
 70
0
 40
0.000000
 41
0.000000
 39
0.000000
  0
VERTEX
  8
PG_SILKSCREEN_BOTTOM
 10
-18.147200
 20
22.944900
 40
0.150000
 41
0.150000
 42
0.000000
  0
VERTEX
  8
PG_SILKSCREEN_BOTTOM
 10
-20.855500
 20
22.944900
 40
0.150000
 41
0.150000
 42
0.000000
  0
VERTEX
  8
PG_SILKSCREEN_BOTTOM
 10
-20.855500
 20
-22.947600
 40
0.150000
 41
0.150000
 42
0.000000
  0
VERTEX
  8
PG_SILKSCREEN_BOTTOM
 10
-18.147200
 20
-22.947600
 40
0.150000
 41
0.150000
 42
0.000000
  0
VERTEX
  8
PG_SILKSCREEN_BOTTOM
 10
-18.147200
 20
22.944900
 40
0.150000
 41
0.150000
 42
0.000000
  0
SEQEND
  0
TEXT
  8
RD_SILKSCREEN_BOTTOM
 10
-16.041600
 20
21.984700
 11
0.000000
 21
0.000000
 40
0.787400
 41
0.907036
 50
0.000000
  7
STANDARD
 71
2
 72
0
  1
J2
 73
0
  0
CIRCLE
  8
PIN_BOTTOM
 10
8.487000
 20
19.034000
 40
1.050000
  0
CIRCLE
  8
PIN_BOTTOM
 10
5.937000
 20
16.484000
 40
1.050000
  0
CIRCLE
  8
PIN_BOTTOM
 10
5.937000
 20
21.584000
 40
1.050000
  0
CIRCLE
  8
PIN_BOTTOM
 10
11.037000
 20
16.484000
 40
1.050000
  0
CIRCLE
  8
PIN_BOTTOM
 10
11.037000
 20
21.584000
 40
1.050000
  0
POLYLINE
  8
PIN_BOTTOM
 66
1
 70
1
 40
0.000000
 41
0.000000
 39
0.000000
  0
VERTEX
  8
PIN_BOTTOM
 10
14.831500
 20
-1.260000
 40
0.000000
 41
0.000000
 42
0.000000
  0
VERTEX
  8
PIN_BOTTOM
 10
14.831500
 20
-0.060000
 40
0.000000
 41
0.000000
 42
0.000000
  0
VERTEX
  8
PIN_BOTTOM
 10
13.431500
 20
-0.060000
 40
0.000000
 41
0.000000
 42
0.000000
  0
VERTEX
  8
PIN_BOTTOM
 10
13.431500
 20
-1.260000
 40
0.000000
 41
0.000000
 42
0.000000
  0
SEQEND
  0
POLYLINE
  8
PIN_BOTTOM
 66
1
 70
1
 40
0.000000
 41
0.000000
 39
0.000000
  0
VERTEX
  8
PIN_BOTTOM
 10
12.631500
 20
-1.260000
 40
0.000000
 41
0.000000
 42
0.000000
  0
VERTEX
  8
PIN_BOTTOM
 10
12.631500
 20
-0.060000
 40
0.000000
 41
0.000000
 42
0.000000
  0
VERTEX
  8
PIN_BOTTOM
 10
11.231500
 20
-0.060000
 40
0.000000
 41
0.000000
 42
0.000000
  0
VERTEX
  8
PIN_BOTTOM
 10
11.231500
 20
-1.260000
 40
0.000000
 41
0.000000
 42
0.000000
  0
SEQEND
  0
POLYLINE
  8
PIN_BOTTOM
 66
1
 70
1
 40
0.000000
 41
0.000000
 39
0.000000
  0
VERTEX
  8
PIN_BOTTOM
 10
12.631500
 20
-2.860000
 40
0.000000
 41
0.000000
 42
0.000000
  0
VERTEX
  8
PIN_BOTTOM
 10
12.631500
 20
-1.660000
 40
0.000000
 41
0.000000
 42
0.000000
  0
VERTEX
  8
PIN_BOTTOM
 10
11.231500
 20
-1.660000
 40
0.000000
 41
0.000000
 42
0.000000
  0
VERTEX
  8
PIN_BOTTOM
 10
11.231500
 20
-2.860000
 40
0.000000
 41
0.000000
 42
0.000000
  0
SEQEND
  0
POLYLINE
  8
PIN_BOTTOM
 66
1
 70
1
 40
0.000000
 41
0.000000
 39
0.000000
  0
VERTEX
  8
PIN_BOTTOM
 10
14.831500
 20
-2.860000
 40
0.000000
 41
0.000000
 42
0.000000
  0
VERTEX
  8
PIN_BOTTOM
 10
14.831500
 20
-1.660000
 40
0.000000
 41
0.000000
 42
0.000000
  0
VERTEX
  8
PIN_BOTTOM
 10
13.431500
 20
-1.660000
 40
0.000000
 41
0.000000
 42
0.000000
  0
VERTEX
  8
PIN_BOTTOM
 10
13.431500
 20
-2.860000
 40
0.000000
 41
0.000000
 42
0.000000
  0
SEQEND
  0
POLYLINE
  8
PG_SILKSCREEN_BOTTOM
 66
1
 70
0
 40
0.000000
 41
0.000000
 39
0.000000
  0
VERTEX
  8
PG_SILKSCREEN_BOTTOM
 10
14.966500
 20
0.131000
 40
0.150000
 41
0.150000
 42
0.000000
  0
VERTEX
  8
PG_SILKSCREEN_BOTTOM
 10
11.051500
 20
0.131000
 40
0.150000
 41
0.150000
 42
0.000000
  0
VERTEX
  8
PG_SILKSCREEN_BOTTOM
 10
11.051500
 20
-3.047000
 40
0.150000
 41
0.150000
 42
0.000000
  0
VERTEX
  8
PG_SILKSCREEN_BOTTOM
 10
14.966500
 20
-3.047000
 40
0.150000
 41
0.150000
 42
0.000000
  0
VERTEX
  8
PG_SILKSCREEN_BOTTOM
 10
14.966500
 20
0.131000
 40
0.150000
 41
0.150000
 42
0.000000
  0
SEQEND
  0
POLYLINE
  8
PG_SILKSCREEN_BOTTOM
 66
1
 70
0
 40
0.000000
 41
0.000000
 39
0.000000
  0
VERTEX
  8
PG_SILKSCREEN_BOTTOM
 10
15.320100
 20
-1.733000
 40
0.200000
 41
0.200000
 42
0.000000
  0
VERTEX
  8
PG_SILKSCREEN_BOTTOM
 10
15.320100
 20
-3.390900
 40
0.200000
 41
0.200000
 42
0.000000
  0
VERTEX
  8
PG_SILKSCREEN_BOTTOM
 10
13.405200
 20
-3.390900
 40
0.200000
 41
0.200000
 42
0.000000
  0
SEQEND
  0
TEXT
  8
RD_SILKSCREEN_BOTTOM
 10
13.651300
 20
0.615500
 11
0.000000
 21
0.000000
 40
0.787400
 41
0.907036
 50
0.000000
  7
STANDARD
 71
2
 72
0
  1
X1
 73
0
  0
POLYLINE
  8
PIN_BOTTOM
 66
1
 70
1
 40
0.000000
 41
0.000000
 39
0.000000
  0
VERTEX
  8
PIN_BOTTOM
 10
7.382000
 20
-7.065300
 40
0.000000
 41
0.000000
 42
0.000000
  0
VERTEX
  8
PIN_BOTTOM
 10
7.382000
 20
-9.065300
 40
0.000000
 41
0.000000
 42
0.000000
  0
VERTEX
  8
PIN_BOTTOM
 10
8.082000
 20
-9.065300
 40
0.000000
 41
0.000000
 42
0.000000
  0
VERTEX
  8
PIN_BOTTOM
 10
8.082000
 20
-7.065300
 40
0.000000
 41
0.000000
 42
0.000000
  0
SEQEND
  0
POLYLINE
  8
PIN_BOTTOM
 66
1
 70
1
 40
0.000000
 41
0.000000
 39
0.000000
  0
VERTEX
  8
PIN_BOTTOM
 10
8.652000
 20
-7.065300
 40
0.000000
 41
0.000000
 42
0.000000
  0
VERTEX
  8
PIN_BOTTOM
 10
8.652000
 20
-9.065300
 40
0.000000
 41
0.000000
 42
0.000000
  0
VERTEX
  8
PIN_BOTTOM
 10
9.352000
 20
-9.065300
 40
0.000000
 41
0.000000
 42
0.000000
  0
VERTEX
  8
PIN_BOTTOM
 10
9.352000
 20
-7.065300
 40
0.000000
 41
0.000000
 42
0.000000
  0
SEQEND
  0
POLYLINE
  8
PIN_BOTTOM
 66
1
 70
1
 40
0.000000
 41
0.000000
 39
0.000000
  0
VERTEX
  8
PIN_BOTTOM
 10
9.922000
 20
-7.065300
 40
0.000000
 41
0.000000
 42
0.000000
  0
VERTEX
  8
PIN_BOTTOM
 10
9.922000
 20
-9.065300
 40
0.000000
 41
0.000000
 42
0.000000
  0
VERTEX
  8
PIN_BOTTOM
 10
10.622000
 20
-9.065300
 40
0.000000
 41
0.000000
 42
0.000000
  0
VERTEX
  8
PIN_BOTTOM
 10
10.622000
 20
-7.065300
 40
0.000000
 41
0.000000
 42
0.000000
  0
SEQEND
  0
POLYLINE
  8
PIN_BOTTOM
 66
1
 70
1
 40
0.000000
 41
0.000000
 39
0.000000
  0
VERTEX
  8
PIN_BOTTOM
 10
11.192000
 20
-7.065300
 40
0.000000
 41
0.000000
 42
0.000000
  0
VERTEX
  8
PIN_BOTTOM
 10
11.192000
 20
-9.065300
 40
0.000000
 41
0.000000
 42
0.000000
  0
VERTEX
  8
PIN_BOTTOM
 10
11.892000
 20
-9.065300
 40
0.000000
 41
0.000000
 42
0.000000
  0
VERTEX
  8
PIN_BOTTOM
 10
11.892000
 20
-7.065300
 40
0.000000
 41
0.000000
 42
0.000000
  0
SEQEND
  0
POLYLINE
  8
PIN_BOTTOM
 66
1
 70
1
 40
0.000000
 41
0.000000
 39
0.000000
  0
VERTEX
  8
PIN_BOTTOM
 10
12.462000
 20
-7.065300
 40
0.000000
 41
0.000000
 42
0.000000
  0
VERTEX
  8
PIN_BOTTOM
 10
12.462000
 20
-9.065300
 40
0.000000
 41
0.000000
 42
0.000000
  0
VERTEX
  8
PIN_BOTTOM
 10
13.162000
 20
-9.065300
 40
0.000000
 41
0.000000
 42
0.000000
  0
VERTEX
  8
PIN_BOTTOM
 10
13.162000
 20
-7.065300
 40
0.000000
 41
0.000000
 42
0.000000
  0
SEQEND
  0
POLYLINE
  8
PIN_BOTTOM
 66
1
 70
1
 40
0.000000
 41
0.000000
 39
0.000000
  0
VERTEX
  8
PIN_BOTTOM
 10
13.732000
 20
-7.065300
 40
0.000000
 41
0.000000
 42
0.000000
  0
VERTEX
  8
PIN_BOTTOM
 10
13.732000
 20
-9.065300
 40
0.000000
 41
0.000000
 42
0.000000
  0
VERTEX
  8
PIN_BOTTOM
 10
14.432000
 20
-9.065300
 40
0.000000
 41
0.000000
 42
0.000000
  0
VERTEX
  8
PIN_BOTTOM
 10
14.432000
 20
-7.065300
 40
0.000000
 41
0.000000
 42
0.000000
  0
SEQEND
  0
POLYLINE
  8
PIN_BOTTOM
 66
1
 70
1
 40
0.000000
 41
0.000000
 39
0.000000
  0
VERTEX
  8
PIN_BOTTOM
 10
15.002000
 20
-7.065300
 40
0.000000
 41
0.000000
 42
0.000000
  0
VERTEX
  8
PIN_BOTTOM
 10
15.002000
 20
-9.065300
 40
0.000000
 41
0.000000
 42
0.000000
  0
VERTEX
  8
PIN_BOTTOM
 10
15.702000
 20
-9.065300
 40
0.000000
 41
0.000000
 42
0.000000
  0
VERTEX
  8
PIN_BOTTOM
 10
15.702000
 20
-7.065300
 40
0.000000
 41
0.000000
 42
0.000000
  0
SEQEND
  0
POLYLINE
  8
PIN_BOTTOM
 66
1
 70
1
 40
0.000000
 41
0.000000
 39
0.000000
  0
VERTEX
  8
PIN_BOTTOM
 10
16.272000
 20
-7.065300
 40
0.000000
 41
0.000000
 42
0.000000
  0
VERTEX
  8
PIN_BOTTOM
 10
16.272000
 20
-9.065300
 40
0.000000
 41
0.000000
 42
0.000000
  0
VERTEX
  8
PIN_BOTTOM
 10
16.972000
 20
-9.065300
 40
0.000000
 41
0.000000
 42
0.000000
  0
VERTEX
  8
PIN_BOTTOM
 10
16.972000
 20
-7.065300
 40
0.000000
 41
0.000000
 42
0.000000
  0
SEQEND
  0
POLYLINE
  8
PIN_BOTTOM
 66
1
 70
1
 40
0.000000
 41
0.000000
 39
0.000000
  0
VERTEX
  8
PIN_BOTTOM
 10
16.272000
 20
-13.065300
 40
0.000000
 41
0.000000
 42
0.000000
  0
VERTEX
  8
PIN_BOTTOM
 10
16.272000
 20
-15.065300
 40
0.000000
 41
0.000000
 42
0.000000
  0
VERTEX
  8
PIN_BOTTOM
 10
16.972000
 20
-15.065300
 40
0.000000
 41
0.000000
 42
0.000000
  0
VERTEX
  8
PIN_BOTTOM
 10
16.972000
 20
-13.065300
 40
0.000000
 41
0.000000
 42
0.000000
  0
SEQEND
  0
POLYLINE
  8
PIN_BOTTOM
 66
1
 70
1
 40
0.000000
 41
0.000000
 39
0.000000
  0
VERTEX
  8
PIN_BOTTOM
 10
15.002000
 20
-13.065300
 40
0.000000
 41
0.000000
 42
0.000000
  0
VERTEX
  8
PIN_BOTTOM
 10
15.002000
 20
-15.065300
 40
0.000000
 41
0.000000
 42
0.000000
  0
VERTEX
  8
PIN_BOTTOM
 10
15.702000
 20
-15.065300
 40
0.000000
 41
0.000000
 42
0.000000
  0
VERTEX
  8
PIN_BOTTOM
 10
15.702000
 20
-13.065300
 40
0.000000
 41
0.000000
 42
0.000000
  0
SEQEND
  0
POLYLINE
  8
PIN_BOTTOM
 66
1
 70
1
 40
0.000000
 41
0.000000
 39
0.000000
  0
VERTEX
  8
PIN_BOTTOM
 10
13.732000
 20
-13.065300
 40
0.000000
 41
0.000000
 42
0.000000
  0
VERTEX
  8
PIN_BOTTOM
 10
13.732000
 20
-15.065300
 40
0.000000
 41
0.000000
 42
0.000000
  0
VERTEX
  8
PIN_BOTTOM
 10
14.432000
 20
-15.065300
 40
0.000000
 41
0.000000
 42
0.000000
  0
VERTEX
  8
PIN_BOTTOM
 10
14.432000
 20
-13.065300
 40
0.000000
 41
0.000000
 42
0.000000
  0
SEQEND
  0
POLYLINE
  8
PIN_BOTTOM
 66
1
 70
1
 40
0.000000
 41
0.000000
 39
0.000000
  0
VERTEX
  8
PIN_BOTTOM
 10
12.462000
 20
-13.065300
 40
0.000000
 41
0.000000
 42
0.000000
  0
VERTEX
  8
PIN_BOTTOM
 10
12.462000
 20
-15.065300
 40
0.000000
 41
0.000000
 42
0.000000
  0
VERTEX
  8
PIN_BOTTOM
 10
13.162000
 20
-15.065300
 40
0.000000
 41
0.000000
 42
0.000000
  0
VERTEX
  8
PIN_BOTTOM
 10
13.162000
 20
-13.065300
 40
0.000000
 41
0.000000
 42
0.000000
  0
SEQEND
  0
POLYLINE
  8
PIN_BOTTOM
 66
1
 70
1
 40
0.000000
 41
0.000000
 39
0.000000
  0
VERTEX
  8
PIN_BOTTOM
 10
11.192000
 20
-13.065300
 40
0.000000
 41
0.000000
 42
0.000000
  0
VERTEX
  8
PIN_BOTTOM
 10
11.192000
 20
-15.065300
 40
0.000000
 41
0.000000
 42
0.000000
  0
VERTEX
  8
PIN_BOTTOM
 10
11.892000
 20
-15.065300
 40
0.000000
 41
0.000000
 42
0.000000
  0
VERTEX
  8
PIN_BOTTOM
 10
11.892000
 20
-13.065300
 40
0.000000
 41
0.000000
 42
0.000000
  0
SEQEND
  0
POLYLINE
  8
PIN_BOTTOM
 66
1
 70
1
 40
0.000000
 41
0.000000
 39
0.000000
  0
VERTEX
  8
PIN_BOTTOM
 10
9.922000
 20
-13.065300
 40
0.000000
 41
0.000000
 42
0.000000
  0
VERTEX
  8
PIN_BOTTOM
 10
9.922000
 20
-15.065300
 40
0.000000
 41
0.000000
 42
0.000000
  0
VERTEX
  8
PIN_BOTTOM
 10
10.622000
 20
-15.065300
 40
0.000000
 41
0.000000
 42
0.000000
  0
VERTEX
  8
PIN_BOTTOM
 10
10.622000
 20
-13.065300
 40
0.000000
 41
0.000000
 42
0.000000
  0
SEQEND
  0
POLYLINE
  8
PIN_BOTTOM
 66
1
 70
1
 40
0.000000
 41
0.000000
 39
0.000000
  0
VERTEX
  8
PIN_BOTTOM
 10
8.652000
 20
-13.065300
 40
0.000000
 41
0.000000
 42
0.000000
  0
VERTEX
  8
PIN_BOTTOM
 10
8.652000
 20
-15.065300
 40
0.000000
 41
0.000000
 42
0.000000
  0
VERTEX
  8
PIN_BOTTOM
 10
9.352000
 20
-15.065300
 40
0.000000
 41
0.000000
 42
0.000000
  0
VERTEX
  8
PIN_BOTTOM
 10
9.352000
 20
-13.065300
 40
0.000000
 41
0.000000
 42
0.000000
  0
SEQEND
  0
POLYLINE
  8
PIN_BOTTOM
 66
1
 70
1
 40
0.000000
 41
0.000000
 39
0.000000
  0
VERTEX
  8
PIN_BOTTOM
 10
7.382000
 20
-13.065300
 40
0.000000
 41
0.000000
 42
0.000000
  0
VERTEX
  8
PIN_BOTTOM
 10
7.382000
 20
-15.065300
 40
0.000000
 41
0.000000
 42
0.000000
  0
VERTEX
  8
PIN_BOTTOM
 10
8.082000
 20
-15.065300
 40
0.000000
 41
0.000000
 42
0.000000
  0
VERTEX
  8
PIN_BOTTOM
 10
8.082000
 20
-13.065300
 40
0.000000
 41
0.000000
 42
0.000000
  0
SEQEND
  0
POLYLINE
  8
PG_SILKSCREEN_BOTTOM
 66
1
 70
0
 40
0.000000
 41
0.000000
 39
0.000000
  0
VERTEX
  8
PG_SILKSCREEN_BOTTOM
 10
7.173200
 20
-12.995700
 40
0.150000
 41
0.150000
 42
0.000000
  0
VERTEX
  8
PG_SILKSCREEN_BOTTOM
 10
17.180800
 20
-12.995700
 40
0.150000
 41
0.150000
 42
0.000000
  0
VERTEX
  8
PG_SILKSCREEN_BOTTOM
 10
17.180800
 20
-9.109500
 40
0.150000
 41
0.150000
 42
0.000000
  0
VERTEX
  8
PG_SILKSCREEN_BOTTOM
 10
7.173200
 20
-9.109500
 40
0.150000
 41
0.150000
 42
0.000000
  0
VERTEX
  8
PG_SILKSCREEN_BOTTOM
 10
7.173200
 20
-12.995700
 40
0.150000
 41
0.150000
 42
0.000000
  0
VERTEX
  8
PG_SILKSCREEN_BOTTOM
 10
9.154400
 20
-11.014500
 40
0.150000
 41
0.150000
 42
0.000000
  0
VERTEX
  8
PG_SILKSCREEN_BOTTOM
 10
7.249400
 20
-9.109500
 40
0.150000
 41
0.150000
 42
0.000000
  0
VERTEX
  8
PG_SILKSCREEN_BOTTOM
 10
7.173200
 20
-9.109500
 40
0.150000
 41
0.150000
 42
0.000000
  0
SEQEND
  0
POLYLINE
  8
PG_SILKSCREEN_BOTTOM
 66
1
 70
1
 40
0.000000
 41
0.000000
 39
0.000000
  0
VERTEX
  8
PG_SILKSCREEN_BOTTOM
 10
7.177600
 20
-8.474500
 40
0.000000
 41
0.000000
 42
1.000000
  0
VERTEX
  8
PG_SILKSCREEN_BOTTOM
 10
5.848000
 20
-8.474500
 40
0.000000
 41
0.000000
 42
1.000000
  0
SEQEND
  0
TEXT
  8
RD_SILKSCREEN_BOTTOM
 10
6.779100
 20
-9.678400
 11
0.000000
 21
0.000000
 40
0.787400
 41
0.907036
 50
90.000000
  7
STANDARD
 71
2
 72
0
  1
U4
 73
0
  0
CIRCLE
  8
PIN_BOTTOM
 10
1.433800
 20
15.667400
 40
0.685800
  0
CIRCLE
  8
PIN_BOTTOM
 10
1.433800
 20
12.111400
 40
0.685800
  0
POLYLINE
  8
PIN_BOTTOM
 66
1
 70
1
 40
0.000000
 41
0.000000
 39
0.000000
  0
VERTEX
  8
PIN_BOTTOM
 10
-2.223400
 20
-10.795200
 40
0.000000
 41
0.000000
 42
0.000000
  0
VERTEX
  8
PIN_BOTTOM
 10
-2.223400
 20
-9.695200
 40
0.000000
 41
0.000000
 42
0.000000
  0
VERTEX
  8
PIN_BOTTOM
 10
-3.223400
 20
-9.695200
 40
0.000000
 41
0.000000
 42
0.000000
  0
VERTEX
  8
PIN_BOTTOM
 10
-3.223400
 20
-10.795200
 40
0.000000
 41
0.000000
 42
0.000000
  0
SEQEND
  0
POLYLINE
  8
PIN_BOTTOM
 66
1
 70
1
 40
0.000000
 41
0.000000
 39
0.000000
  0
VERTEX
  8
PIN_BOTTOM
 10
0.316600
 20
-10.795200
 40
0.000000
 41
0.000000
 42
0.000000
  0
VERTEX
  8
PIN_BOTTOM
 10
0.316600
 20
-9.695200
 40
0.000000
 41
0.000000
 42
0.000000
  0
VERTEX
  8
PIN_BOTTOM
 10
-0.683400
 20
-9.695200
 40
0.000000
 41
0.000000
 42
0.000000
  0
VERTEX
  8
PIN_BOTTOM
 10
-0.683400
 20
-10.795200
 40
0.000000
 41
0.000000
 42
0.000000
  0
SEQEND
  0
POLYLINE
  8
PIN_BOTTOM
 66
1
 70
1
 40
0.000000
 41
0.000000
 39
0.000000
  0
VERTEX
  8
PIN_BOTTOM
 10
2.856600
 20
-10.795200
 40
0.000000
 41
0.000000
 42
0.000000
  0
VERTEX
  8
PIN_BOTTOM
 10
2.856600
 20
-9.695200
 40
0.000000
 41
0.000000
 42
0.000000
  0
VERTEX
  8
PIN_BOTTOM
 10
1.856600
 20
-9.695200
 40
0.000000
 41
0.000000
 42
0.000000
  0
VERTEX
  8
PIN_BOTTOM
 10
1.856600
 20
-10.795200
 40
0.000000
 41
0.000000
 42
0.000000
  0
SEQEND
  0
POLYLINE
  8
PIN_BOTTOM
 66
1
 70
1
 40
0.000000
 41
0.000000
 39
0.000000
  0
VERTEX
  8
PIN_BOTTOM
 10
-2.223400
 20
-22.595200
 40
0.000000
 41
0.000000
 42
0.000000
  0
VERTEX
  8
PIN_BOTTOM
 10
-2.223400
 20
-21.495200
 40
0.000000
 41
0.000000
 42
0.000000
  0
VERTEX
  8
PIN_BOTTOM
 10
-3.223400
 20
-21.495200
 40
0.000000
 41
0.000000
 42
0.000000
  0
VERTEX
  8
PIN_BOTTOM
 10
-3.223400
 20
-22.595200
 40
0.000000
 41
0.000000
 42
0.000000
  0
SEQEND
  0
POLYLINE
  8
PIN_BOTTOM
 66
1
 70
1
 40
0.000000
 41
0.000000
 39
0.000000
  0
VERTEX
  8
PIN_BOTTOM
 10
0.316600
 20
-22.595200
 40
0.000000
 41
0.000000
 42
0.000000
  0
VERTEX
  8
PIN_BOTTOM
 10
0.316600
 20
-21.495200
 40
0.000000
 41
0.000000
 42
0.000000
  0
VERTEX
  8
PIN_BOTTOM
 10
-0.683400
 20
-21.495200
 40
0.000000
 41
0.000000
 42
0.000000
  0
VERTEX
  8
PIN_BOTTOM
 10
-0.683400
 20
-22.595200
 40
0.000000
 41
0.000000
 42
0.000000
  0
SEQEND
  0
POLYLINE
  8
PIN_BOTTOM
 66
1
 70
1
 40
0.000000
 41
0.000000
 39
0.000000
  0
VERTEX
  8
PIN_BOTTOM
 10
2.856600
 20
-22.595200
 40
0.000000
 41
0.000000
 42
0.000000
  0
VERTEX
  8
PIN_BOTTOM
 10
2.856600
 20
-21.495200
 40
0.000000
 41
0.000000
 42
0.000000
  0
VERTEX
  8
PIN_BOTTOM
 10
1.856600
 20
-21.495200
 40
0.000000
 41
0.000000
 42
0.000000
  0
VERTEX
  8
PIN_BOTTOM
 10
1.856600
 20
-22.595200
 40
0.000000
 41
0.000000
 42
0.000000
  0
SEQEND
  0
POLYLINE
  8
PIN_BOTTOM
 66
1
 70
1
 40
0.000000
 41
0.000000
 39
0.000000
  0
VERTEX
  8
PIN_BOTTOM
 10
-5.033400
 20
-17.645200
 40
0.000000
 41
0.000000
 42
0.000000
  0
VERTEX
  8
PIN_BOTTOM
 10
-5.033400
 20
-14.645200
 40
0.000000
 41
0.000000
 42
0.000000
  0
VERTEX
  8
PIN_BOTTOM
 10
-6.133400
 20
-14.645200
 40
0.000000
 41
0.000000
 42
0.000000
  0
VERTEX
  8
PIN_BOTTOM
 10
-6.133400
 20
-17.645200
 40
0.000000
 41
0.000000
 42
0.000000
  0
SEQEND
  0
POLYLINE
  8
PIN_BOTTOM
 66
1
 70
1
 40
0.000000
 41
0.000000
 39
0.000000
  0
VERTEX
  8
PIN_BOTTOM
 10
5.766600
 20
-17.645200
 40
0.000000
 41
0.000000
 42
0.000000
  0
VERTEX
  8
PIN_BOTTOM
 10
5.766600
 20
-14.645200
 40
0.000000
 41
0.000000
 42
0.000000
  0
VERTEX
  8
PIN_BOTTOM
 10
4.666600
 20
-14.645200
 40
0.000000
 41
0.000000
 42
0.000000
  0
VERTEX
  8
PIN_BOTTOM
 10
4.666600
 20
-17.645200
 40
0.000000
 41
0.000000
 42
0.000000
  0
SEQEND
  0
CIRCLE
  8
PIN_BOTTOM
 10
-4.683400
 20
-11.995200
 40
0.350000
  0
CIRCLE
  8
PIN_BOTTOM
 10
4.316600
 20
-20.295200
 40
0.450000
  0
POLYLINE
  8
PG_SILKSCREEN_BOTTOM
 66
1
 70
0
 40
0.000000
 41
0.000000
 39
0.000000
  0
VERTEX
  8
PG_SILKSCREEN_BOTTOM
 10
3.145200
 20
-9.994100
 40
0.150000
 41
0.150000
 42
0.000000
  0
VERTEX
  8
PG_SILKSCREEN_BOTTOM
 10
3.145200
 20
-10.003500
 40
0.150000
 41
0.150000
 42
0.000000
  0
VERTEX
  8
PG_SILKSCREEN_BOTTOM
 10
4.816300
 20
-11.674600
 40
0.150000
 41
0.150000
 42
0.000000
  0
VERTEX
  8
PG_SILKSCREEN_BOTTOM
 10
4.816300
 20
-22.295300
 40
0.150000
 41
0.150000
 42
0.000000
  0
VERTEX
  8
PG_SILKSCREEN_BOTTOM
 10
-5.183200
 20
-22.295300
 40
0.150000
 41
0.150000
 42
0.000000
  0
VERTEX
  8
PG_SILKSCREEN_BOTTOM
 10
-5.183200
 20
-9.994100
 40
0.150000
 41
0.150000
 42
0.000000
  0
VERTEX
  8
PG_SILKSCREEN_BOTTOM
 10
3.145200
 20
-9.994100
 40
0.150000
 41
0.150000
 42
0.000000
  0
SEQEND
  0
TEXT
  8
RD_SILKSCREEN_BOTTOM
 10
4.882200
 20
-10.432400
 11
0.000000
 21
0.000000
 40
0.787400
 41
0.907036
 50
0.000000
  7
STANDARD
 71
2
 72
0
  1
J5
 73
0
  0
POLYLINE
  8
PIN_BOTTOM
 66
1
 70
1
 40
0.000000
 41
0.000000
 39
0.000000
  0
VERTEX
  8
PIN_BOTTOM
 10
-1.849500
 20
-6.177600
 40
0.000000
 41
0.000000
 42
0.000000
  0
VERTEX
  8
PIN_BOTTOM
 10
-1.239900
 20
-6.177600
 40
0.000000
 41
0.000000
 42
0.000000
  0
VERTEX
  8
PIN_BOTTOM
 10
-1.239900
 20
-5.415600
 40
0.000000
 41
0.000000
 42
0.000000
  0
VERTEX
  8
PIN_BOTTOM
 10
-1.849500
 20
-5.415600
 40
0.000000
 41
0.000000
 42
0.000000
  0
SEQEND
  0
POLYLINE
  8
PIN_BOTTOM
 66
1
 70
1
 40
0.000000
 41
0.000000
 39
0.000000
  0
VERTEX
  8
PIN_BOTTOM
 10
-1.849500
 20
-5.077600
 40
0.000000
 41
0.000000
 42
0.000000
  0
VERTEX
  8
PIN_BOTTOM
 10
-1.239900
 20
-5.077600
 40
0.000000
 41
0.000000
 42
0.000000
  0
VERTEX
  8
PIN_BOTTOM
 10
-1.239900
 20
-4.315600
 40
0.000000
 41
0.000000
 42
0.000000
  0
VERTEX
  8
PIN_BOTTOM
 10
-1.849500
 20
-4.315600
 40
0.000000
 41
0.000000
 42
0.000000
  0
SEQEND
  0
POLYLINE
  8
PG_SILKSCREEN_BOTTOM
 66
1
 70
0
 40
0.000000
 41
0.000000
 39
0.000000
  0
VERTEX
  8
PG_SILKSCREEN_BOTTOM
 10
-1.112900
 20
-4.713200
 40
0.150000
 41
0.150000
 42
0.000000
  0
VERTEX
  8
PG_SILKSCREEN_BOTTOM
 10
-1.112900
 20
-4.179800
 40
0.150000
 41
0.150000
 42
0.000000
  0
VERTEX
  8
PG_SILKSCREEN_BOTTOM
 10
-1.976500
 20
-4.179800
 40
0.150000
 41
0.150000
 42
0.000000
  0
VERTEX
  8
PG_SILKSCREEN_BOTTOM
 10
-1.976500
 20
-4.713200
 40
0.150000
 41
0.150000
 42
0.000000
  0
SEQEND
  0
POLYLINE
  8
PG_SILKSCREEN_BOTTOM
 66
1
 70
0
 40
0.000000
 41
0.000000
 39
0.000000
  0
VERTEX
  8
PG_SILKSCREEN_BOTTOM
 10
-1.112900
 20
-5.729200
 40
0.150000
 41
0.150000
 42
0.000000
  0
VERTEX
  8
PG_SILKSCREEN_BOTTOM
 10
-1.112900
 20
-6.313400
 40
0.150000
 41
0.150000
 42
0.000000
  0
VERTEX
  8
PG_SILKSCREEN_BOTTOM
 10
-1.976500
 20
-6.313400
 40
0.150000
 41
0.150000
 42
0.000000
  0
VERTEX
  8
PG_SILKSCREEN_BOTTOM
 10
-1.976500
 20
-5.780000
 40
0.150000
 41
0.150000
 42
0.000000
  0
SEQEND
  0
TEXT
  8
RD_SILKSCREEN_BOTTOM
 10
1.882300
 20
-1.831200
 11
0.000000
 21
0.000000
 40
0.787400
 41
0.907036
 50
90.000000
  7
STANDARD
 71
2
 72
0
  1
C56
 73
0
  0
POLYLINE
  8
PIN_BOTTOM
 66
1
 70
1
 40
0.000000
 41
0.000000
 39
0.000000
  0
VERTEX
  8
PIN_BOTTOM
 10
-2.386200
 20
11.164000
 40
0.000000
 41
0.000000
 42
0.000000
  0
VERTEX
  8
PIN_BOTTOM
 10
-2.386200
 20
11.773600
 40
0.000000
 41
0.000000
 42
0.000000
  0
VERTEX
  8
PIN_BOTTOM
 10
-3.148200
 20
11.773600
 40
0.000000
 41
0.000000
 42
0.000000
  0
VERTEX
  8
PIN_BOTTOM
 10
-3.148200
 20
11.164000
 40
0.000000
 41
0.000000
 42
0.000000
  0
SEQEND
  0
POLYLINE
  8
PIN_BOTTOM
 66
1
 70
1
 40
0.000000
 41
0.000000
 39
0.000000
  0
VERTEX
  8
PIN_BOTTOM
 10
-3.486200
 20
11.164000
 40
0.000000
 41
0.000000
 42
0.000000
  0
VERTEX
  8
PIN_BOTTOM
 10
-3.486200
 20
11.773600
 40
0.000000
 41
0.000000
 42
0.000000
  0
VERTEX
  8
PIN_BOTTOM
 10
-4.248200
 20
11.773600
 40
0.000000
 41
0.000000
 42
0.000000
  0
VERTEX
  8
PIN_BOTTOM
 10
-4.248200
 20
11.164000
 40
0.000000
 41
0.000000
 42
0.000000
  0
SEQEND
  0
POLYLINE
  8
PG_SILKSCREEN_BOTTOM
 66
1
 70
0
 40
0.000000
 41
0.000000
 39
0.000000
  0
VERTEX
  8
PG_SILKSCREEN_BOTTOM
 10
-3.850600
 20
11.900600
 40
0.150000
 41
0.150000
 42
0.000000
  0
VERTEX
  8
PG_SILKSCREEN_BOTTOM
 10
-4.384000
 20
11.900600
 40
0.150000
 41
0.150000
 42
0.000000
  0
VERTEX
  8
PG_SILKSCREEN_BOTTOM
 10
-4.384000
 20
11.037000
 40
0.150000
 41
0.150000
 42
0.000000
  0
VERTEX
  8
PG_SILKSCREEN_BOTTOM
 10
-3.850600
 20
11.037000
 40
0.150000
 41
0.150000
 42
0.000000
  0
SEQEND
  0
POLYLINE
  8
PG_SILKSCREEN_BOTTOM
 66
1
 70
0
 40
0.000000
 41
0.000000
 39
0.000000
  0
VERTEX
  8
PG_SILKSCREEN_BOTTOM
 10
-2.834600
 20
11.900600
 40
0.150000
 41
0.150000
 42
0.000000
  0
VERTEX
  8
PG_SILKSCREEN_BOTTOM
 10
-2.250400
 20
11.900600
 40
0.150000
 41
0.150000
 42
0.000000
  0
VERTEX
  8
PG_SILKSCREEN_BOTTOM
 10
-2.250400
 20
11.037000
 40
0.150000
 41
0.150000
 42
0.000000
  0
VERTEX
  8
PG_SILKSCREEN_BOTTOM
 10
-2.783800
 20
11.037000
 40
0.150000
 41
0.150000
 42
0.000000
  0
SEQEND
  0
TEXT
  8
RD_SILKSCREEN_BOTTOM
 10
-4.654800
 20
11.012100
 11
0.000000
 21
0.000000
 40
0.787400
 41
0.907036
 50
0.000000
  7
STANDARD
 71
2
 72
0
  1
C42
 73
0
  0
POLYLINE
  8
PIN_BOTTOM
 66
1
 70
1
 40
0.000000
 41
0.000000
 39
0.000000
  0
VERTEX
  8
PIN_BOTTOM
 10
-2.368600
 20
10.164500
 40
0.000000
 41
0.000000
 42
0.000000
  0
VERTEX
  8
PIN_BOTTOM
 10
-2.368600
 20
10.774100
 40
0.000000
 41
0.000000
 42
0.000000
  0
VERTEX
  8
PIN_BOTTOM
 10
-3.130600
 20
10.774100
 40
0.000000
 41
0.000000
 42
0.000000
  0
VERTEX
  8
PIN_BOTTOM
 10
-3.130600
 20
10.164500
 40
0.000000
 41
0.000000
 42
0.000000
  0
SEQEND
  0
POLYLINE
  8
PIN_BOTTOM
 66
1
 70
1
 40
0.000000
 41
0.000000
 39
0.000000
  0
VERTEX
  8
PIN_BOTTOM
 10
-3.468600
 20
10.164500
 40
0.000000
 41
0.000000
 42
0.000000
  0
VERTEX
  8
PIN_BOTTOM
 10
-3.468600
 20
10.774100
 40
0.000000
 41
0.000000
 42
0.000000
  0
VERTEX
  8
PIN_BOTTOM
 10
-4.230600
 20
10.774100
 40
0.000000
 41
0.000000
 42
0.000000
  0
VERTEX
  8
PIN_BOTTOM
 10
-4.230600
 20
10.164500
 40
0.000000
 41
0.000000
 42
0.000000
  0
SEQEND
  0
POLYLINE
  8
PG_SILKSCREEN_BOTTOM
 66
1
 70
0
 40
0.000000
 41
0.000000
 39
0.000000
  0
VERTEX
  8
PG_SILKSCREEN_BOTTOM
 10
-3.833000
 20
10.901100
 40
0.150000
 41
0.150000
 42
0.000000
  0
VERTEX
  8
PG_SILKSCREEN_BOTTOM
 10
-4.366400
 20
10.901100
 40
0.150000
 41
0.150000
 42
0.000000
  0
VERTEX
  8
PG_SILKSCREEN_BOTTOM
 10
-4.366400
 20
10.037500
 40
0.150000
 41
0.150000
 42
0.000000
  0
VERTEX
  8
PG_SILKSCREEN_BOTTOM
 10
-3.833000
 20
10.037500
 40
0.150000
 41
0.150000
 42
0.000000
  0
SEQEND
  0
POLYLINE
  8
PG_SILKSCREEN_BOTTOM
 66
1
 70
0
 40
0.000000
 41
0.000000
 39
0.000000
  0
VERTEX
  8
PG_SILKSCREEN_BOTTOM
 10
-2.817000
 20
10.901100
 40
0.150000
 41
0.150000
 42
0.000000
  0
VERTEX
  8
PG_SILKSCREEN_BOTTOM
 10
-2.232800
 20
10.901100
 40
0.150000
 41
0.150000
 42
0.000000
  0
VERTEX
  8
PG_SILKSCREEN_BOTTOM
 10
-2.232800
 20
10.037500
 40
0.150000
 41
0.150000
 42
0.000000
  0
VERTEX
  8
PG_SILKSCREEN_BOTTOM
 10
-2.766200
 20
10.037500
 40
0.150000
 41
0.150000
 42
0.000000
  0
SEQEND
  0
TEXT
  8
RD_SILKSCREEN_BOTTOM
 10
-4.582600
 20
9.914200
 11
0.000000
 21
0.000000
 40
0.787400
 41
0.907036
 50
0.000000
  7
STANDARD
 71
2
 72
0
  1
C41
 73
0
  0
POLYLINE
  8
PIN_BOTTOM
 66
1
 70
1
 40
0.000000
 41
0.000000
 39
0.000000
  0
VERTEX
  8
PIN_BOTTOM
 10
-13.536200
 20
-15.754100
 40
0.000000
 41
0.000000
 42
0.000000
  0
VERTEX
  8
PIN_BOTTOM
 10
-13.536200
 20
-15.144500
 40
0.000000
 41
0.000000
 42
0.000000
  0
VERTEX
  8
PIN_BOTTOM
 10
-14.298200
 20
-15.144500
 40
0.000000
 41
0.000000
 42
0.000000
  0
VERTEX
  8
PIN_BOTTOM
 10
-14.298200
 20
-15.754100
 40
0.000000
 41
0.000000
 42
0.000000
  0
SEQEND
  0
POLYLINE
  8
PIN_BOTTOM
 66
1
 70
1
 40
0.000000
 41
0.000000
 39
0.000000
  0
VERTEX
  8
PIN_BOTTOM
 10
-14.636200
 20
-15.754100
 40
0.000000
 41
0.000000
 42
0.000000
  0
VERTEX
  8
PIN_BOTTOM
 10
-14.636200
 20
-15.144500
 40
0.000000
 41
0.000000
 42
0.000000
  0
VERTEX
  8
PIN_BOTTOM
 10
-15.398200
 20
-15.144500
 40
0.000000
 41
0.000000
 42
0.000000
  0
VERTEX
  8
PIN_BOTTOM
 10
-15.398200
 20
-15.754100
 40
0.000000
 41
0.000000
 42
0.000000
  0
SEQEND
  0
POLYLINE
  8
PG_SILKSCREEN_BOTTOM
 66
1
 70
0
 40
0.000000
 41
0.000000
 39
0.000000
  0
VERTEX
  8
PG_SILKSCREEN_BOTTOM
 10
-15.000600
 20
-15.017500
 40
0.150000
 41
0.150000
 42
0.000000
  0
VERTEX
  8
PG_SILKSCREEN_BOTTOM
 10
-15.534000
 20
-15.017500
 40
0.150000
 41
0.150000
 42
0.000000
  0
VERTEX
  8
PG_SILKSCREEN_BOTTOM
 10
-15.534000
 20
-15.881100
 40
0.150000
 41
0.150000
 42
0.000000
  0
VERTEX
  8
PG_SILKSCREEN_BOTTOM
 10
-15.000600
 20
-15.881100
 40
0.150000
 41
0.150000
 42
0.000000
  0
SEQEND
  0
POLYLINE
  8
PG_SILKSCREEN_BOTTOM
 66
1
 70
0
 40
0.000000
 41
0.000000
 39
0.000000
  0
VERTEX
  8
PG_SILKSCREEN_BOTTOM
 10
-13.984600
 20
-15.017500
 40
0.150000
 41
0.150000
 42
0.000000
  0
VERTEX
  8
PG_SILKSCREEN_BOTTOM
 10
-13.400400
 20
-15.017500
 40
0.150000
 41
0.150000
 42
0.000000
  0
VERTEX
  8
PG_SILKSCREEN_BOTTOM
 10
-13.400400
 20
-15.881100
 40
0.150000
 41
0.150000
 42
0.000000
  0
VERTEX
  8
PG_SILKSCREEN_BOTTOM
 10
-13.933800
 20
-15.881100
 40
0.150000
 41
0.150000
 42
0.000000
  0
SEQEND
  0
TEXT
  8
RD_SILKSCREEN_BOTTOM
 10
-12.687800
 20
-16.817400
 11
0.000000
 21
0.000000
 40
0.787400
 41
0.907036
 50
0.000000
  7
STANDARD
 71
2
 72
0
  1
C54
 73
0
  0
POLYLINE
  8
PIN_BOTTOM
 66
1
 70
1
 40
0.000000
 41
0.000000
 39
0.000000
  0
VERTEX
  8
PIN_BOTTOM
 10
-6.512900
 20
-12.668600
 40
0.000000
 41
0.000000
 42
0.000000
  0
VERTEX
  8
PIN_BOTTOM
 10
-7.122500
 20
-12.668600
 40
0.000000
 41
0.000000
 42
0.000000
  0
VERTEX
  8
PIN_BOTTOM
 10
-7.122500
 20
-13.430600
 40
0.000000
 41
0.000000
 42
0.000000
  0
VERTEX
  8
PIN_BOTTOM
 10
-6.512900
 20
-13.430600
 40
0.000000
 41
0.000000
 42
0.000000
  0
SEQEND
  0
POLYLINE
  8
PIN_BOTTOM
 66
1
 70
1
 40
0.000000
 41
0.000000
 39
0.000000
  0
VERTEX
  8
PIN_BOTTOM
 10
-6.512900
 20
-13.768600
 40
0.000000
 41
0.000000
 42
0.000000
  0
VERTEX
  8
PIN_BOTTOM
 10
-7.122500
 20
-13.768600
 40
0.000000
 41
0.000000
 42
0.000000
  0
VERTEX
  8
PIN_BOTTOM
 10
-7.122500
 20
-14.530600
 40
0.000000
 41
0.000000
 42
0.000000
  0
VERTEX
  8
PIN_BOTTOM
 10
-6.512900
 20
-14.530600
 40
0.000000
 41
0.000000
 42
0.000000
  0
SEQEND
  0
POLYLINE
  8
PG_SILKSCREEN_BOTTOM
 66
1
 70
0
 40
0.000000
 41
0.000000
 39
0.000000
  0
VERTEX
  8
PG_SILKSCREEN_BOTTOM
 10
-7.249500
 20
-14.133000
 40
0.150000
 41
0.150000
 42
0.000000
  0
VERTEX
  8
PG_SILKSCREEN_BOTTOM
 10
-7.249500
 20
-14.666400
 40
0.150000
 41
0.150000
 42
0.000000
  0
VERTEX
  8
PG_SILKSCREEN_BOTTOM
 10
-6.385900
 20
-14.666400
 40
0.150000
 41
0.150000
 42
0.000000
  0
VERTEX
  8
PG_SILKSCREEN_BOTTOM
 10
-6.385900
 20
-14.133000
 40
0.150000
 41
0.150000
 42
0.000000
  0
SEQEND
  0
POLYLINE
  8
PG_SILKSCREEN_BOTTOM
 66
1
 70
0
 40
0.000000
 41
0.000000
 39
0.000000
  0
VERTEX
  8
PG_SILKSCREEN_BOTTOM
 10
-7.249500
 20
-13.117000
 40
0.150000
 41
0.150000
 42
0.000000
  0
VERTEX
  8
PG_SILKSCREEN_BOTTOM
 10
-7.249500
 20
-12.532800
 40
0.150000
 41
0.150000
 42
0.000000
  0
VERTEX
  8
PG_SILKSCREEN_BOTTOM
 10
-6.385900
 20
-12.532800
 40
0.150000
 41
0.150000
 42
0.000000
  0
VERTEX
  8
PG_SILKSCREEN_BOTTOM
 10
-6.385900
 20
-13.066200
 40
0.150000
 41
0.150000
 42
0.000000
  0
SEQEND
  0
TEXT
  8
RD_SILKSCREEN_BOTTOM
 10
-7.507800
 20
-12.601100
 11
0.000000
 21
0.000000
 40
0.787400
 41
0.907036
 50
90.000000
  7
STANDARD
 71
2
 72
0
  1
C33
 73
0
  0
POLYLINE
  8
PIN_BOTTOM
 66
1
 70
1
 40
0.000000
 41
0.000000
 39
0.000000
  0
VERTEX
  8
PIN_BOTTOM
 10
14.529600
 20
8.955100
 40
0.000000
 41
0.000000
 42
0.000000
  0
VERTEX
  8
PIN_BOTTOM
 10
13.920000
 20
8.955100
 40
0.000000
 41
0.000000
 42
0.000000
  0
VERTEX
  8
PIN_BOTTOM
 10
13.920000
 20
8.193100
 40
0.000000
 41
0.000000
 42
0.000000
  0
VERTEX
  8
PIN_BOTTOM
 10
14.529600
 20
8.193100
 40
0.000000
 41
0.000000
 42
0.000000
  0
SEQEND
  0
POLYLINE
  8
PIN_BOTTOM
 66
1
 70
1
 40
0.000000
 41
0.000000
 39
0.000000
  0
VERTEX
  8
PIN_BOTTOM
 10
14.529600
 20
7.855100
 40
0.000000
 41
0.000000
 42
0.000000
  0
VERTEX
  8
PIN_BOTTOM
 10
13.920000
 20
7.855100
 40
0.000000
 41
0.000000
 42
0.000000
  0
VERTEX
  8
PIN_BOTTOM
 10
13.920000
 20
7.093100
 40
0.000000
 41
0.000000
 42
0.000000
  0
VERTEX
  8
PIN_BOTTOM
 10
14.529600
 20
7.093100
 40
0.000000
 41
0.000000
 42
0.000000
  0
SEQEND
  0
POLYLINE
  8
PG_SILKSCREEN_BOTTOM
 66
1
 70
0
 40
0.000000
 41
0.000000
 39
0.000000
  0
VERTEX
  8
PG_SILKSCREEN_BOTTOM
 10
13.793000
 20
7.490700
 40
0.150000
 41
0.150000
 42
0.000000
  0
VERTEX
  8
PG_SILKSCREEN_BOTTOM
 10
13.793000
 20
6.957300
 40
0.150000
 41
0.150000
 42
0.000000
  0
VERTEX
  8
PG_SILKSCREEN_BOTTOM
 10
14.656600
 20
6.957300
 40
0.150000
 41
0.150000
 42
0.000000
  0
VERTEX
  8
PG_SILKSCREEN_BOTTOM
 10
14.656600
 20
7.490700
 40
0.150000
 41
0.150000
 42
0.000000
  0
SEQEND
  0
POLYLINE
  8
PG_SILKSCREEN_BOTTOM
 66
1
 70
0
 40
0.000000
 41
0.000000
 39
0.000000
  0
VERTEX
  8
PG_SILKSCREEN_BOTTOM
 10
13.793000
 20
8.506700
 40
0.150000
 41
0.150000
 42
0.000000
  0
VERTEX
  8
PG_SILKSCREEN_BOTTOM
 10
13.793000
 20
9.090900
 40
0.150000
 41
0.150000
 42
0.000000
  0
VERTEX
  8
PG_SILKSCREEN_BOTTOM
 10
14.656600
 20
9.090900
 40
0.150000
 41
0.150000
 42
0.000000
  0
VERTEX
  8
PG_SILKSCREEN_BOTTOM
 10
14.656600
 20
8.557500
 40
0.150000
 41
0.150000
 42
0.000000
  0
SEQEND
  0
TEXT
  8
RD_SILKSCREEN_BOTTOM
 10
14.753600
 20
6.850000
 11
0.000000
 21
0.000000
 40
0.787400
 41
0.907036
 50
90.000000
  7
STANDARD
 71
2
 72
0
  1
C28
 73
0
  0
POLYLINE
  8
PIN_BOTTOM
 66
1
 70
1
 40
0.000000
 41
0.000000
 39
0.000000
  0
VERTEX
  8
PIN_BOTTOM
 10
12.256600
 20
14.322000
 40
0.000000
 41
0.000000
 42
0.000000
  0
VERTEX
  8
PIN_BOTTOM
 10
12.256600
 20
13.712400
 40
0.000000
 41
0.000000
 42
0.000000
  0
VERTEX
  8
PIN_BOTTOM
 10
13.018600
 20
13.712400
 40
0.000000
 41
0.000000
 42
0.000000
  0
VERTEX
  8
PIN_BOTTOM
 10
13.018600
 20
14.322000
 40
0.000000
 41
0.000000
 42
0.000000
  0
SEQEND
  0
POLYLINE
  8
PIN_BOTTOM
 66
1
 70
1
 40
0.000000
 41
0.000000
 39
0.000000
  0
VERTEX
  8
PIN_BOTTOM
 10
13.356600
 20
14.322000
 40
0.000000
 41
0.000000
 42
0.000000
  0
VERTEX
  8
PIN_BOTTOM
 10
13.356600
 20
13.712400
 40
0.000000
 41
0.000000
 42
0.000000
  0
VERTEX
  8
PIN_BOTTOM
 10
14.118600
 20
13.712400
 40
0.000000
 41
0.000000
 42
0.000000
  0
VERTEX
  8
PIN_BOTTOM
 10
14.118600
 20
14.322000
 40
0.000000
 41
0.000000
 42
0.000000
  0
SEQEND
  0
POLYLINE
  8
PG_SILKSCREEN_BOTTOM
 66
1
 70
0
 40
0.000000
 41
0.000000
 39
0.000000
  0
VERTEX
  8
PG_SILKSCREEN_BOTTOM
 10
13.721000
 20
13.585400
 40
0.150000
 41
0.150000
 42
0.000000
  0
VERTEX
  8
PG_SILKSCREEN_BOTTOM
 10
14.254400
 20
13.585400
 40
0.150000
 41
0.150000
 42
0.000000
  0
VERTEX
  8
PG_SILKSCREEN_BOTTOM
 10
14.254400
 20
14.449000
 40
0.150000
 41
0.150000
 42
0.000000
  0
VERTEX
  8
PG_SILKSCREEN_BOTTOM
 10
13.721000
 20
14.449000
 40
0.150000
 41
0.150000
 42
0.000000
  0
SEQEND
  0
POLYLINE
  8
PG_SILKSCREEN_BOTTOM
 66
1
 70
0
 40
0.000000
 41
0.000000
 39
0.000000
  0
VERTEX
  8
PG_SILKSCREEN_BOTTOM
 10
12.705000
 20
13.585400
 40
0.150000
 41
0.150000
 42
0.000000
  0
VERTEX
  8
PG_SILKSCREEN_BOTTOM
 10
12.120800
 20
13.585400
 40
0.150000
 41
0.150000
 42
0.000000
  0
VERTEX
  8
PG_SILKSCREEN_BOTTOM
 10
12.120800
 20
14.449000
 40
0.150000
 41
0.150000
 42
0.000000
  0
VERTEX
  8
PG_SILKSCREEN_BOTTOM
 10
12.654200
 20
14.449000
 40
0.150000
 41
0.150000
 42
0.000000
  0
SEQEND
  0
TEXT
  8
RD_SILKSCREEN_BOTTOM
 10
13.329200
 20
14.760000
 11
0.000000
 21
0.000000
 40
0.787400
 41
0.907036
 50
0.000000
  7
STANDARD
 71
2
 72
0
  1
C26
 73
0
  0
POLYLINE
  8
PIN_BOTTOM
 66
1
 70
1
 40
0.000000
 41
0.000000
 39
0.000000
  0
VERTEX
  8
PIN_BOTTOM
 10
-9.390500
 20
18.983800
 40
0.000000
 41
0.000000
 42
0.000000
  0
VERTEX
  8
PIN_BOTTOM
 10
-8.780900
 20
18.983800
 40
0.000000
 41
0.000000
 42
0.000000
  0
VERTEX
  8
PIN_BOTTOM
 10
-8.780900
 20
19.745800
 40
0.000000
 41
0.000000
 42
0.000000
  0
VERTEX
  8
PIN_BOTTOM
 10
-9.390500
 20
19.745800
 40
0.000000
 41
0.000000
 42
0.000000
  0
SEQEND
  0
POLYLINE
  8
PIN_BOTTOM
 66
1
 70
1
 40
0.000000
 41
0.000000
 39
0.000000
  0
VERTEX
  8
PIN_BOTTOM
 10
-9.390500
 20
20.083800
 40
0.000000
 41
0.000000
 42
0.000000
  0
VERTEX
  8
PIN_BOTTOM
 10
-8.780900
 20
20.083800
 40
0.000000
 41
0.000000
 42
0.000000
  0
VERTEX
  8
PIN_BOTTOM
 10
-8.780900
 20
20.845800
 40
0.000000
 41
0.000000
 42
0.000000
  0
VERTEX
  8
PIN_BOTTOM
 10
-9.390500
 20
20.845800
 40
0.000000
 41
0.000000
 42
0.000000
  0
SEQEND
  0
POLYLINE
  8
PG_SILKSCREEN_BOTTOM
 66
1
 70
0
 40
0.000000
 41
0.000000
 39
0.000000
  0
VERTEX
  8
PG_SILKSCREEN_BOTTOM
 10
-8.653900
 20
20.448200
 40
0.150000
 41
0.150000
 42
0.000000
  0
VERTEX
  8
PG_SILKSCREEN_BOTTOM
 10
-8.653900
 20
20.981600
 40
0.150000
 41
0.150000
 42
0.000000
  0
VERTEX
  8
PG_SILKSCREEN_BOTTOM
 10
-9.517500
 20
20.981600
 40
0.150000
 41
0.150000
 42
0.000000
  0
VERTEX
  8
PG_SILKSCREEN_BOTTOM
 10
-9.517500
 20
20.448200
 40
0.150000
 41
0.150000
 42
0.000000
  0
SEQEND
  0
POLYLINE
  8
PG_SILKSCREEN_BOTTOM
 66
1
 70
0
 40
0.000000
 41
0.000000
 39
0.000000
  0
VERTEX
  8
PG_SILKSCREEN_BOTTOM
 10
-8.653900
 20
19.432200
 40
0.150000
 41
0.150000
 42
0.000000
  0
VERTEX
  8
PG_SILKSCREEN_BOTTOM
 10
-8.653900
 20
18.848000
 40
0.150000
 41
0.150000
 42
0.000000
  0
VERTEX
  8
PG_SILKSCREEN_BOTTOM
 10
-9.517500
 20
18.848000
 40
0.150000
 41
0.150000
 42
0.000000
  0
VERTEX
  8
PG_SILKSCREEN_BOTTOM
 10
-9.517500
 20
19.381400
 40
0.150000
 41
0.150000
 42
0.000000
  0
SEQEND
  0
TEXT
  8
RD_SILKSCREEN_BOTTOM
 10
-7.622100
 20
20.805200
 11
0.000000
 21
0.000000
 40
0.787400
 41
0.907036
 50
90.000000
  7
STANDARD
 71
2
 72
0
  1
C16
 73
0
  0
POLYLINE
  8
PIN_BOTTOM
 66
1
 70
1
 40
0.000000
 41
0.000000
 39
0.000000
  0
VERTEX
  8
PIN_BOTTOM
 10
6.551800
 20
-12.181000
 40
0.000000
 41
0.000000
 42
0.000000
  0
VERTEX
  8
PIN_BOTTOM
 10
5.942200
 20
-12.181000
 40
0.000000
 41
0.000000
 42
0.000000
  0
VERTEX
  8
PIN_BOTTOM
 10
5.942200
 20
-12.943000
 40
0.000000
 41
0.000000
 42
0.000000
  0
VERTEX
  8
PIN_BOTTOM
 10
6.551800
 20
-12.943000
 40
0.000000
 41
0.000000
 42
0.000000
  0
SEQEND
  0
POLYLINE
  8
PIN_BOTTOM
 66
1
 70
1
 40
0.000000
 41
0.000000
 39
0.000000
  0
VERTEX
  8
PIN_BOTTOM
 10
6.551800
 20
-13.281000
 40
0.000000
 41
0.000000
 42
0.000000
  0
VERTEX
  8
PIN_BOTTOM
 10
5.942200
 20
-13.281000
 40
0.000000
 41
0.000000
 42
0.000000
  0
VERTEX
  8
PIN_BOTTOM
 10
5.942200
 20
-14.043000
 40
0.000000
 41
0.000000
 42
0.000000
  0
VERTEX
  8
PIN_BOTTOM
 10
6.551800
 20
-14.043000
 40
0.000000
 41
0.000000
 42
0.000000
  0
SEQEND
  0
POLYLINE
  8
PG_SILKSCREEN_BOTTOM
 66
1
 70
0
 40
0.000000
 41
0.000000
 39
0.000000
  0
VERTEX
  8
PG_SILKSCREEN_BOTTOM
 10
5.815200
 20
-13.645400
 40
0.150000
 41
0.150000
 42
0.000000
  0
VERTEX
  8
PG_SILKSCREEN_BOTTOM
 10
5.815200
 20
-14.178800
 40
0.150000
 41
0.150000
 42
0.000000
  0
VERTEX
  8
PG_SILKSCREEN_BOTTOM
 10
6.678800
 20
-14.178800
 40
0.150000
 41
0.150000
 42
0.000000
  0
VERTEX
  8
PG_SILKSCREEN_BOTTOM
 10
6.678800
 20
-13.645400
 40
0.150000
 41
0.150000
 42
0.000000
  0
SEQEND
  0
POLYLINE
  8
PG_SILKSCREEN_BOTTOM
 66
1
 70
0
 40
0.000000
 41
0.000000
 39
0.000000
  0
VERTEX
  8
PG_SILKSCREEN_BOTTOM
 10
5.815200
 20
-12.629400
 40
0.150000
 41
0.150000
 42
0.000000
  0
VERTEX
  8
PG_SILKSCREEN_BOTTOM
 10
5.815200
 20
-12.045200
 40
0.150000
 41
0.150000
 42
0.000000
  0
VERTEX
  8
PG_SILKSCREEN_BOTTOM
 10
6.678800
 20
-12.045200
 40
0.150000
 41
0.150000
 42
0.000000
  0
VERTEX
  8
PG_SILKSCREEN_BOTTOM
 10
6.678800
 20
-12.578600
 40
0.150000
 41
0.150000
 42
0.000000
  0
SEQEND
  0
TEXT
  8
RD_SILKSCREEN_BOTTOM
 10
6.996700
 20
-15.662300
 11
0.000000
 21
0.000000
 40
0.787400
 41
0.907036
 50
90.000000
  7
STANDARD
 71
2
 72
0
  1
C10
 73
0
  0
POLYLINE
  8
PIN_BOTTOM
 66
1
 70
1
 40
0.000000
 41
0.000000
 39
0.000000
  0
VERTEX
  8
PIN_BOTTOM
 10
11.320800
 20
-4.772000
 40
0.000000
 41
0.000000
 42
0.000000
  0
VERTEX
  8
PIN_BOTTOM
 10
10.711200
 20
-4.772000
 40
0.000000
 41
0.000000
 42
0.000000
  0
VERTEX
  8
PIN_BOTTOM
 10
10.711200
 20
-5.534000
 40
0.000000
 41
0.000000
 42
0.000000
  0
VERTEX
  8
PIN_BOTTOM
 10
11.320800
 20
-5.534000
 40
0.000000
 41
0.000000
 42
0.000000
  0
SEQEND
  0
POLYLINE
  8
PIN_BOTTOM
 66
1
 70
1
 40
0.000000
 41
0.000000
 39
0.000000
  0
VERTEX
  8
PIN_BOTTOM
 10
11.320800
 20
-5.872000
 40
0.000000
 41
0.000000
 42
0.000000
  0
VERTEX
  8
PIN_BOTTOM
 10
10.711200
 20
-5.872000
 40
0.000000
 41
0.000000
 42
0.000000
  0
VERTEX
  8
PIN_BOTTOM
 10
10.711200
 20
-6.634000
 40
0.000000
 41
0.000000
 42
0.000000
  0
VERTEX
  8
PIN_BOTTOM
 10
11.320800
 20
-6.634000
 40
0.000000
 41
0.000000
 42
0.000000
  0
SEQEND
  0
POLYLINE
  8
PG_SILKSCREEN_BOTTOM
 66
1
 70
0
 40
0.000000
 41
0.000000
 39
0.000000
  0
VERTEX
  8
PG_SILKSCREEN_BOTTOM
 10
10.584200
 20
-6.236400
 40
0.150000
 41
0.150000
 42
0.000000
  0
VERTEX
  8
PG_SILKSCREEN_BOTTOM
 10
10.584200
 20
-6.769800
 40
0.150000
 41
0.150000
 42
0.000000
  0
VERTEX
  8
PG_SILKSCREEN_BOTTOM
 10
11.447800
 20
-6.769800
 40
0.150000
 41
0.150000
 42
0.000000
  0
VERTEX
  8
PG_SILKSCREEN_BOTTOM
 10
11.447800
 20
-6.236400
 40
0.150000
 41
0.150000
 42
0.000000
  0
SEQEND
  0
POLYLINE
  8
PG_SILKSCREEN_BOTTOM
 66
1
 70
0
 40
0.000000
 41
0.000000
 39
0.000000
  0
VERTEX
  8
PG_SILKSCREEN_BOTTOM
 10
10.584200
 20
-5.220400
 40
0.150000
 41
0.150000
 42
0.000000
  0
VERTEX
  8
PG_SILKSCREEN_BOTTOM
 10
10.584200
 20
-4.636200
 40
0.150000
 41
0.150000
 42
0.000000
  0
VERTEX
  8
PG_SILKSCREEN_BOTTOM
 10
11.447800
 20
-4.636200
 40
0.150000
 41
0.150000
 42
0.000000
  0
VERTEX
  8
PG_SILKSCREEN_BOTTOM
 10
11.447800
 20
-5.169600
 40
0.150000
 41
0.150000
 42
0.000000
  0
SEQEND
  0
TEXT
  8
RD_SILKSCREEN_BOTTOM
 10
10.231700
 20
-4.174900
 11
0.000000
 21
0.000000
 40
0.787400
 41
0.907036
 50
90.000000
  7
STANDARD
 71
2
 72
0
  1
C9
 73
0
  0
POLYLINE
  8
PIN_BOTTOM
 66
1
 70
1
 40
0.000000
 41
0.000000
 39
0.000000
  0
VERTEX
  8
PIN_BOTTOM
 10
4.525900
 20
0.379500
 40
0.000000
 41
0.000000
 42
0.000000
  0
VERTEX
  8
PIN_BOTTOM
 10
3.916300
 20
0.379500
 40
0.000000
 41
0.000000
 42
0.000000
  0
VERTEX
  8
PIN_BOTTOM
 10
3.916300
 20
-0.382500
 40
0.000000
 41
0.000000
 42
0.000000
  0
VERTEX
  8
PIN_BOTTOM
 10
4.525900
 20
-0.382500
 40
0.000000
 41
0.000000
 42
0.000000
  0
SEQEND
  0
POLYLINE
  8
PIN_BOTTOM
 66
1
 70
1
 40
0.000000
 41
0.000000
 39
0.000000
  0
VERTEX
  8
PIN_BOTTOM
 10
4.525900
 20
-0.720500
 40
0.000000
 41
0.000000
 42
0.000000
  0
VERTEX
  8
PIN_BOTTOM
 10
3.916300
 20
-0.720500
 40
0.000000
 41
0.000000
 42
0.000000
  0
VERTEX
  8
PIN_BOTTOM
 10
3.916300
 20
-1.482500
 40
0.000000
 41
0.000000
 42
0.000000
  0
VERTEX
  8
PIN_BOTTOM
 10
4.525900
 20
-1.482500
 40
0.000000
 41
0.000000
 42
0.000000
  0
SEQEND
  0
POLYLINE
  8
PG_SILKSCREEN_BOTTOM
 66
1
 70
0
 40
0.000000
 41
0.000000
 39
0.000000
  0
VERTEX
  8
PG_SILKSCREEN_BOTTOM
 10
3.789300
 20
-1.084900
 40
0.150000
 41
0.150000
 42
0.000000
  0
VERTEX
  8
PG_SILKSCREEN_BOTTOM
 10
3.789300
 20
-1.618300
 40
0.150000
 41
0.150000
 42
0.000000
  0
VERTEX
  8
PG_SILKSCREEN_BOTTOM
 10
4.652900
 20
-1.618300
 40
0.150000
 41
0.150000
 42
0.000000
  0
VERTEX
  8
PG_SILKSCREEN_BOTTOM
 10
4.652900
 20
-1.084900
 40
0.150000
 41
0.150000
 42
0.000000
  0
SEQEND
  0
POLYLINE
  8
PG_SILKSCREEN_BOTTOM
 66
1
 70
0
 40
0.000000
 41
0.000000
 39
0.000000
  0
VERTEX
  8
PG_SILKSCREEN_BOTTOM
 10
3.789300
 20
-0.068900
 40
0.150000
 41
0.150000
 42
0.000000
  0
VERTEX
  8
PG_SILKSCREEN_BOTTOM
 10
3.789300
 20
0.515300
 40
0.150000
 41
0.150000
 42
0.000000
  0
VERTEX
  8
PG_SILKSCREEN_BOTTOM
 10
4.652900
 20
0.515300
 40
0.150000
 41
0.150000
 42
0.000000
  0
VERTEX
  8
PG_SILKSCREEN_BOTTOM
 10
4.652900
 20
-0.018100
 40
0.150000
 41
0.150000
 42
0.000000
  0
SEQEND
  0
TEXT
  8
RD_SILKSCREEN_BOTTOM
 10
6.966900
 20
0.173300
 11
0.000000
 21
0.000000
 40
0.787400
 41
0.907036
 50
90.000000
  7
STANDARD
 71
2
 72
0
  1
C7
 73
0
  0
POLYLINE
  8
PIN_BOTTOM
 66
1
 70
1
 40
0.000000
 41
0.000000
 39
0.000000
  0
VERTEX
  8
PIN_BOTTOM
 10
3.962500
 20
1.863700
 40
0.000000
 41
0.000000
 42
0.000000
  0
VERTEX
  8
PIN_BOTTOM
 10
3.962500
 20
1.254100
 40
0.000000
 41
0.000000
 42
0.000000
  0
VERTEX
  8
PIN_BOTTOM
 10
4.724500
 20
1.254100
 40
0.000000
 41
0.000000
 42
0.000000
  0
VERTEX
  8
PIN_BOTTOM
 10
4.724500
 20
1.863700
 40
0.000000
 41
0.000000
 42
0.000000
  0
SEQEND
  0
POLYLINE
  8
PIN_BOTTOM
 66
1
 70
1
 40
0.000000
 41
0.000000
 39
0.000000
  0
VERTEX
  8
PIN_BOTTOM
 10
5.062500
 20
1.863700
 40
0.000000
 41
0.000000
 42
0.000000
  0
VERTEX
  8
PIN_BOTTOM
 10
5.062500
 20
1.254100
 40
0.000000
 41
0.000000
 42
0.000000
  0
VERTEX
  8
PIN_BOTTOM
 10
5.824500
 20
1.254100
 40
0.000000
 41
0.000000
 42
0.000000
  0
VERTEX
  8
PIN_BOTTOM
 10
5.824500
 20
1.863700
 40
0.000000
 41
0.000000
 42
0.000000
  0
SEQEND
  0
POLYLINE
  8
PG_SILKSCREEN_BOTTOM
 66
1
 70
0
 40
0.000000
 41
0.000000
 39
0.000000
  0
VERTEX
  8
PG_SILKSCREEN_BOTTOM
 10
5.426900
 20
1.127100
 40
0.150000
 41
0.150000
 42
0.000000
  0
VERTEX
  8
PG_SILKSCREEN_BOTTOM
 10
5.960300
 20
1.127100
 40
0.150000
 41
0.150000
 42
0.000000
  0
VERTEX
  8
PG_SILKSCREEN_BOTTOM
 10
5.960300
 20
1.990700
 40
0.150000
 41
0.150000
 42
0.000000
  0
VERTEX
  8
PG_SILKSCREEN_BOTTOM
 10
5.426900
 20
1.990700
 40
0.150000
 41
0.150000
 42
0.000000
  0
SEQEND
  0
POLYLINE
  8
PG_SILKSCREEN_BOTTOM
 66
1
 70
0
 40
0.000000
 41
0.000000
 39
0.000000
  0
VERTEX
  8
PG_SILKSCREEN_BOTTOM
 10
4.410900
 20
1.127100
 40
0.150000
 41
0.150000
 42
0.000000
  0
VERTEX
  8
PG_SILKSCREEN_BOTTOM
 10
3.826700
 20
1.127100
 40
0.150000
 41
0.150000
 42
0.000000
  0
VERTEX
  8
PG_SILKSCREEN_BOTTOM
 10
3.826700
 20
1.990700
 40
0.150000
 41
0.150000
 42
0.000000
  0
VERTEX
  8
PG_SILKSCREEN_BOTTOM
 10
4.360100
 20
1.990700
 40
0.150000
 41
0.150000
 42
0.000000
  0
SEQEND
  0
TEXT
  8
RD_SILKSCREEN_BOTTOM
 10
8.032600
 20
1.289900
 11
0.000000
 21
0.000000
 40
0.787400
 41
0.907036
 50
0.000000
  7
STANDARD
 71
2
 72
0
  1
C4
 73
0
  0
POLYLINE
  8
PIN_BOTTOM
 66
1
 70
1
 40
0.000000
 41
0.000000
 39
0.000000
  0
VERTEX
  8
PIN_BOTTOM
 10
3.668500
 20
16.348000
 40
0.000000
 41
0.000000
 42
0.000000
  0
VERTEX
  8
PIN_BOTTOM
 10
4.278100
 20
16.348000
 40
0.000000
 41
0.000000
 42
0.000000
  0
VERTEX
  8
PIN_BOTTOM
 10
4.278100
 20
17.110000
 40
0.000000
 41
0.000000
 42
0.000000
  0
VERTEX
  8
PIN_BOTTOM
 10
3.668500
 20
17.110000
 40
0.000000
 41
0.000000
 42
0.000000
  0
SEQEND
  0
POLYLINE
  8
PIN_BOTTOM
 66
1
 70
1
 40
0.000000
 41
0.000000
 39
0.000000
  0
VERTEX
  8
PIN_BOTTOM
 10
3.668500
 20
17.448000
 40
0.000000
 41
0.000000
 42
0.000000
  0
VERTEX
  8
PIN_BOTTOM
 10
4.278100
 20
17.448000
 40
0.000000
 41
0.000000
 42
0.000000
  0
VERTEX
  8
PIN_BOTTOM
 10
4.278100
 20
18.210000
 40
0.000000
 41
0.000000
 42
0.000000
  0
VERTEX
  8
PIN_BOTTOM
 10
3.668500
 20
18.210000
 40
0.000000
 41
0.000000
 42
0.000000
  0
SEQEND
  0
POLYLINE
  8
PG_SILKSCREEN_BOTTOM
 66
1
 70
0
 40
0.000000
 41
0.000000
 39
0.000000
  0
VERTEX
  8
PG_SILKSCREEN_BOTTOM
 10
4.405100
 20
17.812400
 40
0.150000
 41
0.150000
 42
0.000000
  0
VERTEX
  8
PG_SILKSCREEN_BOTTOM
 10
4.405100
 20
18.345800
 40
0.150000
 41
0.150000
 42
0.000000
  0
VERTEX
  8
PG_SILKSCREEN_BOTTOM
 10
3.541500
 20
18.345800
 40
0.150000
 41
0.150000
 42
0.000000
  0
VERTEX
  8
PG_SILKSCREEN_BOTTOM
 10
3.541500
 20
17.812400
 40
0.150000
 41
0.150000
 42
0.000000
  0
SEQEND
  0
POLYLINE
  8
PG_SILKSCREEN_BOTTOM
 66
1
 70
0
 40
0.000000
 41
0.000000
 39
0.000000
  0
VERTEX
  8
PG_SILKSCREEN_BOTTOM
 10
4.405100
 20
16.796400
 40
0.150000
 41
0.150000
 42
0.000000
  0
VERTEX
  8
PG_SILKSCREEN_BOTTOM
 10
4.405100
 20
16.212200
 40
0.150000
 41
0.150000
 42
0.000000
  0
VERTEX
  8
PG_SILKSCREEN_BOTTOM
 10
3.541500
 20
16.212200
 40
0.150000
 41
0.150000
 42
0.000000
  0
VERTEX
  8
PG_SILKSCREEN_BOTTOM
 10
3.541500
 20
16.745600
 40
0.150000
 41
0.150000
 42
0.000000
  0
SEQEND
  0
TEXT
  8
RD_SILKSCREEN_BOTTOM
 10
3.183100
 20
19.193900
 11
0.000000
 21
0.000000
 40
0.787400
 41
0.907036
 50
90.000000
  7
STANDARD
 71
2
 72
0
  1
C29
 73
0
  0
POLYLINE
  8
PIN_BOTTOM
 66
1
 70
1
 40
0.000000
 41
0.000000
 39
0.000000
  0
VERTEX
  8
PIN_BOTTOM
 10
14.808800
 20
-3.980000
 40
0.000000
 41
0.000000
 42
0.000000
  0
VERTEX
  8
PIN_BOTTOM
 10
14.199200
 20
-3.980000
 40
0.000000
 41
0.000000
 42
0.000000
  0
VERTEX
  8
PIN_BOTTOM
 10
14.199200
 20
-4.742000
 40
0.000000
 41
0.000000
 42
0.000000
  0
VERTEX
  8
PIN_BOTTOM
 10
14.808800
 20
-4.742000
 40
0.000000
 41
0.000000
 42
0.000000
  0
SEQEND
  0
POLYLINE
  8
PIN_BOTTOM
 66
1
 70
1
 40
0.000000
 41
0.000000
 39
0.000000
  0
VERTEX
  8
PIN_BOTTOM
 10
14.808800
 20
-5.080000
 40
0.000000
 41
0.000000
 42
0.000000
  0
VERTEX
  8
PIN_BOTTOM
 10
14.199200
 20
-5.080000
 40
0.000000
 41
0.000000
 42
0.000000
  0
VERTEX
  8
PIN_BOTTOM
 10
14.199200
 20
-5.842000
 40
0.000000
 41
0.000000
 42
0.000000
  0
VERTEX
  8
PIN_BOTTOM
 10
14.808800
 20
-5.842000
 40
0.000000
 41
0.000000
 42
0.000000
  0
SEQEND
  0
POLYLINE
  8
PG_SILKSCREEN_BOTTOM
 66
1
 70
0
 40
0.000000
 41
0.000000
 39
0.000000
  0
VERTEX
  8
PG_SILKSCREEN_BOTTOM
 10
14.072200
 20
-5.444400
 40
0.150000
 41
0.150000
 42
0.000000
  0
VERTEX
  8
PG_SILKSCREEN_BOTTOM
 10
14.072200
 20
-5.977800
 40
0.150000
 41
0.150000
 42
0.000000
  0
VERTEX
  8
PG_SILKSCREEN_BOTTOM
 10
14.935800
 20
-5.977800
 40
0.150000
 41
0.150000
 42
0.000000
  0
VERTEX
  8
PG_SILKSCREEN_BOTTOM
 10
14.935800
 20
-5.444400
 40
0.150000
 41
0.150000
 42
0.000000
  0
SEQEND
  0
POLYLINE
  8
PG_SILKSCREEN_BOTTOM
 66
1
 70
0
 40
0.000000
 41
0.000000
 39
0.000000
  0
VERTEX
  8
PG_SILKSCREEN_BOTTOM
 10
14.072200
 20
-4.428400
 40
0.150000
 41
0.150000
 42
0.000000
  0
VERTEX
  8
PG_SILKSCREEN_BOTTOM
 10
14.072200
 20
-3.844200
 40
0.150000
 41
0.150000
 42
0.000000
  0
VERTEX
  8
PG_SILKSCREEN_BOTTOM
 10
14.935800
 20
-3.844200
 40
0.150000
 41
0.150000
 42
0.000000
  0
VERTEX
  8
PG_SILKSCREEN_BOTTOM
 10
14.935800
 20
-4.377600
 40
0.150000
 41
0.150000
 42
0.000000
  0
SEQEND
  0
TEXT
  8
RD_SILKSCREEN_BOTTOM
 10
14.059800
 20
-4.439000
 11
0.000000
 21
0.000000
 40
0.787400
 41
0.907036
 50
90.000000
  7
STANDARD
 71
2
 72
0
  1
C14
 73
0
  0
POLYLINE
  8
PIN_BOTTOM
 66
1
 70
1
 40
0.000000
 41
0.000000
 39
0.000000
  0
VERTEX
  8
PIN_BOTTOM
 10
13.162800
 20
-3.980000
 40
0.000000
 41
0.000000
 42
0.000000
  0
VERTEX
  8
PIN_BOTTOM
 10
12.553200
 20
-3.980000
 40
0.000000
 41
0.000000
 42
0.000000
  0
VERTEX
  8
PIN_BOTTOM
 10
12.553200
 20
-4.742000
 40
0.000000
 41
0.000000
 42
0.000000
  0
VERTEX
  8
PIN_BOTTOM
 10
13.162800
 20
-4.742000
 40
0.000000
 41
0.000000
 42
0.000000
  0
SEQEND
  0
POLYLINE
  8
PIN_BOTTOM
 66
1
 70
1
 40
0.000000
 41
0.000000
 39
0.000000
  0
VERTEX
  8
PIN_BOTTOM
 10
13.162800
 20
-5.080000
 40
0.000000
 41
0.000000
 42
0.000000
  0
VERTEX
  8
PIN_BOTTOM
 10
12.553200
 20
-5.080000
 40
0.000000
 41
0.000000
 42
0.000000
  0
VERTEX
  8
PIN_BOTTOM
 10
12.553200
 20
-5.842000
 40
0.000000
 41
0.000000
 42
0.000000
  0
VERTEX
  8
PIN_BOTTOM
 10
13.162800
 20
-5.842000
 40
0.000000
 41
0.000000
 42
0.000000
  0
SEQEND
  0
POLYLINE
  8
PG_SILKSCREEN_BOTTOM
 66
1
 70
0
 40
0.000000
 41
0.000000
 39
0.000000
  0
VERTEX
  8
PG_SILKSCREEN_BOTTOM
 10
12.426200
 20
-5.444400
 40
0.150000
 41
0.150000
 42
0.000000
  0
VERTEX
  8
PG_SILKSCREEN_BOTTOM
 10
12.426200
 20
-5.977800
 40
0.150000
 41
0.150000
 42
0.000000
  0
VERTEX
  8
PG_SILKSCREEN_BOTTOM
 10
13.289800
 20
-5.977800
 40
0.150000
 41
0.150000
 42
0.000000
  0
VERTEX
  8
PG_SILKSCREEN_BOTTOM
 10
13.289800
 20
-5.444400
 40
0.150000
 41
0.150000
 42
0.000000
  0
SEQEND
  0
POLYLINE
  8
PG_SILKSCREEN_BOTTOM
 66
1
 70
0
 40
0.000000
 41
0.000000
 39
0.000000
  0
VERTEX
  8
PG_SILKSCREEN_BOTTOM
 10
12.426200
 20
-4.428400
 40
0.150000
 41
0.150000
 42
0.000000
  0
VERTEX
  8
PG_SILKSCREEN_BOTTOM
 10
12.426200
 20
-3.844200
 40
0.150000
 41
0.150000
 42
0.000000
  0
VERTEX
  8
PG_SILKSCREEN_BOTTOM
 10
13.289800
 20
-3.844200
 40
0.150000
 41
0.150000
 42
0.000000
  0
VERTEX
  8
PG_SILKSCREEN_BOTTOM
 10
13.289800
 20
-4.377600
 40
0.150000
 41
0.150000
 42
0.000000
  0
SEQEND
  0
TEXT
  8
RD_SILKSCREEN_BOTTOM
 10
12.311900
 20
-4.800100
 11
0.000000
 21
0.000000
 40
0.787400
 41
0.907036
 50
90.000000
  7
STANDARD
 71
2
 72
0
  1
C13
 73
0
  0
POLYLINE
  8
PIN_BOTTOM
 66
1
 70
1
 40
0.000000
 41
0.000000
 39
0.000000
  0
VERTEX
  8
PIN_BOTTOM
 10
1.870200
 20
-6.184800
 40
0.000000
 41
0.000000
 42
0.000000
  0
VERTEX
  8
PIN_BOTTOM
 10
2.479800
 20
-6.184800
 40
0.000000
 41
0.000000
 42
0.000000
  0
VERTEX
  8
PIN_BOTTOM
 10
2.479800
 20
-5.422800
 40
0.000000
 41
0.000000
 42
0.000000
  0
VERTEX
  8
PIN_BOTTOM
 10
1.870200
 20
-5.422800
 40
0.000000
 41
0.000000
 42
0.000000
  0
SEQEND
  0
POLYLINE
  8
PIN_BOTTOM
 66
1
 70
1
 40
0.000000
 41
0.000000
 39
0.000000
  0
VERTEX
  8
PIN_BOTTOM
 10
1.870200
 20
-5.084800
 40
0.000000
 41
0.000000
 42
0.000000
  0
VERTEX
  8
PIN_BOTTOM
 10
2.479800
 20
-5.084800
 40
0.000000
 41
0.000000
 42
0.000000
  0
VERTEX
  8
PIN_BOTTOM
 10
2.479800
 20
-4.322800
 40
0.000000
 41
0.000000
 42
0.000000
  0
VERTEX
  8
PIN_BOTTOM
 10
1.870200
 20
-4.322800
 40
0.000000
 41
0.000000
 42
0.000000
  0
SEQEND
  0
POLYLINE
  8
PG_SILKSCREEN_BOTTOM
 66
1
 70
0
 40
0.000000
 41
0.000000
 39
0.000000
  0
VERTEX
  8
PG_SILKSCREEN_BOTTOM
 10
2.606800
 20
-5.812600
 40
0.150000
 41
0.150000
 42
0.000000
  0
VERTEX
  8
PG_SILKSCREEN_BOTTOM
 10
2.606800
 20
-6.320600
 40
0.150000
 41
0.150000
 42
0.000000
  0
VERTEX
  8
PG_SILKSCREEN_BOTTOM
 10
1.743200
 20
-6.320600
 40
0.150000
 41
0.150000
 42
0.000000
  0
VERTEX
  8
PG_SILKSCREEN_BOTTOM
 10
1.743200
 20
-5.863400
 40
0.150000
 41
0.150000
 42
0.000000
  0
SEQEND
  0
POLYLINE
  8
PG_SILKSCREEN_BOTTOM
 66
1
 70
0
 40
0.000000
 41
0.000000
 39
0.000000
  0
VERTEX
  8
PG_SILKSCREEN_BOTTOM
 10
2.606800
 20
-4.669600
 40
0.150000
 41
0.150000
 42
0.000000
  0
VERTEX
  8
PG_SILKSCREEN_BOTTOM
 10
2.606800
 20
-4.187000
 40
0.150000
 41
0.150000
 42
0.000000
  0
VERTEX
  8
PG_SILKSCREEN_BOTTOM
 10
1.743200
 20
-4.187000
 40
0.150000
 41
0.150000
 42
0.000000
  0
VERTEX
  8
PG_SILKSCREEN_BOTTOM
 10
1.743200
 20
-4.695000
 40
0.150000
 41
0.150000
 42
0.000000
  0
SEQEND
  0
TEXT
  8
RD_SILKSCREEN_BOTTOM
 10
6.559500
 20
-4.440200
 11
0.000000
 21
0.000000
 40
0.787400
 41
0.907036
 50
90.000000
  7
STANDARD
 71
2
 72
0
  1
R41
 73
0
  0
POLYLINE
  8
PIN_BOTTOM
 66
1
 70
1
 40
0.000000
 41
0.000000
 39
0.000000
  0
VERTEX
  8
PIN_BOTTOM
 10
-2.337900
 20
-4.301100
 40
0.000000
 41
0.000000
 42
0.000000
  0
VERTEX
  8
PIN_BOTTOM
 10
-2.947500
 20
-4.301100
 40
0.000000
 41
0.000000
 42
0.000000
  0
VERTEX
  8
PIN_BOTTOM
 10
-2.947500
 20
-5.063100
 40
0.000000
 41
0.000000
 42
0.000000
  0
VERTEX
  8
PIN_BOTTOM
 10
-2.337900
 20
-5.063100
 40
0.000000
 41
0.000000
 42
0.000000
  0
SEQEND
  0
POLYLINE
  8
PIN_BOTTOM
 66
1
 70
1
 40
0.000000
 41
0.000000
 39
0.000000
  0
VERTEX
  8
PIN_BOTTOM
 10
-2.337900
 20
-5.401100
 40
0.000000
 41
0.000000
 42
0.000000
  0
VERTEX
  8
PIN_BOTTOM
 10
-2.947500
 20
-5.401100
 40
0.000000
 41
0.000000
 42
0.000000
  0
VERTEX
  8
PIN_BOTTOM
 10
-2.947500
 20
-6.163100
 40
0.000000
 41
0.000000
 42
0.000000
  0
VERTEX
  8
PIN_BOTTOM
 10
-2.337900
 20
-6.163100
 40
0.000000
 41
0.000000
 42
0.000000
  0
SEQEND
  0
POLYLINE
  8
PG_SILKSCREEN_BOTTOM
 66
1
 70
0
 40
0.000000
 41
0.000000
 39
0.000000
  0
VERTEX
  8
PG_SILKSCREEN_BOTTOM
 10
-3.074500
 20
-4.673300
 40
0.150000
 41
0.150000
 42
0.000000
  0
VERTEX
  8
PG_SILKSCREEN_BOTTOM
 10
-3.074500
 20
-4.165300
 40
0.150000
 41
0.150000
 42
0.000000
  0
VERTEX
  8
PG_SILKSCREEN_BOTTOM
 10
-2.210900
 20
-4.165300
 40
0.150000
 41
0.150000
 42
0.000000
  0
VERTEX
  8
PG_SILKSCREEN_BOTTOM
 10
-2.210900
 20
-4.622500
 40
0.150000
 41
0.150000
 42
0.000000
  0
SEQEND
  0
POLYLINE
  8
PG_SILKSCREEN_BOTTOM
 66
1
 70
0
 40
0.000000
 41
0.000000
 39
0.000000
  0
VERTEX
  8
PG_SILKSCREEN_BOTTOM
 10
-3.074500
 20
-5.816300
 40
0.150000
 41
0.150000
 42
0.000000
  0
VERTEX
  8
PG_SILKSCREEN_BOTTOM
 10
-3.074500
 20
-6.298900
 40
0.150000
 41
0.150000
 42
0.000000
  0
VERTEX
  8
PG_SILKSCREEN_BOTTOM
 10
-2.210900
 20
-6.298900
 40
0.150000
 41
0.150000
 42
0.000000
  0
VERTEX
  8
PG_SILKSCREEN_BOTTOM
 10
-2.210900
 20
-5.790900
 40
0.150000
 41
0.150000
 42
0.000000
  0
SEQEND
  0
TEXT
  8
RD_SILKSCREEN_BOTTOM
 10
-5.860600
 20
-4.272600
 11
0.000000
 21
0.000000
 40
0.787400
 41
0.907036
 50
90.000000
  7
STANDARD
 71
2
 72
0
  1
R43
 73
0
  0
POLYLINE
  8
PIN_BOTTOM
 66
1
 70
1
 40
0.000000
 41
0.000000
 39
0.000000
  0
VERTEX
  8
PIN_BOTTOM
 10
1.475900
 20
-4.330000
 40
0.000000
 41
0.000000
 42
0.000000
  0
VERTEX
  8
PIN_BOTTOM
 10
0.866300
 20
-4.330000
 40
0.000000
 41
0.000000
 42
0.000000
  0
VERTEX
  8
PIN_BOTTOM
 10
0.866300
 20
-5.092000
 40
0.000000
 41
0.000000
 42
0.000000
  0
VERTEX
  8
PIN_BOTTOM
 10
1.475900
 20
-5.092000
 40
0.000000
 41
0.000000
 42
0.000000
  0
SEQEND
  0
POLYLINE
  8
PIN_BOTTOM
 66
1
 70
1
 40
0.000000
 41
0.000000
 39
0.000000
  0
VERTEX
  8
PIN_BOTTOM
 10
1.475900
 20
-5.430000
 40
0.000000
 41
0.000000
 42
0.000000
  0
VERTEX
  8
PIN_BOTTOM
 10
0.866300
 20
-5.430000
 40
0.000000
 41
0.000000
 42
0.000000
  0
VERTEX
  8
PIN_BOTTOM
 10
0.866300
 20
-6.192000
 40
0.000000
 41
0.000000
 42
0.000000
  0
VERTEX
  8
PIN_BOTTOM
 10
1.475900
 20
-6.192000
 40
0.000000
 41
0.000000
 42
0.000000
  0
SEQEND
  0
POLYLINE
  8
PG_SILKSCREEN_BOTTOM
 66
1
 70
0
 40
0.000000
 41
0.000000
 39
0.000000
  0
VERTEX
  8
PG_SILKSCREEN_BOTTOM
 10
0.739300
 20
-4.702200
 40
0.150000
 41
0.150000
 42
0.000000
  0
VERTEX
  8
PG_SILKSCREEN_BOTTOM
 10
0.739300
 20
-4.194200
 40
0.150000
 41
0.150000
 42
0.000000
  0
VERTEX
  8
PG_SILKSCREEN_BOTTOM
 10
1.602900
 20
-4.194200
 40
0.150000
 41
0.150000
 42
0.000000
  0
VERTEX
  8
PG_SILKSCREEN_BOTTOM
 10
1.602900
 20
-4.651400
 40
0.150000
 41
0.150000
 42
0.000000
  0
SEQEND
  0
POLYLINE
  8
PG_SILKSCREEN_BOTTOM
 66
1
 70
0
 40
0.000000
 41
0.000000
 39
0.000000
  0
VERTEX
  8
PG_SILKSCREEN_BOTTOM
 10
0.739300
 20
-5.845200
 40
0.150000
 41
0.150000
 42
0.000000
  0
VERTEX
  8
PG_SILKSCREEN_BOTTOM
 10
0.739300
 20
-6.327800
 40
0.150000
 41
0.150000
 42
0.000000
  0
VERTEX
  8
PG_SILKSCREEN_BOTTOM
 10
1.602900
 20
-6.327800
 40
0.150000
 41
0.150000
 42
0.000000
  0
VERTEX
  8
PG_SILKSCREEN_BOTTOM
 10
1.602900
 20
-5.819800
 40
0.150000
 41
0.150000
 42
0.000000
  0
SEQEND
  0
TEXT
  8
RD_SILKSCREEN_BOTTOM
 10
5.334700
 20
-4.424600
 11
0.000000
 21
0.000000
 40
0.787400
 41
0.907036
 50
90.000000
  7
STANDARD
 71
2
 72
0
  1
R42
 73
0
  0
POLYLINE
  8
PIN_BOTTOM
 66
1
 70
1
 40
0.000000
 41
0.000000
 39
0.000000
  0
VERTEX
  8
PIN_BOTTOM
 10
2.895900
 20
-6.192000
 40
0.000000
 41
0.000000
 42
0.000000
  0
VERTEX
  8
PIN_BOTTOM
 10
3.505500
 20
-6.192000
 40
0.000000
 41
0.000000
 42
0.000000
  0
VERTEX
  8
PIN_BOTTOM
 10
3.505500
 20
-5.430000
 40
0.000000
 41
0.000000
 42
0.000000
  0
VERTEX
  8
PIN_BOTTOM
 10
2.895900
 20
-5.430000
 40
0.000000
 41
0.000000
 42
0.000000
  0
SEQEND
  0
POLYLINE
  8
PIN_BOTTOM
 66
1
 70
1
 40
0.000000
 41
0.000000
 39
0.000000
  0
VERTEX
  8
PIN_BOTTOM
 10
2.895900
 20
-5.092000
 40
0.000000
 41
0.000000
 42
0.000000
  0
VERTEX
  8
PIN_BOTTOM
 10
3.505500
 20
-5.092000
 40
0.000000
 41
0.000000
 42
0.000000
  0
VERTEX
  8
PIN_BOTTOM
 10
3.505500
 20
-4.330000
 40
0.000000
 41
0.000000
 42
0.000000
  0
VERTEX
  8
PIN_BOTTOM
 10
2.895900
 20
-4.330000
 40
0.000000
 41
0.000000
 42
0.000000
  0
SEQEND
  0
POLYLINE
  8
PG_SILKSCREEN_BOTTOM
 66
1
 70
0
 40
0.000000
 41
0.000000
 39
0.000000
  0
VERTEX
  8
PG_SILKSCREEN_BOTTOM
 10
3.632500
 20
-5.819800
 40
0.150000
 41
0.150000
 42
0.000000
  0
VERTEX
  8
PG_SILKSCREEN_BOTTOM
 10
3.632500
 20
-6.327800
 40
0.150000
 41
0.150000
 42
0.000000
  0
VERTEX
  8
PG_SILKSCREEN_BOTTOM
 10
2.768900
 20
-6.327800
 40
0.150000
 41
0.150000
 42
0.000000
  0
VERTEX
  8
PG_SILKSCREEN_BOTTOM
 10
2.768900
 20
-5.870600
 40
0.150000
 41
0.150000
 42
0.000000
  0
SEQEND
  0
POLYLINE
  8
PG_SILKSCREEN_BOTTOM
 66
1
 70
0
 40
0.000000
 41
0.000000
 39
0.000000
  0
VERTEX
  8
PG_SILKSCREEN_BOTTOM
 10
3.632500
 20
-4.676800
 40
0.150000
 41
0.150000
 42
0.000000
  0
VERTEX
  8
PG_SILKSCREEN_BOTTOM
 10
3.632500
 20
-4.194200
 40
0.150000
 41
0.150000
 42
0.000000
  0
VERTEX
  8
PG_SILKSCREEN_BOTTOM
 10
2.768900
 20
-4.194200
 40
0.150000
 41
0.150000
 42
0.000000
  0
VERTEX
  8
PG_SILKSCREEN_BOTTOM
 10
2.768900
 20
-4.702200
 40
0.150000
 41
0.150000
 42
0.000000
  0
SEQEND
  0
TEXT
  8
RD_SILKSCREEN_BOTTOM
 10
7.585200
 20
-4.447400
 11
0.000000
 21
0.000000
 40
0.787400
 41
0.907036
 50
90.000000
  7
STANDARD
 71
2
 72
0
  1
R40
 73
0
  0
POLYLINE
  8
PIN_BOTTOM
 66
1
 70
1
 40
0.000000
 41
0.000000
 39
0.000000
  0
VERTEX
  8
PIN_BOTTOM
 10
-5.129000
 20
-6.170300
 40
0.000000
 41
0.000000
 42
0.000000
  0
VERTEX
  8
PIN_BOTTOM
 10
-4.519400
 20
-6.170300
 40
0.000000
 41
0.000000
 42
0.000000
  0
VERTEX
  8
PIN_BOTTOM
 10
-4.519400
 20
-5.408300
 40
0.000000
 41
0.000000
 42
0.000000
  0
VERTEX
  8
PIN_BOTTOM
 10
-5.129000
 20
-5.408300
 40
0.000000
 41
0.000000
 42
0.000000
  0
SEQEND
  0
POLYLINE
  8
PIN_BOTTOM
 66
1
 70
1
 40
0.000000
 41
0.000000
 39
0.000000
  0
VERTEX
  8
PIN_BOTTOM
 10
-5.129000
 20
-5.070300
 40
0.000000
 41
0.000000
 42
0.000000
  0
VERTEX
  8
PIN_BOTTOM
 10
-4.519400
 20
-5.070300
 40
0.000000
 41
0.000000
 42
0.000000
  0
VERTEX
  8
PIN_BOTTOM
 10
-4.519400
 20
-4.308300
 40
0.000000
 41
0.000000
 42
0.000000
  0
VERTEX
  8
PIN_BOTTOM
 10
-5.129000
 20
-4.308300
 40
0.000000
 41
0.000000
 42
0.000000
  0
SEQEND
  0
POLYLINE
  8
PG_SILKSCREEN_BOTTOM
 66
1
 70
0
 40
0.000000
 41
0.000000
 39
0.000000
  0
VERTEX
  8
PG_SILKSCREEN_BOTTOM
 10
-4.392400
 20
-5.798100
 40
0.150000
 41
0.150000
 42
0.000000
  0
VERTEX
  8
PG_SILKSCREEN_BOTTOM
 10
-4.392400
 20
-6.306100
 40
0.150000
 41
0.150000
 42
0.000000
  0
VERTEX
  8
PG_SILKSCREEN_BOTTOM
 10
-5.256000
 20
-6.306100
 40
0.150000
 41
0.150000
 42
0.000000
  0
VERTEX
  8
PG_SILKSCREEN_BOTTOM
 10
-5.256000
 20
-5.848900
 40
0.150000
 41
0.150000
 42
0.000000
  0
SEQEND
  0
POLYLINE
  8
PG_SILKSCREEN_BOTTOM
 66
1
 70
0
 40
0.000000
 41
0.000000
 39
0.000000
  0
VERTEX
  8
PG_SILKSCREEN_BOTTOM
 10
-4.392400
 20
-4.655100
 40
0.150000
 41
0.150000
 42
0.000000
  0
VERTEX
  8
PG_SILKSCREEN_BOTTOM
 10
-4.392400
 20
-4.172500
 40
0.150000
 41
0.150000
 42
0.000000
  0
VERTEX
  8
PG_SILKSCREEN_BOTTOM
 10
-5.256000
 20
-4.172500
 40
0.150000
 41
0.150000
 42
0.000000
  0
VERTEX
  8
PG_SILKSCREEN_BOTTOM
 10
-5.256000
 20
-4.680500
 40
0.150000
 41
0.150000
 42
0.000000
  0
SEQEND
  0
TEXT
  8
RD_SILKSCREEN_BOTTOM
 10
-7.926300
 20
-4.316000
 11
0.000000
 21
0.000000
 40
0.787400
 41
0.907036
 50
90.000000
  7
STANDARD
 71
2
 72
0
  1
R39
 73
0
  0
POLYLINE
  8
PIN_BOTTOM
 66
1
 70
1
 40
0.000000
 41
0.000000
 39
0.000000
  0
VERTEX
  8
PIN_BOTTOM
 10
-4.031100
 20
-6.155900
 40
0.000000
 41
0.000000
 42
0.000000
  0
VERTEX
  8
PIN_BOTTOM
 10
-3.421500
 20
-6.155900
 40
0.000000
 41
0.000000
 42
0.000000
  0
VERTEX
  8
PIN_BOTTOM
 10
-3.421500
 20
-5.393900
 40
0.000000
 41
0.000000
 42
0.000000
  0
VERTEX
  8
PIN_BOTTOM
 10
-4.031100
 20
-5.393900
 40
0.000000
 41
0.000000
 42
0.000000
  0
SEQEND
  0
POLYLINE
  8
PIN_BOTTOM
 66
1
 70
1
 40
0.000000
 41
0.000000
 39
0.000000
  0
VERTEX
  8
PIN_BOTTOM
 10
-4.031100
 20
-5.055900
 40
0.000000
 41
0.000000
 42
0.000000
  0
VERTEX
  8
PIN_BOTTOM
 10
-3.421500
 20
-5.055900
 40
0.000000
 41
0.000000
 42
0.000000
  0
VERTEX
  8
PIN_BOTTOM
 10
-3.421500
 20
-4.293900
 40
0.000000
 41
0.000000
 42
0.000000
  0
VERTEX
  8
PIN_BOTTOM
 10
-4.031100
 20
-4.293900
 40
0.000000
 41
0.000000
 42
0.000000
  0
SEQEND
  0
POLYLINE
  8
PG_SILKSCREEN_BOTTOM
 66
1
 70
0
 40
0.000000
 41
0.000000
 39
0.000000
  0
VERTEX
  8
PG_SILKSCREEN_BOTTOM
 10
-3.294500
 20
-5.783700
 40
0.150000
 41
0.150000
 42
0.000000
  0
VERTEX
  8
PG_SILKSCREEN_BOTTOM
 10
-3.294500
 20
-6.291700
 40
0.150000
 41
0.150000
 42
0.000000
  0
VERTEX
  8
PG_SILKSCREEN_BOTTOM
 10
-4.158100
 20
-6.291700
 40
0.150000
 41
0.150000
 42
0.000000
  0
VERTEX
  8
PG_SILKSCREEN_BOTTOM
 10
-4.158100
 20
-5.834500
 40
0.150000
 41
0.150000
 42
0.000000
  0
SEQEND
  0
POLYLINE
  8
PG_SILKSCREEN_BOTTOM
 66
1
 70
0
 40
0.000000
 41
0.000000
 39
0.000000
  0
VERTEX
  8
PG_SILKSCREEN_BOTTOM
 10
-3.294500
 20
-4.640700
 40
0.150000
 41
0.150000
 42
0.000000
  0
VERTEX
  8
PG_SILKSCREEN_BOTTOM
 10
-3.294500
 20
-4.158100
 40
0.150000
 41
0.150000
 42
0.000000
  0
VERTEX
  8
PG_SILKSCREEN_BOTTOM
 10
-4.158100
 20
-4.158100
 40
0.150000
 41
0.150000
 42
0.000000
  0
VERTEX
  8
PG_SILKSCREEN_BOTTOM
 10
-4.158100
 20
-4.666100
 40
0.150000
 41
0.150000
 42
0.000000
  0
SEQEND
  0
TEXT
  8
RD_SILKSCREEN_BOTTOM
 10
-6.900700
 20
-4.287100
 11
0.000000
 21
0.000000
 40
0.787400
 41
0.907036
 50
90.000000
  7
STANDARD
 71
2
 72
0
  1
R38
 73
0
  0
POLYLINE
  8
PIN_BOTTOM
 66
1
 70
1
 40
0.000000
 41
0.000000
 39
0.000000
  0
VERTEX
  8
PIN_BOTTOM
 10
-4.267200
 20
-2.276500
 40
0.000000
 41
0.000000
 42
0.000000
  0
VERTEX
  8
PIN_BOTTOM
 10
-4.267200
 20
-2.886100
 40
0.000000
 41
0.000000
 42
0.000000
  0
VERTEX
  8
PIN_BOTTOM
 10
-3.505200
 20
-2.886100
 40
0.000000
 41
0.000000
 42
0.000000
  0
VERTEX
  8
PIN_BOTTOM
 10
-3.505200
 20
-2.276500
 40
0.000000
 41
0.000000
 42
0.000000
  0
SEQEND
  0
POLYLINE
  8
PIN_BOTTOM
 66
1
 70
1
 40
0.000000
 41
0.000000
 39
0.000000
  0
VERTEX
  8
PIN_BOTTOM
 10
-3.167200
 20
-2.276500
 40
0.000000
 41
0.000000
 42
0.000000
  0
VERTEX
  8
PIN_BOTTOM
 10
-3.167200
 20
-2.886100
 40
0.000000
 41
0.000000
 42
0.000000
  0
VERTEX
  8
PIN_BOTTOM
 10
-2.405200
 20
-2.886100
 40
0.000000
 41
0.000000
 42
0.000000
  0
VERTEX
  8
PIN_BOTTOM
 10
-2.405200
 20
-2.276500
 40
0.000000
 41
0.000000
 42
0.000000
  0
SEQEND
  0
POLYLINE
  8
PG_SILKSCREEN_BOTTOM
 66
1
 70
0
 40
0.000000
 41
0.000000
 39
0.000000
  0
VERTEX
  8
PG_SILKSCREEN_BOTTOM
 10
-3.895000
 20
-3.013100
 40
0.150000
 41
0.150000
 42
0.000000
  0
VERTEX
  8
PG_SILKSCREEN_BOTTOM
 10
-4.403000
 20
-3.013100
 40
0.150000
 41
0.150000
 42
0.000000
  0
VERTEX
  8
PG_SILKSCREEN_BOTTOM
 10
-4.403000
 20
-2.149500
 40
0.150000
 41
0.150000
 42
0.000000
  0
VERTEX
  8
PG_SILKSCREEN_BOTTOM
 10
-3.945800
 20
-2.149500
 40
0.150000
 41
0.150000
 42
0.000000
  0
SEQEND
  0
POLYLINE
  8
PG_SILKSCREEN_BOTTOM
 66
1
 70
0
 40
0.000000
 41
0.000000
 39
0.000000
  0
VERTEX
  8
PG_SILKSCREEN_BOTTOM
 10
-2.752000
 20
-3.013100
 40
0.150000
 41
0.150000
 42
0.000000
  0
VERTEX
  8
PG_SILKSCREEN_BOTTOM
 10
-2.269400
 20
-3.013100
 40
0.150000
 41
0.150000
 42
0.000000
  0
VERTEX
  8
PG_SILKSCREEN_BOTTOM
 10
-2.269400
 20
-2.149500
 40
0.150000
 41
0.150000
 42
0.000000
  0
VERTEX
  8
PG_SILKSCREEN_BOTTOM
 10
-2.777400
 20
-2.149500
 40
0.150000
 41
0.150000
 42
0.000000
  0
SEQEND
  0
TEXT
  8
RD_SILKSCREEN_BOTTOM
 10
-4.117100
 20
-3.924700
 11
0.000000
 21
0.000000
 40
0.787400
 41
0.907036
 50
0.000000
  7
STANDARD
 71
2
 72
0
  1
R7
 73
0
  0
POLYLINE
  8
PIN_BOTTOM
 66
1
 70
1
 40
0.000000
 41
0.000000
 39
0.000000
  0
VERTEX
  8
PIN_BOTTOM
 10
14.939300
 20
16.668500
 40
0.000000
 41
0.000000
 42
0.000000
  0
VERTEX
  8
PIN_BOTTOM
 10
14.329700
 20
16.668500
 40
0.000000
 41
0.000000
 42
0.000000
  0
VERTEX
  8
PIN_BOTTOM
 10
14.329700
 20
15.906500
 40
0.000000
 41
0.000000
 42
0.000000
  0
VERTEX
  8
PIN_BOTTOM
 10
14.939300
 20
15.906500
 40
0.000000
 41
0.000000
 42
0.000000
  0
SEQEND
  0
POLYLINE
  8
PIN_BOTTOM
 66
1
 70
1
 40
0.000000
 41
0.000000
 39
0.000000
  0
VERTEX
  8
PIN_BOTTOM
 10
14.939300
 20
15.568500
 40
0.000000
 41
0.000000
 42
0.000000
  0
VERTEX
  8
PIN_BOTTOM
 10
14.329700
 20
15.568500
 40
0.000000
 41
0.000000
 42
0.000000
  0
VERTEX
  8
PIN_BOTTOM
 10
14.329700
 20
14.806500
 40
0.000000
 41
0.000000
 42
0.000000
  0
VERTEX
  8
PIN_BOTTOM
 10
14.939300
 20
14.806500
 40
0.000000
 41
0.000000
 42
0.000000
  0
SEQEND
  0
POLYLINE
  8
PG_SILKSCREEN_BOTTOM
 66
1
 70
0
 40
0.000000
 41
0.000000
 39
0.000000
  0
VERTEX
  8
PG_SILKSCREEN_BOTTOM
 10
14.202700
 20
16.296300
 40
0.150000
 41
0.150000
 42
0.000000
  0
VERTEX
  8
PG_SILKSCREEN_BOTTOM
 10
14.202700
 20
16.804300
 40
0.150000
 41
0.150000
 42
0.000000
  0
VERTEX
  8
PG_SILKSCREEN_BOTTOM
 10
15.066300
 20
16.804300
 40
0.150000
 41
0.150000
 42
0.000000
  0
VERTEX
  8
PG_SILKSCREEN_BOTTOM
 10
15.066300
 20
16.347100
 40
0.150000
 41
0.150000
 42
0.000000
  0
SEQEND
  0
POLYLINE
  8
PG_SILKSCREEN_BOTTOM
 66
1
 70
0
 40
0.000000
 41
0.000000
 39
0.000000
  0
VERTEX
  8
PG_SILKSCREEN_BOTTOM
 10
14.202700
 20
15.153300
 40
0.150000
 41
0.150000
 42
0.000000
  0
VERTEX
  8
PG_SILKSCREEN_BOTTOM
 10
14.202700
 20
14.670700
 40
0.150000
 41
0.150000
 42
0.000000
  0
VERTEX
  8
PG_SILKSCREEN_BOTTOM
 10
15.066300
 20
14.670700
 40
0.150000
 41
0.150000
 42
0.000000
  0
VERTEX
  8
PG_SILKSCREEN_BOTTOM
 10
15.066300
 20
15.178700
 40
0.150000
 41
0.150000
 42
0.000000
  0
SEQEND
  0
TEXT
  8
RD_SILKSCREEN_BOTTOM
 10
12.969300
 20
16.169900
 11
0.000000
 21
0.000000
 40
0.787400
 41
0.907036
 50
270.000000
  7
STANDARD
 71
2
 72
0
  1
R27
 73
0
  0
POLYLINE
  8
PIN_BOTTOM
 66
1
 70
1
 40
0.000000
 41
0.000000
 39
0.000000
  0
VERTEX
  8
PIN_BOTTOM
 10
2.896800
 20
7.221500
 40
0.000000
 41
0.000000
 42
0.000000
  0
VERTEX
  8
PIN_BOTTOM
 10
2.896800
 20
7.831100
 40
0.000000
 41
0.000000
 42
0.000000
  0
VERTEX
  8
PIN_BOTTOM
 10
2.134800
 20
7.831100
 40
0.000000
 41
0.000000
 42
0.000000
  0
VERTEX
  8
PIN_BOTTOM
 10
2.134800
 20
7.221500
 40
0.000000
 41
0.000000
 42
0.000000
  0
SEQEND
  0
POLYLINE
  8
PIN_BOTTOM
 66
1
 70
1
 40
0.000000
 41
0.000000
 39
0.000000
  0
VERTEX
  8
PIN_BOTTOM
 10
1.796800
 20
7.221500
 40
0.000000
 41
0.000000
 42
0.000000
  0
VERTEX
  8
PIN_BOTTOM
 10
1.796800
 20
7.831100
 40
0.000000
 41
0.000000
 42
0.000000
  0
VERTEX
  8
PIN_BOTTOM
 10
1.034800
 20
7.831100
 40
0.000000
 41
0.000000
 42
0.000000
  0
VERTEX
  8
PIN_BOTTOM
 10
1.034800
 20
7.221500
 40
0.000000
 41
0.000000
 42
0.000000
  0
SEQEND
  0
POLYLINE
  8
PG_SILKSCREEN_BOTTOM
 66
1
 70
0
 40
0.000000
 41
0.000000
 39
0.000000
  0
VERTEX
  8
PG_SILKSCREEN_BOTTOM
 10
2.524600
 20
7.958100
 40
0.150000
 41
0.150000
 42
0.000000
  0
VERTEX
  8
PG_SILKSCREEN_BOTTOM
 10
3.032600
 20
7.958100
 40
0.150000
 41
0.150000
 42
0.000000
  0
VERTEX
  8
PG_SILKSCREEN_BOTTOM
 10
3.032600
 20
7.094500
 40
0.150000
 41
0.150000
 42
0.000000
  0
VERTEX
  8
PG_SILKSCREEN_BOTTOM
 10
2.575400
 20
7.094500
 40
0.150000
 41
0.150000
 42
0.000000
  0
SEQEND
  0
POLYLINE
  8
PG_SILKSCREEN_BOTTOM
 66
1
 70
0
 40
0.000000
 41
0.000000
 39
0.000000
  0
VERTEX
  8
PG_SILKSCREEN_BOTTOM
 10
1.381600
 20
7.958100
 40
0.150000
 41
0.150000
 42
0.000000
  0
VERTEX
  8
PG_SILKSCREEN_BOTTOM
 10
0.899000
 20
7.958100
 40
0.150000
 41
0.150000
 42
0.000000
  0
VERTEX
  8
PG_SILKSCREEN_BOTTOM
 10
0.899000
 20
7.094500
 40
0.150000
 41
0.150000
 42
0.000000
  0
VERTEX
  8
PG_SILKSCREEN_BOTTOM
 10
1.407000
 20
7.094500
 40
0.150000
 41
0.150000
 42
0.000000
  0
SEQEND
  0
TEXT
  8
RD_SILKSCREEN_BOTTOM
 10
4.449900
 20
7.674900
 11
0.000000
 21
0.000000
 40
0.787400
 41
0.907036
 50
0.000000
  7
STANDARD
 71
2
 72
0
  1
R5
 73
0
  0
POLYLINE
  8
PIN_BOTTOM
 66
1
 70
1
 40
0.000000
 41
0.000000
 39
0.000000
  0
VERTEX
  8
PIN_BOTTOM
 10
1.020300
 20
6.733200
 40
0.000000
 41
0.000000
 42
0.000000
  0
VERTEX
  8
PIN_BOTTOM
 10
1.020300
 20
6.123600
 40
0.000000
 41
0.000000
 42
0.000000
  0
VERTEX
  8
PIN_BOTTOM
 10
1.782300
 20
6.123600
 40
0.000000
 41
0.000000
 42
0.000000
  0
VERTEX
  8
PIN_BOTTOM
 10
1.782300
 20
6.733200
 40
0.000000
 41
0.000000
 42
0.000000
  0
SEQEND
  0
POLYLINE
  8
PIN_BOTTOM
 66
1
 70
1
 40
0.000000
 41
0.000000
 39
0.000000
  0
VERTEX
  8
PIN_BOTTOM
 10
2.120300
 20
6.733200
 40
0.000000
 41
0.000000
 42
0.000000
  0
VERTEX
  8
PIN_BOTTOM
 10
2.120300
 20
6.123600
 40
0.000000
 41
0.000000
 42
0.000000
  0
VERTEX
  8
PIN_BOTTOM
 10
2.882300
 20
6.123600
 40
0.000000
 41
0.000000
 42
0.000000
  0
VERTEX
  8
PIN_BOTTOM
 10
2.882300
 20
6.733200
 40
0.000000
 41
0.000000
 42
0.000000
  0
SEQEND
  0
POLYLINE
  8
PG_SILKSCREEN_BOTTOM
 66
1
 70
0
 40
0.000000
 41
0.000000
 39
0.000000
  0
VERTEX
  8
PG_SILKSCREEN_BOTTOM
 10
1.392500
 20
5.996600
 40
0.150000
 41
0.150000
 42
0.000000
  0
VERTEX
  8
PG_SILKSCREEN_BOTTOM
 10
0.884500
 20
5.996600
 40
0.150000
 41
0.150000
 42
0.000000
  0
VERTEX
  8
PG_SILKSCREEN_BOTTOM
 10
0.884500
 20
6.860200
 40
0.150000
 41
0.150000
 42
0.000000
  0
VERTEX
  8
PG_SILKSCREEN_BOTTOM
 10
1.341700
 20
6.860200
 40
0.150000
 41
0.150000
 42
0.000000
  0
SEQEND
  0
POLYLINE
  8
PG_SILKSCREEN_BOTTOM
 66
1
 70
0
 40
0.000000
 41
0.000000
 39
0.000000
  0
VERTEX
  8
PG_SILKSCREEN_BOTTOM
 10
2.535500
 20
5.996600
 40
0.150000
 41
0.150000
 42
0.000000
  0
VERTEX
  8
PG_SILKSCREEN_BOTTOM
 10
3.018100
 20
5.996600
 40
0.150000
 41
0.150000
 42
0.000000
  0
VERTEX
  8
PG_SILKSCREEN_BOTTOM
 10
3.018100
 20
6.860200
 40
0.150000
 41
0.150000
 42
0.000000
  0
VERTEX
  8
PG_SILKSCREEN_BOTTOM
 10
2.510100
 20
6.860200
 40
0.150000
 41
0.150000
 42
0.000000
  0
SEQEND
  0
TEXT
  8
RD_SILKSCREEN_BOTTOM
 10
4.471600
 20
6.671000
 11
0.000000
 21
0.000000
 40
0.787400
 41
0.907036
 50
0.000000
  7
STANDARD
 71
2
 72
0
  1
R4
 73
0
  0
POLYLINE
  8
PIN_BOTTOM
 66
1
 70
1
 40
0.000000
 41
0.000000
 39
0.000000
  0
VERTEX
  8
PIN_BOTTOM
 10
-3.817800
 20
7.369600
 40
0.000000
 41
0.000000
 42
0.000000
  0
VERTEX
  8
PIN_BOTTOM
 10
-3.208200
 20
7.369600
 40
0.000000
 41
0.000000
 42
0.000000
  0
VERTEX
  8
PIN_BOTTOM
 10
-3.208200
 20
8.131600
 40
0.000000
 41
0.000000
 42
0.000000
  0
VERTEX
  8
PIN_BOTTOM
 10
-3.817800
 20
8.131600
 40
0.000000
 41
0.000000
 42
0.000000
  0
SEQEND
  0
POLYLINE
  8
PIN_BOTTOM
 66
1
 70
1
 40
0.000000
 41
0.000000
 39
0.000000
  0
VERTEX
  8
PIN_BOTTOM
 10
-3.817800
 20
8.469600
 40
0.000000
 41
0.000000
 42
0.000000
  0
VERTEX
  8
PIN_BOTTOM
 10
-3.208200
 20
8.469600
 40
0.000000
 41
0.000000
 42
0.000000
  0
VERTEX
  8
PIN_BOTTOM
 10
-3.208200
 20
9.231600
 40
0.000000
 41
0.000000
 42
0.000000
  0
VERTEX
  8
PIN_BOTTOM
 10
-3.817800
 20
9.231600
 40
0.000000
 41
0.000000
 42
0.000000
  0
SEQEND
  0
POLYLINE
  8
PG_SILKSCREEN_BOTTOM
 66
1
 70
0
 40
0.000000
 41
0.000000
 39
0.000000
  0
VERTEX
  8
PG_SILKSCREEN_BOTTOM
 10
-3.081200
 20
7.741800
 40
0.150000
 41
0.150000
 42
0.000000
  0
VERTEX
  8
PG_SILKSCREEN_BOTTOM
 10
-3.081200
 20
7.233800
 40
0.150000
 41
0.150000
 42
0.000000
  0
VERTEX
  8
PG_SILKSCREEN_BOTTOM
 10
-3.944800
 20
7.233800
 40
0.150000
 41
0.150000
 42
0.000000
  0
VERTEX
  8
PG_SILKSCREEN_BOTTOM
 10
-3.944800
 20
7.691000
 40
0.150000
 41
0.150000
 42
0.000000
  0
SEQEND
  0
POLYLINE
  8
PG_SILKSCREEN_BOTTOM
 66
1
 70
0
 40
0.000000
 41
0.000000
 39
0.000000
  0
VERTEX
  8
PG_SILKSCREEN_BOTTOM
 10
-3.081200
 20
8.884800
 40
0.150000
 41
0.150000
 42
0.000000
  0
VERTEX
  8
PG_SILKSCREEN_BOTTOM
 10
-3.081200
 20
9.367400
 40
0.150000
 41
0.150000
 42
0.000000
  0
VERTEX
  8
PG_SILKSCREEN_BOTTOM
 10
-3.944800
 20
9.367400
 40
0.150000
 41
0.150000
 42
0.000000
  0
VERTEX
  8
PG_SILKSCREEN_BOTTOM
 10
-3.944800
 20
8.859400
 40
0.150000
 41
0.150000
 42
0.000000
  0
SEQEND
  0
TEXT
  8
RD_SILKSCREEN_BOTTOM
 10
-4.458400
 20
9.050200
 11
0.000000
 21
0.000000
 40
0.787400
 41
0.907036
 50
90.000000
  7
STANDARD
 71
2
 72
0
  1
R3
 73
0
  0
POLYLINE
  8
PIN_BOTTOM
 66
1
 70
1
 40
0.000000
 41
0.000000
 39
0.000000
  0
VERTEX
  8
PIN_BOTTOM
 10
-4.247300
 20
16.431800
 40
0.000000
 41
0.000000
 42
0.000000
  0
VERTEX
  8
PIN_BOTTOM
 10
-4.247300
 20
15.822200
 40
0.000000
 41
0.000000
 42
0.000000
  0
VERTEX
  8
PIN_BOTTOM
 10
-3.485300
 20
15.822200
 40
0.000000
 41
0.000000
 42
0.000000
  0
VERTEX
  8
PIN_BOTTOM
 10
-3.485300
 20
16.431800
 40
0.000000
 41
0.000000
 42
0.000000
  0
SEQEND
  0
POLYLINE
  8
PIN_BOTTOM
 66
1
 70
1
 40
0.000000
 41
0.000000
 39
0.000000
  0
VERTEX
  8
PIN_BOTTOM
 10
-3.147300
 20
16.431800
 40
0.000000
 41
0.000000
 42
0.000000
  0
VERTEX
  8
PIN_BOTTOM
 10
-3.147300
 20
15.822200
 40
0.000000
 41
0.000000
 42
0.000000
  0
VERTEX
  8
PIN_BOTTOM
 10
-2.385300
 20
15.822200
 40
0.000000
 41
0.000000
 42
0.000000
  0
VERTEX
  8
PIN_BOTTOM
 10
-2.385300
 20
16.431800
 40
0.000000
 41
0.000000
 42
0.000000
  0
SEQEND
  0
POLYLINE
  8
PG_SILKSCREEN_BOTTOM
 66
1
 70
0
 40
0.000000
 41
0.000000
 39
0.000000
  0
VERTEX
  8
PG_SILKSCREEN_BOTTOM
 10
-3.875100
 20
15.695200
 40
0.150000
 41
0.150000
 42
0.000000
  0
VERTEX
  8
PG_SILKSCREEN_BOTTOM
 10
-4.383100
 20
15.695200
 40
0.150000
 41
0.150000
 42
0.000000
  0
VERTEX
  8
PG_SILKSCREEN_BOTTOM
 10
-4.383100
 20
16.558800
 40
0.150000
 41
0.150000
 42
0.000000
  0
VERTEX
  8
PG_SILKSCREEN_BOTTOM
 10
-3.925900
 20
16.558800
 40
0.150000
 41
0.150000
 42
0.000000
  0
SEQEND
  0
POLYLINE
  8
PG_SILKSCREEN_BOTTOM
 66
1
 70
0
 40
0.000000
 41
0.000000
 39
0.000000
  0
VERTEX
  8
PG_SILKSCREEN_BOTTOM
 10
-2.732100
 20
15.695200
 40
0.150000
 41
0.150000
 42
0.000000
  0
VERTEX
  8
PG_SILKSCREEN_BOTTOM
 10
-2.249500
 20
15.695200
 40
0.150000
 41
0.150000
 42
0.000000
  0
VERTEX
  8
PG_SILKSCREEN_BOTTOM
 10
-2.249500
 20
16.558800
 40
0.150000
 41
0.150000
 42
0.000000
  0
VERTEX
  8
PG_SILKSCREEN_BOTTOM
 10
-2.757500
 20
16.558800
 40
0.150000
 41
0.150000
 42
0.000000
  0
SEQEND
  0
TEXT
  8
RD_SILKSCREEN_BOTTOM
 10
-4.881900
 20
15.605900
 11
0.000000
 21
0.000000
 40
0.787400
 41
0.907036
 50
0.000000
  7
STANDARD
 71
2
 72
0
  1
R2
 73
0
  0
POLYLINE
  8
PIN_BOTTOM
 66
1
 70
1
 40
0.000000
 41
0.000000
 39
0.000000
  0
VERTEX
  8
PIN_BOTTOM
 10
-1.076500
 20
-2.320000
 40
0.000000
 41
0.000000
 42
0.000000
  0
VERTEX
  8
PIN_BOTTOM
 10
-1.076500
 20
-2.929600
 40
0.000000
 41
0.000000
 42
0.000000
  0
VERTEX
  8
PIN_BOTTOM
 10
-0.314500
 20
-2.929600
 40
0.000000
 41
0.000000
 42
0.000000
  0
VERTEX
  8
PIN_BOTTOM
 10
-0.314500
 20
-2.320000
 40
0.000000
 41
0.000000
 42
0.000000
  0
SEQEND
  0
POLYLINE
  8
PIN_BOTTOM
 66
1
 70
1
 40
0.000000
 41
0.000000
 39
0.000000
  0
VERTEX
  8
PIN_BOTTOM
 10
0.023500
 20
-2.320000
 40
0.000000
 41
0.000000
 42
0.000000
  0
VERTEX
  8
PIN_BOTTOM
 10
0.023500
 20
-2.929600
 40
0.000000
 41
0.000000
 42
0.000000
  0
VERTEX
  8
PIN_BOTTOM
 10
0.785500
 20
-2.929600
 40
0.000000
 41
0.000000
 42
0.000000
  0
VERTEX
  8
PIN_BOTTOM
 10
0.785500
 20
-2.320000
 40
0.000000
 41
0.000000
 42
0.000000
  0
SEQEND
  0
POLYLINE
  8
PG_SILKSCREEN_BOTTOM
 66
1
 70
0
 40
0.000000
 41
0.000000
 39
0.000000
  0
VERTEX
  8
PG_SILKSCREEN_BOTTOM
 10
-0.704300
 20
-3.056600
 40
0.150000
 41
0.150000
 42
0.000000
  0
VERTEX
  8
PG_SILKSCREEN_BOTTOM
 10
-1.212300
 20
-3.056600
 40
0.150000
 41
0.150000
 42
0.000000
  0
VERTEX
  8
PG_SILKSCREEN_BOTTOM
 10
-1.212300
 20
-2.193000
 40
0.150000
 41
0.150000
 42
0.000000
  0
VERTEX
  8
PG_SILKSCREEN_BOTTOM
 10
-0.755100
 20
-2.193000
 40
0.150000
 41
0.150000
 42
0.000000
  0
SEQEND
  0
POLYLINE
  8
PG_SILKSCREEN_BOTTOM
 66
1
 70
0
 40
0.000000
 41
0.000000
 39
0.000000
  0
VERTEX
  8
PG_SILKSCREEN_BOTTOM
 10
0.438700
 20
-3.056600
 40
0.150000
 41
0.150000
 42
0.000000
  0
VERTEX
  8
PG_SILKSCREEN_BOTTOM
 10
0.921300
 20
-3.056600
 40
0.150000
 41
0.150000
 42
0.000000
  0
VERTEX
  8
PG_SILKSCREEN_BOTTOM
 10
0.921300
 20
-2.193000
 40
0.150000
 41
0.150000
 42
0.000000
  0
VERTEX
  8
PG_SILKSCREEN_BOTTOM
 10
0.413300
 20
-2.193000
 40
0.150000
 41
0.150000
 42
0.000000
  0
SEQEND
  0
TEXT
  8
RD_SILKSCREEN_BOTTOM
 10
-1.044200
 20
-3.910200
 11
0.000000
 21
0.000000
 40
0.787400
 41
0.907036
 50
0.000000
  7
STANDARD
 71
2
 72
0
  1
R10
 73
0
  0
POLYLINE
  8
PIN_BOTTOM
 66
1
 70
1
 40
0.000000
 41
0.000000
 39
0.000000
  0
VERTEX
  8
PIN_BOTTOM
 10
4.014400
 20
4.634900
 40
0.000000
 41
0.000000
 42
0.000000
  0
VERTEX
  8
PIN_BOTTOM
 10
4.014400
 20
4.025300
 40
0.000000
 41
0.000000
 42
0.000000
  0
VERTEX
  8
PIN_BOTTOM
 10
4.776400
 20
4.025300
 40
0.000000
 41
0.000000
 42
0.000000
  0
VERTEX
  8
PIN_BOTTOM
 10
4.776400
 20
4.634900
 40
0.000000
 41
0.000000
 42
0.000000
  0
SEQEND
  0
POLYLINE
  8
PIN_BOTTOM
 66
1
 70
1
 40
0.000000
 41
0.000000
 39
0.000000
  0
VERTEX
  8
PIN_BOTTOM
 10
5.114400
 20
4.634900
 40
0.000000
 41
0.000000
 42
0.000000
  0
VERTEX
  8
PIN_BOTTOM
 10
5.114400
 20
4.025300
 40
0.000000
 41
0.000000
 42
0.000000
  0
VERTEX
  8
PIN_BOTTOM
 10
5.876400
 20
4.025300
 40
0.000000
 41
0.000000
 42
0.000000
  0
VERTEX
  8
PIN_BOTTOM
 10
5.876400
 20
4.634900
 40
0.000000
 41
0.000000
 42
0.000000
  0
SEQEND
  0
POLYLINE
  8
PG_SILKSCREEN_BOTTOM
 66
1
 70
0
 40
0.000000
 41
0.000000
 39
0.000000
  0
VERTEX
  8
PG_SILKSCREEN_BOTTOM
 10
4.386600
 20
3.898300
 40
0.150000
 41
0.150000
 42
0.000000
  0
VERTEX
  8
PG_SILKSCREEN_BOTTOM
 10
3.878600
 20
3.898300
 40
0.150000
 41
0.150000
 42
0.000000
  0
VERTEX
  8
PG_SILKSCREEN_BOTTOM
 10
3.878600
 20
4.761900
 40
0.150000
 41
0.150000
 42
0.000000
  0
VERTEX
  8
PG_SILKSCREEN_BOTTOM
 10
4.335800
 20
4.761900
 40
0.150000
 41
0.150000
 42
0.000000
  0
SEQEND
  0
POLYLINE
  8
PG_SILKSCREEN_BOTTOM
 66
1
 70
0
 40
0.000000
 41
0.000000
 39
0.000000
  0
VERTEX
  8
PG_SILKSCREEN_BOTTOM
 10
5.529600
 20
3.898300
 40
0.150000
 41
0.150000
 42
0.000000
  0
VERTEX
  8
PG_SILKSCREEN_BOTTOM
 10
6.012200
 20
3.898300
 40
0.150000
 41
0.150000
 42
0.000000
  0
VERTEX
  8
PG_SILKSCREEN_BOTTOM
 10
6.012200
 20
4.761900
 40
0.150000
 41
0.150000
 42
0.000000
  0
VERTEX
  8
PG_SILKSCREEN_BOTTOM
 10
5.504200
 20
4.761900
 40
0.150000
 41
0.150000
 42
0.000000
  0
SEQEND
  0
TEXT
  8
RD_SILKSCREEN_BOTTOM
 10
5.540700
 20
4.915800
 11
0.000000
 21
0.000000
 40
0.787400
 41
0.907036
 50
0.000000
  7
STANDARD
 71
2
 72
0
  1
R9
 73
0
  0
POLYLINE
  8
PIN_BOTTOM
 66
1
 70
1
 40
0.000000
 41
0.000000
 39
0.000000
  0
VERTEX
  8
PIN_BOTTOM
 10
3.955500
 20
2.904000
 40
0.000000
 41
0.000000
 42
0.000000
  0
VERTEX
  8
PIN_BOTTOM
 10
3.955500
 20
2.294400
 40
0.000000
 41
0.000000
 42
0.000000
  0
VERTEX
  8
PIN_BOTTOM
 10
4.717500
 20
2.294400
 40
0.000000
 41
0.000000
 42
0.000000
  0
VERTEX
  8
PIN_BOTTOM
 10
4.717500
 20
2.904000
 40
0.000000
 41
0.000000
 42
0.000000
  0
SEQEND
  0
POLYLINE
  8
PIN_BOTTOM
 66
1
 70
1
 40
0.000000
 41
0.000000
 39
0.000000
  0
VERTEX
  8
PIN_BOTTOM
 10
5.055500
 20
2.904000
 40
0.000000
 41
0.000000
 42
0.000000
  0
VERTEX
  8
PIN_BOTTOM
 10
5.055500
 20
2.294400
 40
0.000000
 41
0.000000
 42
0.000000
  0
VERTEX
  8
PIN_BOTTOM
 10
5.817500
 20
2.294400
 40
0.000000
 41
0.000000
 42
0.000000
  0
VERTEX
  8
PIN_BOTTOM
 10
5.817500
 20
2.904000
 40
0.000000
 41
0.000000
 42
0.000000
  0
SEQEND
  0
POLYLINE
  8
PG_SILKSCREEN_BOTTOM
 66
1
 70
0
 40
0.000000
 41
0.000000
 39
0.000000
  0
VERTEX
  8
PG_SILKSCREEN_BOTTOM
 10
4.327700
 20
2.167400
 40
0.150000
 41
0.150000
 42
0.000000
  0
VERTEX
  8
PG_SILKSCREEN_BOTTOM
 10
3.819700
 20
2.167400
 40
0.150000
 41
0.150000
 42
0.000000
  0
VERTEX
  8
PG_SILKSCREEN_BOTTOM
 10
3.819700
 20
3.031000
 40
0.150000
 41
0.150000
 42
0.000000
  0
VERTEX
  8
PG_SILKSCREEN_BOTTOM
 10
4.276900
 20
3.031000
 40
0.150000
 41
0.150000
 42
0.000000
  0
SEQEND
  0
POLYLINE
  8
PG_SILKSCREEN_BOTTOM
 66
1
 70
0
 40
0.000000
 41
0.000000
 39
0.000000
  0
VERTEX
  8
PG_SILKSCREEN_BOTTOM
 10
5.470700
 20
2.167400
 40
0.150000
 41
0.150000
 42
0.000000
  0
VERTEX
  8
PG_SILKSCREEN_BOTTOM
 10
5.953300
 20
2.167400
 40
0.150000
 41
0.150000
 42
0.000000
  0
VERTEX
  8
PG_SILKSCREEN_BOTTOM
 10
5.953300
 20
3.031000
 40
0.150000
 41
0.150000
 42
0.000000
  0
VERTEX
  8
PG_SILKSCREEN_BOTTOM
 10
5.445300
 20
3.031000
 40
0.150000
 41
0.150000
 42
0.000000
  0
SEQEND
  0
TEXT
  8
RD_SILKSCREEN_BOTTOM
 10
8.025400
 20
2.351700
 11
0.000000
 21
0.000000
 40
0.787400
 41
0.907036
 50
0.000000
  7
STANDARD
 71
2
 72
0
  1
R8
 73
0
  0
POLYLINE
  8
PIN_BOTTOM
 66
1
 70
1
 40
0.000000
 41
0.000000
 39
0.000000
  0
VERTEX
  8
PIN_BOTTOM
 10
-8.068500
 20
-2.866900
 40
0.000000
 41
0.000000
 42
0.000000
  0
VERTEX
  8
PIN_BOTTOM
 10
-7.458900
 20
-2.866900
 40
0.000000
 41
0.000000
 42
0.000000
  0
VERTEX
  8
PIN_BOTTOM
 10
-7.458900
 20
-2.104900
 40
0.000000
 41
0.000000
 42
0.000000
  0
VERTEX
  8
PIN_BOTTOM
 10
-8.068500
 20
-2.104900
 40
0.000000
 41
0.000000
 42
0.000000
  0
SEQEND
  0
POLYLINE
  8
PIN_BOTTOM
 66
1
 70
1
 40
0.000000
 41
0.000000
 39
0.000000
  0
VERTEX
  8
PIN_BOTTOM
 10
-8.068500
 20
-1.766900
 40
0.000000
 41
0.000000
 42
0.000000
  0
VERTEX
  8
PIN_BOTTOM
 10
-7.458900
 20
-1.766900
 40
0.000000
 41
0.000000
 42
0.000000
  0
VERTEX
  8
PIN_BOTTOM
 10
-7.458900
 20
-1.004900
 40
0.000000
 41
0.000000
 42
0.000000
  0
VERTEX
  8
PIN_BOTTOM
 10
-8.068500
 20
-1.004900
 40
0.000000
 41
0.000000
 42
0.000000
  0
SEQEND
  0
POLYLINE
  8
PG_SILKSCREEN_BOTTOM
 66
1
 70
0
 40
0.000000
 41
0.000000
 39
0.000000
  0
VERTEX
  8
PG_SILKSCREEN_BOTTOM
 10
-7.331900
 20
-2.494700
 40
0.150000
 41
0.150000
 42
0.000000
  0
VERTEX
  8
PG_SILKSCREEN_BOTTOM
 10
-7.331900
 20
-3.002700
 40
0.150000
 41
0.150000
 42
0.000000
  0
VERTEX
  8
PG_SILKSCREEN_BOTTOM
 10
-8.195500
 20
-3.002700
 40
0.150000
 41
0.150000
 42
0.000000
  0
VERTEX
  8
PG_SILKSCREEN_BOTTOM
 10
-8.195500
 20
-2.545500
 40
0.150000
 41
0.150000
 42
0.000000
  0
SEQEND
  0
POLYLINE
  8
PG_SILKSCREEN_BOTTOM
 66
1
 70
0
 40
0.000000
 41
0.000000
 39
0.000000
  0
VERTEX
  8
PG_SILKSCREEN_BOTTOM
 10
-7.331900
 20
-1.351700
 40
0.150000
 41
0.150000
 42
0.000000
  0
VERTEX
  8
PG_SILKSCREEN_BOTTOM
 10
-7.331900
 20
-0.869100
 40
0.150000
 41
0.150000
 42
0.000000
  0
VERTEX
  8
PG_SILKSCREEN_BOTTOM
 10
-8.195500
 20
-0.869100
 40
0.150000
 41
0.150000
 42
0.000000
  0
VERTEX
  8
PG_SILKSCREEN_BOTTOM
 10
-8.195500
 20
-1.377100
 40
0.150000
 41
0.150000
 42
0.000000
  0
SEQEND
  0
TEXT
  8
RD_SILKSCREEN_BOTTOM
 10
-8.373500
 20
-0.921600
 11
0.000000
 21
0.000000
 40
0.787400
 41
0.907036
 50
90.000000
  7
STANDARD
 71
2
 72
0
  1
R20
 73
0
  0
CIRCLE
  8
PIN_BOTTOM
 10
-3.191000
 20
20.342700
 40
0.850000
  0
POLYLINE
  8
PIN_BOTTOM
 66
1
 70
1
 40
0.000000
 41
0.000000
 39
0.000000
  0
VERTEX
  8
PIN_BOTTOM
 10
-4.731000
 20
19.342700
 40
0.000000
 41
0.000000
 42
0.000000
  0
VERTEX
  8
PIN_BOTTOM
 10
-6.731000
 20
19.342700
 40
0.000000
 41
0.000000
 42
0.000000
  0
VERTEX
  8
PIN_BOTTOM
 10
-6.731000
 20
21.342700
 40
0.000000
 41
0.000000
 42
0.000000
  0
VERTEX
  8
PIN_BOTTOM
 10
-4.731000
 20
21.342700
 40
0.000000
 41
0.000000
 42
0.000000
  0
SEQEND
  0
CIRCLE
  8
PIN_BOTTOM
 10
-3.292900
 20
-18.450600
 40
0.275000
  0
CIRCLE
  8
PIN_BOTTOM
 10
0.707100
 20
-18.450600
 40
0.275000
  0
POLYLINE
  8
BG_SILKSCREEN_BOTTOM
 66
1
 70
0
 40
0.000000
 41
0.000000
 39
0.000000
  0
VERTEX
  8
BG_SILKSCREEN_BOTTOM
 10
-17.955600
 20
-10.735400
 40
0.150000
 41
0.150000
 42
0.000000
  0
VERTEX
  8
BG_SILKSCREEN_BOTTOM
 10
-18.576700
 20
-11.385400
 40
0.150000
 41
0.150000
 42
0.000000
  0
SEQEND
  0
POLYLINE
  8
BG_SILKSCREEN_BOTTOM
 66
1
 70
0
 40
0.000000
 41
0.000000
 39
0.000000
  0
VERTEX
  8
BG_SILKSCREEN_BOTTOM
 10
-17.580000
 20
-11.876600
 40
0.150000
 41
0.150000
 42
0.000000
  0
VERTEX
  8
BG_SILKSCREEN_BOTTOM
 10
-18.591200
 20
-13.696800
 40
0.150000
 41
0.150000
 42
0.000000
  0
SEQEND
  0
POLYLINE
  8
BG_SILKSCREEN_BOTTOM
 66
1
 70
0
 40
0.000000
 41
0.000000
 39
0.000000
  0
VERTEX
  8
BG_SILKSCREEN_BOTTOM
 10
18.520500
 20
-16.742100
 40
0.150000
 41
0.150000
 42
0.000000
  0
VERTEX
  8
BG_SILKSCREEN_BOTTOM
 10
18.101500
 20
-17.421000
 40
0.150000
 41
0.150000
 42
0.000000
  0
SEQEND
  0
POLYLINE
  8
BG_SILKSCREEN_BOTTOM
 66
1
 70
0
 40
0.000000
 41
0.000000
 39
0.000000
  0
VERTEX
  8
BG_SILKSCREEN_BOTTOM
 10
18.332700
 20
-15.225200
 40
0.150000
 41
0.150000
 42
0.000000
  0
VERTEX
  8
BG_SILKSCREEN_BOTTOM
 10
18.780500
 20
-14.315100
 40
0.150000
 41
0.150000
 42
0.000000
  0
SEQEND
  0
POLYLINE
  8
BG_OUTLINE
 66
1
 70
0
 40
0.000000
 41
0.000000
 39
0.000000
  0
VERTEX
  8
BG_OUTLINE
 10
17.000000
 20
-20.000000
 40
0.000000
 41
0.000000
 42
1.000000
  0
VERTEX
  8
BG_OUTLINE
 10
13.000000
 20
-20.000000
 40
0.000000
 41
0.000000
 42
1.000000
  0
VERTEX
  8
BG_OUTLINE
 10
17.000000
 20
-20.000000
 40
0.000000
 41
0.000000
 42
0.000000
  0
SEQEND
  0
POLYLINE
  8
BG_OUTLINE
 66
1
 70
0
 40
0.000000
 41
0.000000
 39
0.000000
  0
VERTEX
  8
BG_OUTLINE
 10
-13.000000
 20
-20.000000
 40
0.000000
 41
0.000000
 42
1.000000
  0
VERTEX
  8
BG_OUTLINE
 10
-17.000000
 20
-20.000000
 40
0.000000
 41
0.000000
 42
1.000000
  0
VERTEX
  8
BG_OUTLINE
 10
-13.000000
 20
-20.000000
 40
0.000000
 41
0.000000
 42
0.000000
  0
SEQEND
  0
POLYLINE
  8
BG_OUTLINE
 66
1
 70
0
 40
0.000000
 41
0.000000
 39
0.000000
  0
VERTEX
  8
BG_OUTLINE
 10
-13.000000
 20
20.000000
 40
0.000000
 41
0.000000
 42
1.000000
  0
VERTEX
  8
BG_OUTLINE
 10
-17.000000
 20
20.000000
 40
0.000000
 41
0.000000
 42
1.000000
  0
VERTEX
  8
BG_OUTLINE
 10
-13.000000
 20
20.000000
 40
0.000000
 41
0.000000
 42
0.000000
  0
SEQEND
  0
POLYLINE
  8
BG_OUTLINE
 66
1
 70
0
 40
0.000000
 41
0.000000
 39
0.000000
  0
VERTEX
  8
BG_OUTLINE
 10
17.000000
 20
20.000000
 40
0.000000
 41
0.000000
 42
1.000000
  0
VERTEX
  8
BG_OUTLINE
 10
13.000000
 20
20.000000
 40
0.000000
 41
0.000000
 42
1.000000
  0
VERTEX
  8
BG_OUTLINE
 10
17.000000
 20
20.000000
 40
0.000000
 41
0.000000
 42
0.000000
  0
SEQEND
  0
POLYLINE
  8
BG_OUTLINE
 66
1
 70
0
 40
0.000000
 41
0.000000
 39
0.000000
  0
VERTEX
  8
BG_OUTLINE
 10
20.000000
 20
23.000000
 40
0.000000
 41
0.000000
 42
0.000000
  0
VERTEX
  8
BG_OUTLINE
 10
-20.000000
 20
23.000000
 40
0.000000
 41
0.000000
 42
0.414214
  0
VERTEX
  8
BG_OUTLINE
 10
-21.000000
 20
22.000000
 40
0.000000
 41
0.000000
 42
0.000000
  0
VERTEX
  8
BG_OUTLINE
 10
-21.000000
 20
-22.000000
 40
0.000000
 41
0.000000
 42
0.414214
  0
VERTEX
  8
BG_OUTLINE
 10
-20.000000
 20
-23.000000
 40
0.000000
 41
0.000000
 42
0.000000
  0
VERTEX
  8
BG_OUTLINE
 10
20.000000
 20
-23.000000
 40
0.000000
 41
0.000000
 42
0.414214
  0
VERTEX
  8
BG_OUTLINE
 10
21.000000
 20
-22.000000
 40
0.000000
 41
0.000000
 42
0.000000
  0
VERTEX
  8
BG_OUTLINE
 10
21.000000
 20
22.000000
 40
0.000000
 41
0.000000
 42
0.414214
  0
VERTEX
  8
BG_OUTLINE
 10
20.000000
 20
23.000000
 40
0.000000
 41
0.000000
 42
0.000000
  0
SEQEND
  0
TEXT
  8
BG_SILKSCREEN_BOTTOM
 10
-11.891200
 20
-12.081400
 11
0.000000
 21
0.000000
 40
0.787400
 41
0.907036
 50
0.000000
  7
STANDARD
 71
2
 72
0
  1
SIM2_RST
 73
0
  0
TEXT
  8
BG_SILKSCREEN_BOTTOM
 10
-11.794200
 20
-10.781300
 11
0.000000
 21
0.000000
 40
0.787400
 41
0.907036
 50
0.000000
  7
STANDARD
 71
2
 72
0
  1
SIM2_DATA
 73
0
  0
TEXT
  8
BG_SILKSCREEN_BOTTOM
 10
19.660200
 20
9.831400
 11
0.000000
 21
0.000000
 40
0.787400
 41
0.907036
 50
0.000000
  7
STANDARD
 71
2
 72
0
  1
LSP
 73
0
  0
TEXT
  8
BG_SILKSCREEN_BOTTOM
 10
19.645800
 20
7.303300
 11
0.000000
 21
0.000000
 40
0.787400
 41
0.907036
 50
0.000000
  7
STANDARD
 71
2
 72
0
  1
LSN
 73
0
  0
TEXT
  8
BG_SILKSCREEN_BOTTOM
 10
17.946200
 20
19.907000
 11
0.000000
 21
0.000000
 40
0.787400
 41
0.907036
 50
90.000000
  7
STANDARD
 71
2
 72
0
  1
MI
 73
0
  0
TEXT
  8
BG_SILKSCREEN_BOTTOM
 10
18.065000
 20
20.842600
 11
0.000000
 21
0.000000
 40
0.787400
 41
0.907036
 50
0.000000
  7
STANDARD
 71
2
 72
0
  1
CK
 73
0
  0
TEXT
  8
BG_SILKSCREEN_BOTTOM
 10
-16.663000
 20
18.026100
 11
0.000000
 21
0.000000
 40
0.787400
 41
0.907036
 50
0.000000
  7
STANDARD
 71
2
 72
0
  1
CS
 73
0
  0
TEXT
  8
BG_SILKSCREEN_BOTTOM
 10
-17.959000
 20
19.699000
 11
0.000000
 21
0.000000
 40
0.787400
 41
0.907036
 50
270.000000
  7
STANDARD
 71
2
 72
0
  1
MO
 73
0
  0
TEXT
  8
BG_SILKSCREEN_BOTTOM
 10
-11.976300
 20
-9.121200
 11
0.000000
 21
0.000000
 40
0.787400
 41
0.907036
 50
0.000000
  7
STANDARD
 71
2
 72
0
  1
SIM2_CLK
 73
0
  0
TEXT
  8
BG_SILKSCREEN_BOTTOM
 10
-15.374600
 20
-22.740100
 11
0.000000
 21
0.000000
 40
0.787400
 41
0.907036
 50
0.000000
  7
STANDARD
 71
2
 72
0
  1
GND
 73
0
  0
TEXT
  8
BG_SILKSCREEN_BOTTOM
 10
-15.720000
 20
-18.016700
 11
0.000000
 21
0.000000
 40
0.787400
 41
0.907036
 50
0.000000
  7
STANDARD
 71
2
 72
0
  1
3V3
 73
0
  0
TEXT
  8
BG_SILKSCREEN_BOTTOM
 10
-15.443500
 20
-16.893100
 11
0.000000
 21
0.000000
 40
0.787400
 41
0.907036
 50
0.000000
  7
STANDARD
 71
2
 72
0
  1
VIM2
 73
0
  0
TEXT
  8
BG_SILKSCREEN_BOTTOM
 10
-13.108500
 20
-6.314200
 11
0.000000
 21
0.000000
 40
0.787400
 41
0.907036
 50
0.000000
  7
STANDARD
 71
2
 72
0
  1
SD_DATA
 73
0
  0
TEXT
  8
BG_SILKSCREEN_BOTTOM
 10
-13.239200
 20
-4.378500
 11
0.000000
 21
0.000000
 40
0.787400
 41
0.907036
 50
0.000000
  7
STANDARD
 71
2
 72
0
  1
SD_CLK
 73
0
  0
TEXT
  8
BG_SILKSCREEN_BOTTOM
 10
-13.624600
 20
-1.836000
 11
0.000000
 21
0.000000
 40
0.787400
 41
0.907036
 50
0.000000
  7
STANDARD
 71
2
 72
0
  1
SD_CMD
 73
0
  0
TEXT
  8
BG_SILKSCREEN_BOTTOM
 10
-15.518200
 20
0.842400
 11
0.000000
 21
0.000000
 40
0.787400
 41
0.907036
 50
0.000000
  7
STANDARD
 71
2
 72
0
  1
ADC
 73
0
  0
TEXT
  8
BG_SILKSCREEN_BOTTOM
 10
-14.902200
 20
3.276600
 11
0.000000
 21
0.000000
 40
0.787400
 41
0.907036
 50
0.000000
  7
STANDARD
 71
2
 72
0
  1
SPKN
 73
0
  0
TEXT
  8
BG_SILKSCREEN_BOTTOM
 10
-14.988900
 20
5.833500
 11
0.000000
 21
0.000000
 40
0.787400
 41
0.907036
 50
0.000000
  7
STANDARD
 71
2
 72
0
  1
SPKP
 73
0
  0
TEXT
  8
BG_SILKSCREEN_BOTTOM
 10
-13.773800
 20
7.682500
 11
0.000000
 21
0.000000
 40
0.787400
 41
0.907036
 50
0.000000
  7
STANDARD
 71
2
 72
0
  1
MICN
 73
0
  0
TEXT
  8
BG_SILKSCREEN_BOTTOM
 10
-13.571600
 20
11.265000
 11
0.000000
 21
0.000000
 40
0.787400
 41
0.907036
 50
0.000000
  7
STANDARD
 71
2
 72
0
  1
MICP
 73
0
  0
TEXT
  8
BG_SILKSCREEN_BOTTOM
 10
-15.167900
 20
12.514600
 11
0.000000
 21
0.000000
 40
0.787400
 41
0.907036
 50
0.000000
  7
STANDARD
 71
2
 72
0
  1
VBAT
 73
0
  0
TEXT
  8
BG_SILKSCREEN_BOTTOM
 10
-15.778400
 20
16.679800
 11
0.000000
 21
0.000000
 40
0.787400
 41
0.907036
 50
0.000000
  7
STANDARD
 71
2
 72
0
  1
GND
 73
0
  0
TEXT
  8
BG_SILKSCREEN_BOTTOM
 10
18.134200
 20
-11.127600
 11
0.000000
 21
0.000000
 40
0.787400
 41
0.907036
 50
90.000000
  7
STANDARD
 71
2
 72
0
  1
GND
 73
0
  0
TEXT
  8
BG_SILKSCREEN_BOTTOM
 10
17.916200
 20
16.953100
 11
0.000000
 21
0.000000
 40
0.787400
 41
0.907036
 50
0.000000
  7
STANDARD
 71
2
 72
0
  1
GND
 73
0
  0
TEXT
  8
BG_SILKSCREEN_BOTTOM
 10
17.953400
 20
-7.475300
 11
0.000000
 21
0.000000
 40
0.787400
 41
0.907036
 50
90.000000
  7
STANDARD
 71
2
 72
0
  1
RI
 73
0
  0
TEXT
  8
BG_SILKSCREEN_BOTTOM
 10
11.828200
 20
-21.843900
 11
0.000000
 21
0.000000
 40
0.787400
 41
0.907036
 50
0.000000
  7
STANDARD
 71
2
 72
0
  1
DBG_TXD
 73
0
  0
TEXT
  8
BG_SILKSCREEN_BOTTOM
 10
11.710100
 20
-20.141000
 11
0.000000
 21
0.000000
 40
0.787400
 41
0.907036
 50
0.000000
  7
STANDARD
 71
2
 72
0
  1
DBG_RXD
 73
0
  0
TEXT
  8
BG_SILKSCREEN_BOTTOM
 10
17.967800
 20
-18.103300
 11
0.000000
 21
0.000000
 40
0.787400
 41
0.907036
 50
0.000000
  7
STANDARD
 71
2
 72
0
  1
RXD
 73
0
  0
TEXT
  8
BG_SILKSCREEN_BOTTOM
 10
17.895600
 20
-16.124200
 11
0.000000
 21
0.000000
 40
0.787400
 41
0.907036
 50
0.000000
  7
STANDARD
 71
2
 72
0
  1
TXD
 73
0
  0
TEXT
  8
BG_SILKSCREEN_BOTTOM
 10
17.866500
 20
-6.821300
 11
0.000000
 21
0.000000
 40
0.787400
 41
0.907036
 50
0.000000
  7
STANDARD
 71
2
 72
0
  1
DCD
 73
0
  0
TEXT
  8
BG_SILKSCREEN_BOTTOM
 10
17.895500
 20
-4.350900
 11
0.000000
 21
0.000000
 40
0.787400
 41
0.907036
 50
0.000000
  7
STANDARD
 71
2
 72
0
  1
DTR
 73
0
  0
TEXT
  8
BG_SILKSCREEN_BOTTOM
 10
17.808800
 20
-1.794000
 11
0.000000
 21
0.000000
 40
0.787400
 41
0.907036
 50
0.000000
  7
STANDARD
 71
2
 72
0
  1
CTS
 73
0
  0
TEXT
  8
BG_SILKSCREEN_BOTTOM
 10
17.873900
 20
0.690800
 11
0.000000
 21
0.000000
 40
0.787400
 41
0.907036
 50
0.000000
  7
STANDARD
 71
2
 72
0
  1
RTS
 73
0
  0
TEXT
  8
BG_SILKSCREEN_BOTTOM
 10
17.774500
 20
3.753100
 11
0.000000
 21
0.000000
 40
0.787400
 41
0.907036
 50
0.000000
  7
STANDARD
 71
2
 72
0
  1
NETL
 73
0
  0
TEXT
  8
BG_SILKSCREEN_BOTTOM
 10
17.933400
 20
5.067600
 11
0.000000
 21
0.000000
 40
0.787400
 41
0.907036
 50
0.000000
  7
STANDARD
 71
2
 72
0
  1
VRTC
 73
0
  0
TEXT
  8
BG_SILKSCREEN_BOTTOM
 10
18.134300
 20
14.662000
 11
0.000000
 21
0.000000
 40
0.787400
 41
0.907036
 50
90.000000
  7
STANDARD
 71
2
 72
0
  1
5V
 73
0
  0
ENDSEC
  0
EOF
